<?xml version="1.0" encoding="utf-8"?>
<!-- Generator: Adobe Illustrator 17.0.0, SVG Export Plug-In . SVG Version: 6.00 Build 0)  -->
<!DOCTYPE svg PUBLIC "-//W3C//DTD SVG 1.1//EN" "http://www.w3.org/Graphics/SVG/1.1/DTD/svg11.dtd">
<svg version="1.1" id="Calque_1" xmlns="http://www.w3.org/2000/svg" xmlns:xlink="http://www.w3.org/1999/xlink" x="0px" y="0px"
	 width="51.5px" height="66.75px" viewBox="-14.05 -16.867 51.5 66.75" enable-background="new -14.05 -16.867 51.5 66.75"
	 xml:space="preserve">
<path d="M20.9,2.767c0,0.289-0.111,0.544-0.333,0.767l-13.1,13.1l13.1,13.1c0.222,0.222,0.333,0.478,0.333,0.767
	s-0.111,0.544-0.333,0.767L18.9,32.933c-0.222,0.222-0.478,0.333-0.767,0.333s-0.544-0.111-0.767-0.333L1.833,17.4
	C1.611,17.178,1.5,16.922,1.5,16.633c0-0.289,0.111-0.544,0.333-0.767L17.367,0.333C17.589,0.111,17.844,0,18.133,0
	s0.544,0.111,0.767,0.333L20.567,2C20.789,2.222,20.9,2.478,20.9,2.767z"/>
</svg>
