<?xml version="1.0" encoding="utf-8"?>
<!-- Generator: Adobe Illustrator 17.0.0, SVG Export Plug-In . SVG Version: 6.00 Build 0)  -->
<!DOCTYPE svg PUBLIC "-//W3C//DTD SVG 1.1//EN" "http://www.w3.org/Graphics/SVG/1.1/DTD/svg11.dtd">
<svg version="1.1" id="Calque_1" xmlns="http://www.w3.org/2000/svg" xmlns:xlink="http://www.w3.org/1999/xlink" x="0px" y="0px"
	 width="55.467px" height="59.733px" viewBox="0 0 55.467 59.733" enable-background="new 0 0 55.467 59.733" xml:space="preserve">
<path d="M28.267,56.533c0-0.356-0.178-0.533-0.533-0.533c-1.311,0-2.439-0.472-3.383-1.417c-0.944-0.944-1.417-2.072-1.417-3.383
	c0-0.356-0.178-0.533-0.533-0.533s-0.533,0.178-0.533,0.533c0,1.622,0.572,3.006,1.717,4.15s2.528,1.717,4.15,1.717
	C28.089,57.067,28.267,56.889,28.267,56.533z M6.1,46.933h43.267c-3.644-4.022-6.383-8.594-8.217-13.717
	c-1.833-5.122-2.75-10.506-2.75-16.15c0-5.689-3.556-8.533-10.667-8.533s-10.667,2.844-10.667,8.533
	c0,5.644-0.917,11.028-2.75,16.15S9.744,42.911,6.1,46.933z M55.467,46.933c0,1.156-0.422,2.156-1.267,3
	c-0.844,0.844-1.844,1.267-3,1.267H36.267c0,2.356-0.833,4.367-2.5,6.033c-1.667,1.667-3.678,2.5-6.033,2.5s-4.367-0.833-6.033-2.5
	c-1.667-1.667-2.5-3.678-2.5-6.033H4.267c-1.156,0-2.156-0.422-3-1.267S0,48.089,0,46.933c4.222-3.578,7.411-7.994,9.567-13.25
	S12.8,22.889,12.8,17.067c0-3.667,1.067-6.578,3.2-8.733s5.067-3.456,8.8-3.9c-0.178-0.4-0.267-0.811-0.267-1.233
	c0-0.889,0.311-1.644,0.933-2.267S26.844,0,27.733,0S29.378,0.311,30,0.933s0.933,1.378,0.933,2.267
	c0,0.422-0.089,0.833-0.267,1.233c3.733,0.444,6.667,1.744,8.8,3.9c2.133,2.156,3.2,5.067,3.2,8.733
	c0,5.822,1.078,11.361,3.233,16.617C48.056,38.939,51.244,43.356,55.467,46.933z"/>
</svg>
