<?xml version="1.0" encoding="utf-8"?>
<!-- Generator: Adobe Illustrator 17.0.0, SVG Export Plug-In . SVG Version: 6.00 Build 0)  -->
<!DOCTYPE svg PUBLIC "-//W3C//DTD SVG 1.1//EN" "http://www.w3.org/Graphics/SVG/1.1/DTD/svg11.dtd">
<svg version="1.1" id="Calque_1" xmlns="http://www.w3.org/2000/svg" xmlns:xlink="http://www.w3.org/1999/xlink" x="0px" y="0px"
	 width="59.467px" height="46.933px" viewBox="0 0 59.467 46.933" enable-background="new 0 0 59.467 46.933" xml:space="preserve">
<path d="M29.6,35.2l3.867-3.867L28.4,26.267l-3.867,3.867V32h3.2v3.2H29.6z M44.267,11.2c-0.356-0.356-0.722-0.344-1.1,0.033
	L31.5,22.9c-0.378,0.378-0.389,0.744-0.033,1.1s0.722,0.344,1.1-0.033L44.233,12.3C44.611,11.922,44.622,11.556,44.267,11.2z
	 M46.933,31v6.333c0,2.644-0.939,4.906-2.817,6.783c-1.878,1.878-4.139,2.817-6.783,2.817H9.6c-2.644,0-4.906-0.939-6.783-2.817
	S0,39.978,0,37.333V9.6c0-2.644,0.939-4.906,2.817-6.783S6.956,0,9.6,0h27.733c1.4,0,2.7,0.278,3.9,0.833
	c0.333,0.156,0.533,0.411,0.6,0.767c0.067,0.378-0.033,0.7-0.3,0.967L39.9,4.2c-0.311,0.311-0.667,0.4-1.067,0.267
	c-0.511-0.133-1.011-0.2-1.5-0.2H9.6c-1.467,0-2.722,0.522-3.767,1.567S4.267,8.133,4.267,9.6v27.733
	c0,1.467,0.522,2.722,1.567,3.767s2.3,1.567,3.767,1.567h27.733c1.467,0,2.722-0.522,3.767-1.567s1.567-2.3,1.567-3.767v-4.2
	c0-0.289,0.1-0.533,0.3-0.733l2.133-2.133c0.333-0.333,0.722-0.411,1.167-0.233C46.711,30.211,46.933,30.533,46.933,31z M43.733,6.4
	l9.6,9.6l-22.4,22.4h-9.6v-9.6L43.733,6.4z M58.533,10.8l-3.067,3.067l-9.6-9.6L48.933,1.2c0.622-0.622,1.378-0.933,2.267-0.933
	c0.889,0,1.644,0.311,2.267,0.933l5.067,5.067c0.622,0.622,0.933,1.378,0.933,2.267S59.156,10.178,58.533,10.8z"/>
</svg>
