<?xml version="1.0" encoding="utf-8"?>
<!-- Generator: Adobe Illustrator 17.0.0, SVG Export Plug-In . SVG Version: 6.00 Build 0)  -->
<!DOCTYPE svg PUBLIC "-//W3C//DTD SVG 1.1//EN" "http://www.w3.org/Graphics/SVG/1.1/DTD/svg11.dtd">
<svg version="1.1" id="Calque_1" xmlns="http://www.w3.org/2000/svg" xmlns:xlink="http://www.w3.org/1999/xlink" x="0px" y="0px"
	 width="71px" height="68.5px" viewBox="-6.25 -25.5 71 68.5" enable-background="new -6.25 -25.5 71 68.5" xml:space="preserve">
<path d="M34.133,27.967v-6.333c0-0.311-0.106-0.572-0.317-0.783c-0.211-0.211-0.461-0.317-0.75-0.317h-6.4
	c-0.289,0-0.539,0.106-0.75,0.317S25.6,21.322,25.6,21.633v6.333c0,0.311,0.106,0.572,0.317,0.783s0.461,0.317,0.75,0.317h6.4
	c0.289,0,0.539-0.106,0.75-0.317C34.028,28.539,34.133,28.278,34.133,27.967z M34.067,15.5l0.6-15.3
	c0-0.267-0.111-0.478-0.333-0.633c-0.289-0.244-0.556-0.367-0.8-0.367H26.2c-0.244,0-0.511,0.122-0.8,0.367
	c-0.222,0.156-0.333,0.389-0.333,0.7L25.633,15.5c0,0.222,0.111,0.406,0.333,0.55c0.222,0.144,0.489,0.217,0.8,0.217h6.167
	c0.311,0,0.572-0.072,0.783-0.217C33.928,15.906,34.044,15.722,34.067,15.5z M33.6-15.633L59.2,31.3c0.778,1.4,0.756,2.8-0.067,4.2
	c-0.378,0.644-0.894,1.156-1.55,1.533c-0.656,0.378-1.361,0.567-2.117,0.567h-51.2c-0.756,0-1.461-0.189-2.117-0.567
	C1.494,36.656,0.978,36.144,0.6,35.5c-0.822-1.4-0.844-2.8-0.067-4.2l25.6-46.933c0.378-0.689,0.9-1.233,1.567-1.633
	c0.667-0.4,1.389-0.6,2.167-0.6c0.778,0,1.5,0.2,2.167,0.6C32.7-16.867,33.222-16.322,33.6-15.633z"/>
</svg>
