<?xml version="1.0" encoding="utf-8"?>
<!-- Generator: Adobe Illustrator 17.0.0, SVG Export Plug-In . SVG Version: 6.00 Build 0)  -->
<!DOCTYPE svg PUBLIC "-//W3C//DTD SVG 1.1//EN" "http://www.w3.org/Graphics/SVG/1.1/DTD/svg11.dtd">
<svg version="1.1" id="Calque_1" xmlns="http://www.w3.org/2000/svg" xmlns:xlink="http://www.w3.org/1999/xlink" x="0px" y="0px"
	 width="42.667px" height="52.5px" viewBox="0 0 42.667 52.5" enable-background="new 0 0 42.667 52.5" xml:space="preserve">
<path d="M4.267,46.933H38.4v-25.6H24.533c-0.889,0-1.644-0.311-2.267-0.933s-0.933-1.378-0.933-2.267V4.267H4.267V46.933z
	 M25.6,17.067h12.533c-0.222-0.644-0.467-1.1-0.733-1.367L26.967,5.267C26.7,5,26.244,4.756,25.6,4.533V17.067z M42.667,18.133V48
	c0,0.889-0.311,1.644-0.933,2.267c-0.622,0.622-1.378,0.933-2.267,0.933H3.2c-0.889,0-1.644-0.311-2.267-0.933S0,48.889,0,48V3.2
	c0-0.889,0.311-1.644,0.933-2.267S2.311,0,3.2,0h21.333c0.889,0,1.867,0.222,2.933,0.667c1.067,0.444,1.911,0.978,2.533,1.6
	l10.4,10.4c0.622,0.622,1.156,1.467,1.6,2.533S42.667,17.244,42.667,18.133z"/>
</svg>
