<?xml version="1.0" encoding="utf-8"?>
<!-- Generator: Adobe Illustrator 17.0.0, SVG Export Plug-In . SVG Version: 6.00 Build 0)  -->
<!DOCTYPE svg PUBLIC "-//W3C//DTD SVG 1.1//EN" "http://www.w3.org/Graphics/SVG/1.1/DTD/svg11.dtd">
<svg version="1.1" id="Calque_1" xmlns="http://www.w3.org/2000/svg" xmlns:xlink="http://www.w3.org/1999/xlink" x="0px" y="0px"
	 width="64px" height="59.733px" viewBox="0 0 64 59.733" enable-background="new 0 0 64 59.733" xml:space="preserve">
<path d="M19.767,29.867c-3.6,0.111-6.544,1.533-8.833,4.267H6.467c-1.822,0-3.356-0.45-4.6-1.35C0.622,31.883,0,30.567,0,28.833
	c0-7.844,1.378-11.767,4.133-11.767c0.133,0,0.617,0.233,1.45,0.7s1.917,0.939,3.25,1.417S11.489,19.9,12.8,19.9
	c1.489,0,2.967-0.256,4.433-0.767c-0.111,0.822-0.167,1.556-0.167,2.2C17.067,24.422,17.967,27.267,19.767,29.867z M55.467,51.1
	c0,2.667-0.811,4.772-2.433,6.317c-1.622,1.544-3.778,2.317-6.467,2.317H17.433c-2.689,0-4.844-0.772-6.467-2.317
	c-1.622-1.544-2.433-3.65-2.433-6.317c0-1.178,0.039-2.328,0.117-3.45s0.233-2.333,0.467-3.633C9.35,42.717,9.644,41.511,10,40.4
	c0.356-1.111,0.833-2.194,1.433-3.25c0.6-1.056,1.289-1.956,2.067-2.7c0.778-0.744,1.728-1.339,2.85-1.783
	C17.472,32.222,18.711,32,20.067,32c0.222,0,0.7,0.239,1.433,0.717c0.733,0.478,1.544,1.011,2.433,1.6
	c0.889,0.589,2.078,1.122,3.567,1.6c1.489,0.478,2.989,0.717,4.5,0.717c1.511,0,3.011-0.239,4.5-0.717
	c1.489-0.478,2.678-1.011,3.567-1.6c0.889-0.589,1.7-1.122,2.433-1.6C43.233,32.239,43.711,32,43.933,32
	c1.356,0,2.594,0.222,3.717,0.667c1.122,0.444,2.072,1.039,2.85,1.783c0.778,0.744,1.467,1.644,2.067,2.7
	c0.6,1.056,1.078,2.139,1.433,3.25c0.356,1.111,0.65,2.317,0.883,3.617s0.389,2.511,0.467,3.633
	C55.428,48.772,55.467,49.922,55.467,51.1z M21.333,8.533c0,2.356-0.833,4.367-2.5,6.033c-1.667,1.667-3.678,2.5-6.033,2.5
	s-4.367-0.833-6.033-2.5s-2.5-3.678-2.5-6.033S5.1,4.167,6.767,2.5S10.444,0,12.8,0s4.367,0.833,6.033,2.5
	C20.5,4.167,21.333,6.178,21.333,8.533z M44.8,21.333c0,3.533-1.25,6.55-3.75,9.05s-5.517,3.75-9.05,3.75s-6.55-1.25-9.05-3.75
	s-3.75-5.517-3.75-9.05s1.25-6.55,3.75-9.05s5.517-3.75,9.05-3.75s6.55,1.25,9.05,3.75S44.8,17.8,44.8,21.333z M64,28.833
	c0,1.733-0.622,3.05-1.867,3.95c-1.244,0.9-2.778,1.35-4.6,1.35h-4.467c-2.289-2.733-5.233-4.156-8.833-4.267
	c1.8-2.6,2.7-5.444,2.7-8.533c0-0.644-0.056-1.378-0.167-2.2c1.467,0.511,2.944,0.767,4.433,0.767c1.311,0,2.633-0.239,3.967-0.717
	c1.333-0.478,2.417-0.95,3.25-1.417c0.833-0.467,1.317-0.7,1.45-0.7C62.622,17.067,64,20.989,64,28.833z M59.733,8.533
	c0,2.356-0.833,4.367-2.5,6.033s-3.678,2.5-6.033,2.5c-2.356,0-4.367-0.833-6.033-2.5c-1.667-1.667-2.5-3.678-2.5-6.033
	s0.833-4.367,2.5-6.033C46.833,0.833,48.844,0,51.2,0c2.356,0,4.367,0.833,6.033,2.5S59.733,6.178,59.733,8.533z"/>
</svg>
