<?xml version="1.0" encoding="utf-8"?>
<!-- Generator: Adobe Illustrator 17.0.0, SVG Export Plug-In . SVG Version: 6.00 Build 0)  -->
<!DOCTYPE svg PUBLIC "-//W3C//DTD SVG 1.1//EN" "http://www.w3.org/Graphics/SVG/1.1/DTD/svg11.dtd">
<svg version="1.1" id="Calque_1" xmlns="http://www.w3.org/2000/svg" xmlns:xlink="http://www.w3.org/1999/xlink" x="0px" y="0px"
	 width="51.2px" height="51.2px" viewBox="0 0 51.2 51.2" enable-background="new 0 0 51.2 51.2" xml:space="preserve">
<path d="M34.133,41.6v-5.333c0-0.311-0.1-0.567-0.3-0.767c-0.2-0.2-0.456-0.3-0.767-0.3h-3.2V18.133c0-0.311-0.1-0.567-0.3-0.767
	c-0.2-0.2-0.456-0.3-0.767-0.3H18.133c-0.311,0-0.567,0.1-0.767,0.3c-0.2,0.2-0.3,0.456-0.3,0.767v5.333
	c0,0.311,0.1,0.567,0.3,0.767c0.2,0.2,0.456,0.3,0.767,0.3h3.2V35.2h-3.2c-0.311,0-0.567,0.1-0.767,0.3
	c-0.2,0.2-0.3,0.456-0.3,0.767V41.6c0,0.311,0.1,0.567,0.3,0.767c0.2,0.2,0.456,0.3,0.767,0.3h14.933c0.311,0,0.567-0.1,0.767-0.3
	S34.133,41.911,34.133,41.6z M29.867,11.733V6.4c0-0.311-0.1-0.567-0.3-0.767c-0.2-0.2-0.456-0.3-0.767-0.3h-6.4
	c-0.311,0-0.567,0.1-0.767,0.3c-0.2,0.2-0.3,0.456-0.3,0.767v5.333c0,0.311,0.1,0.567,0.3,0.767c0.2,0.2,0.456,0.3,0.767,0.3h6.4
	c0.311,0,0.567-0.1,0.767-0.3C29.767,12.3,29.867,12.044,29.867,11.733z M51.2,25.6c0,4.644-1.144,8.928-3.433,12.85
	s-5.394,7.028-9.317,9.317C34.528,50.056,30.244,51.2,25.6,51.2s-8.928-1.144-12.85-3.433c-3.922-2.289-7.028-5.394-9.317-9.317
	S0,30.244,0,25.6s1.144-8.928,3.433-12.85s5.394-7.028,9.317-9.317S20.956,0,25.6,0s8.928,1.144,12.85,3.433
	s7.028,5.394,9.317,9.317S51.2,20.956,51.2,25.6z"/>
</svg>
