<?xml version="1.0" encoding="utf-8"?>
<!-- Generator: Adobe Illustrator 17.0.0, SVG Export Plug-In . SVG Version: 6.00 Build 0)  -->
<!DOCTYPE svg PUBLIC "-//W3C//DTD SVG 1.1//EN" "http://www.w3.org/Graphics/SVG/1.1/DTD/svg11.dtd">
<svg version="1.1" id="Calque_1" xmlns="http://www.w3.org/2000/svg" xmlns:xlink="http://www.w3.org/1999/xlink" x="0px" y="0px"
	 width="57.5px" height="67.875px" viewBox="0 0 57.5 67.875" enable-background="new 0 0 57.5 67.875" xml:space="preserve">
<path fill="#010101" d="M32.555,39.32L45.45,26.425c0.222-0.223,0.333-0.478,0.333-0.767s-0.111-0.545-0.333-0.767l-1.666-1.667
	c-0.223-0.222-0.478-0.333-0.767-0.333s-0.545,0.111-0.767,0.333l-13.1,13.1l-13.1-13.1c-0.222-0.222-0.478-0.333-0.767-0.333
	s-0.544,0.111-0.766,0.333l-1.667,1.667c-0.222,0.222-0.333,0.478-0.333,0.767s0.111,0.544,0.333,0.766L25.744,39.32L12.849,52.214
	c-0.222,0.223-0.333,0.478-0.333,0.767s0.111,0.545,0.333,0.767l1.666,1.667c0.223,0.222,0.478,0.333,0.767,0.333
	s0.545-0.111,0.767-0.333l13.1-13.1l13.1,13.1c0.222,0.222,0.478,0.333,0.767,0.333s0.544-0.111,0.766-0.333l1.667-1.667
	c0.222-0.222,0.333-0.478,0.333-0.767s-0.111-0.544-0.333-0.766L32.555,39.32z"/>
</svg>
