<?xml version="1.0" encoding="utf-8"?>
<!-- Generator: Adobe Illustrator 17.0.0, SVG Export Plug-In . SVG Version: 6.00 Build 0)  -->
<!DOCTYPE svg PUBLIC "-//W3C//DTD SVG 1.1//EN" "http://www.w3.org/Graphics/SVG/1.1/DTD/svg11.dtd">
<svg version="1.1" id="Calque_1" xmlns="http://www.w3.org/2000/svg" xmlns:xlink="http://www.w3.org/1999/xlink" x="0px" y="0px"
	 width="34.133px" height="51.2px" viewBox="0 0 34.133 51.2" enable-background="new 0 0 34.133 51.2" xml:space="preserve">
<path d="M25.6,17.067c0-2.356-0.833-4.367-2.5-6.033c-1.667-1.667-3.678-2.5-6.033-2.5s-4.367,0.833-6.033,2.5s-2.5,3.678-2.5,6.033
	s0.833,4.367,2.5,6.033c1.667,1.667,3.678,2.5,6.033,2.5s4.367-0.833,6.033-2.5C24.767,21.433,25.6,19.422,25.6,17.067z
	 M34.133,17.067c0,2.422-0.367,4.411-1.1,5.967L20.9,48.833c-0.356,0.733-0.883,1.311-1.583,1.733c-0.7,0.422-1.45,0.633-2.25,0.633
	c-0.8,0-1.55-0.211-2.25-0.633s-1.217-1-1.55-1.733L1.1,23.033C0.367,21.478,0,19.489,0,17.067C0,12.356,1.667,8.333,5,5
	s7.356-5,12.067-5S25.8,1.667,29.133,5S34.133,12.356,34.133,17.067z"/>
</svg>
