<?xml version="1.0" encoding="utf-8"?>
<!-- Generator: Adobe Illustrator 17.0.0, SVG Export Plug-In . SVG Version: 6.00 Build 0)  -->
<!DOCTYPE svg PUBLIC "-//W3C//DTD SVG 1.1//EN" "http://www.w3.org/Graphics/SVG/1.1/DTD/svg11.dtd">
<svg version="1.1" id="Calque_1" xmlns="http://www.w3.org/2000/svg" xmlns:xlink="http://www.w3.org/1999/xlink" x="0px" y="0px"
	 width="51.2px" height="52.6px" viewBox="0 0 51.2 52.6" enable-background="new 0 0 51.2 52.6" xml:space="preserve">
<path d="M51.2,5.667V20.6c0,0.578-0.211,1.078-0.633,1.5c-0.422,0.422-0.922,0.633-1.5,0.633H34.133
	c-0.933,0-1.589-0.444-1.967-1.333c-0.378-0.867-0.222-1.633,0.467-2.3l4.6-4.6c-3.289-3.044-7.167-4.567-11.633-4.567
	c-2.311,0-4.517,0.45-6.617,1.35c-2.1,0.9-3.917,2.117-5.45,3.65c-1.533,1.533-2.75,3.35-3.65,5.45c-0.9,2.1-1.35,4.306-1.35,6.617
	s0.45,4.517,1.35,6.617c0.9,2.1,2.117,3.917,3.65,5.45c1.533,1.533,3.35,2.75,5.45,3.65s4.306,1.35,6.617,1.35
	c2.644,0,5.144-0.578,7.5-1.733c2.356-1.156,4.344-2.789,5.967-4.9c0.156-0.222,0.411-0.356,0.767-0.4c0.311,0,0.589,0.1,0.833,0.3
	l4.567,4.6c0.2,0.178,0.306,0.406,0.317,0.683c0.011,0.278-0.072,0.528-0.25,0.75c-2.422,2.933-5.356,5.206-8.8,6.817
	S29.422,52.6,25.6,52.6c-3.467,0-6.778-0.678-9.933-2.033C12.511,49.211,9.789,47.389,7.5,45.1
	c-2.289-2.289-4.111-5.011-5.467-8.167S0,30.467,0,27s0.678-6.778,2.033-9.933C3.389,13.911,5.211,11.189,7.5,8.9
	s5.011-4.111,8.167-5.467S22.133,1.4,25.6,1.4c3.267,0,6.428,0.617,9.483,1.85c3.056,1.233,5.772,2.972,8.15,5.217l4.333-4.3
	C48.211,3.478,48.989,3.322,49.9,3.7C50.767,4.078,51.2,4.733,51.2,5.667z"/>
</svg>
