<?xml version="1.0" encoding="utf-8"?>
<!-- Generator: Adobe Illustrator 18.0.0, SVG Export Plug-In . SVG Version: 6.00 Build 0)  -->
<!DOCTYPE svg PUBLIC "-//W3C//DTD SVG 1.1//EN" "http://www.w3.org/Graphics/SVG/1.1/DTD/svg11.dtd">
<svg version="1.1" id="Layer_1" xmlns="http://www.w3.org/2000/svg" xmlns:xlink="http://www.w3.org/1999/xlink" x="0px" y="0px"
	 viewBox="-7 -18 67 65" enable-background="new -7 -18 67 65" xml:space="preserve">
<path d="M38.4,9.9c0-4.1-1.5-7.6-4.4-10.6s-6.4-4.4-10.5-4.4s-7.6,1.5-10.6,4.4S8.5,5.8,8.5,9.9s1.5,7.6,4.4,10.6s6.4,4.4,10.6,4.4
	s7.6-1.5,10.5-4.4S38.4,14,38.4,9.9z M55.5,37.6c0,1.2-0.4,2.2-1.3,3c-0.8,0.8-1.8,1.3-3,1.3c-1.2,0-2.2-0.4-3-1.3L36.8,29.2
	c-4,2.8-8.4,4.1-13.3,4.1c-3.2,0-6.2-0.6-9.1-1.9s-5.4-2.9-7.5-5s-3.8-4.6-5-7.5S0,13,0,9.9s0.6-6.2,1.9-9.1s2.9-5.4,5-7.5
	s4.6-3.8,7.5-5s5.9-1.9,9.1-1.9s6.2,0.6,9.1,1.9c2.9,1.2,5.4,2.9,7.5,5c2.1,2.1,3.8,4.6,5,7.5s1.8,5.9,1.8,9.1
	c0,4.9-1.4,9.3-4.1,13.3l11.4,11.4C55.1,35.4,55.5,36.4,55.5,37.6z"/>
</svg>
