<?xml version="1.0" encoding="utf-8"?>
<!-- Generator: Adobe Illustrator 17.0.0, SVG Export Plug-In . SVG Version: 6.00 Build 0)  -->
<!DOCTYPE svg PUBLIC "-//W3C//DTD SVG 1.1//EN" "http://www.w3.org/Graphics/SVG/1.1/DTD/svg11.dtd">
<svg version="1.1" id="Calque_1" xmlns="http://www.w3.org/2000/svg" xmlns:xlink="http://www.w3.org/1999/xlink" x="0px" y="0px"
	 width="59.733px" height="46.933px" viewBox="0 0 59.733 46.933" enable-background="new 0 0 59.733 46.933" xml:space="preserve">
<path d="M55.467,41.6V16c-0.711,0.8-1.478,1.533-2.3,2.2c-5.956,4.578-10.689,8.333-14.2,11.267c-1.133,0.956-2.056,1.7-2.767,2.233
	c-0.711,0.533-1.672,1.072-2.883,1.617c-1.211,0.544-2.35,0.817-3.417,0.817h-0.033h-0.033c-1.067,0-2.206-0.272-3.417-0.817
	c-1.211-0.544-2.172-1.083-2.883-1.617c-0.711-0.533-1.633-1.278-2.767-2.233c-3.511-2.933-8.244-6.689-14.2-11.267
	c-0.822-0.667-1.589-1.4-2.3-2.2v25.6c0,0.289,0.106,0.539,0.317,0.75c0.211,0.211,0.461,0.317,0.75,0.317H54.4
	c0.289,0,0.539-0.106,0.75-0.317C55.361,42.139,55.467,41.889,55.467,41.6z M55.467,6.567V6.2V5.75c0,0-0.006-0.144-0.017-0.433
	s-0.044-0.428-0.1-0.417c-0.056,0.011-0.117-0.089-0.183-0.3C55.1,4.389,55,4.306,54.867,4.35c-0.133,0.044-0.289,0.017-0.467-0.083
	H5.333c-0.289,0-0.539,0.106-0.75,0.317c-0.211,0.211-0.317,0.461-0.317,0.75c0,3.733,1.633,6.889,4.9,9.467
	c4.289,3.378,8.744,6.9,13.367,10.567c0.133,0.111,0.522,0.439,1.167,0.983s1.156,0.961,1.533,1.25s0.872,0.639,1.483,1.05
	s1.172,0.717,1.683,0.917s0.989,0.3,1.433,0.3h0.033H29.9c0.444,0,0.922-0.1,1.433-0.3s1.072-0.506,1.683-0.917
	s1.106-0.761,1.483-1.05s0.889-0.706,1.533-1.25c0.644-0.544,1.033-0.872,1.167-0.983c4.622-3.667,9.078-7.189,13.367-10.567
	c1.2-0.956,2.317-2.239,3.35-3.85C54.95,9.339,55.467,7.878,55.467,6.567z M59.733,5.333V41.6c0,1.467-0.522,2.722-1.567,3.767
	c-1.044,1.044-2.3,1.567-3.767,1.567H5.333c-1.467,0-2.722-0.522-3.767-1.567S0,43.067,0,41.6V5.333
	c0-1.467,0.522-2.722,1.567-3.767S3.867,0,5.333,0H54.4c1.467,0,2.722,0.522,3.767,1.567C59.211,2.611,59.733,3.867,59.733,5.333z"
	/>
</svg>
