<?xml version="1.0" encoding="utf-8"?>
<!-- Generator: Adobe Illustrator 17.1.0, SVG Export Plug-In . SVG Version: 6.00 Build 0)  -->
<!DOCTYPE svg PUBLIC "-//W3C//DTD SVG 1.1//EN" "http://www.w3.org/Graphics/SVG/1.1/DTD/svg11.dtd">
<svg version="1.1" id="Calque_1" xmlns="http://www.w3.org/2000/svg" xmlns:xlink="http://www.w3.org/1999/xlink" x="0px" y="0px"
	 width="52.5px" height="49.75px" viewBox="-6.917 -11.833 52.5 49.75" xml:space="preserve">
<path d="M2.6,20.5c0-0.3,0.1-0.5,0.3-0.8L18.4,4.2c0.2-0.2,0.5-0.3,0.8-0.3S19.7,4,20,4.2l15.5,15.5c0.2,0.2,0.3,0.5,0.3,0.8
	s-0.1,0.5-0.3,0.8L33.8,23c-0.2,0.2-0.5,0.3-0.8,0.3c-0.3,0-0.5-0.1-0.8-0.3L19.2,9.9L6.1,23c-0.2,0.2-0.5,0.3-0.8,0.3
	S4.8,23.2,4.6,23l-1.7-1.7C2.7,21.1,2.6,20.8,2.6,20.5z"/>
</svg>
