<?xml version="1.0" encoding="utf-8"?>
<!-- Generator: Adobe Illustrator 17.0.0, SVG Export Plug-In . SVG Version: 6.00 Build 0)  -->
<!DOCTYPE svg PUBLIC "-//W3C//DTD SVG 1.1//EN" "http://www.w3.org/Graphics/SVG/1.1/DTD/svg11.dtd">
<svg version="1.1" id="Calque_1" xmlns="http://www.w3.org/2000/svg" xmlns:xlink="http://www.w3.org/1999/xlink" x="0px" y="0px"
	 width="52.5px" height="49.75px" viewBox="-6.917 -11.833 52.5 49.75" enable-background="new -6.917 -11.833 52.5 49.75"
	 xml:space="preserve">
<path d="M35.833,6.667c0,0.289-0.111,0.544-0.333,0.767L19.967,22.967C19.744,23.189,19.489,23.3,19.2,23.3
	s-0.544-0.111-0.767-0.333L2.9,7.433C2.678,7.211,2.567,6.956,2.567,6.667S2.678,6.122,2.9,5.9l1.667-1.667
	C4.789,4.011,5.044,3.9,5.333,3.9S5.878,4.011,6.1,4.233l13.1,13.1l13.1-13.1C32.522,4.011,32.778,3.9,33.067,3.9
	s0.544,0.111,0.767,0.333L35.5,5.9C35.722,6.122,35.833,6.378,35.833,6.667z"/>
</svg>
