<?xml version="1.0" encoding="utf-8"?>
<!-- Generator: Adobe Illustrator 17.0.0, SVG Export Plug-In . SVG Version: 6.00 Build 0)  -->
<!DOCTYPE svg PUBLIC "-//W3C//DTD SVG 1.1//EN" "http://www.w3.org/Graphics/SVG/1.1/DTD/svg11.dtd">
<svg version="1.1" id="Calque_1" xmlns="http://www.w3.org/2000/svg" xmlns:xlink="http://www.w3.org/1999/xlink" x="0px" y="0px"
	 width="64px" height="55.467px" viewBox="0 0 64 55.467" enable-background="new 0 0 64 55.467" xml:space="preserve">
<path d="M32,22.4c2.644,0,4.906,0.939,6.783,2.817C40.661,27.094,41.6,29.356,41.6,32s-0.939,4.906-2.817,6.783
	C36.906,40.661,34.644,41.6,32,41.6s-4.906-0.939-6.783-2.817C23.339,36.906,22.4,34.644,22.4,32s0.939-4.906,2.817-6.783
	S29.356,22.4,32,22.4z M55.467,8.533c2.356,0,4.367,0.833,6.033,2.5s2.5,3.678,2.5,6.033v29.867c0,2.356-0.833,4.367-2.5,6.033
	c-1.667,1.667-3.678,2.5-6.033,2.5H8.533c-2.356,0-4.367-0.833-6.033-2.5C0.833,51.3,0,49.289,0,46.933V17.067
	c0-2.356,0.833-4.367,2.5-6.033s3.678-2.5,6.033-2.5H16L17.7,4c0.422-1.089,1.194-2.028,2.317-2.817S22.289,0,23.467,0h17.067
	c1.178,0,2.328,0.394,3.45,1.183C45.106,1.972,45.878,2.911,46.3,4L48,8.533H55.467z M32,46.933c4.111,0,7.628-1.461,10.55-4.383
	s4.383-6.439,4.383-10.55s-1.461-7.628-4.383-10.55S36.111,17.067,32,17.067s-7.628,1.461-10.55,4.383S17.067,27.889,17.067,32
	s1.461,7.628,4.383,10.55S27.889,46.933,32,46.933z"/>
</svg>
