<?xml version="1.0" encoding="utf-8"?>
<!-- Generator: Adobe Illustrator 17.0.0, SVG Export Plug-In . SVG Version: 6.00 Build 0)  -->
<!DOCTYPE svg PUBLIC "-//W3C//DTD SVG 1.1//EN" "http://www.w3.org/Graphics/SVG/1.1/DTD/svg11.dtd">
<svg version="1.1" id="Calque_1" xmlns="http://www.w3.org/2000/svg" xmlns:xlink="http://www.w3.org/1999/xlink" x="0px" y="0px"
	 width="64.305px" height="63.517px" viewBox="-6.5 -20.042 64.305 63.517" enable-background="new -6.5 -20.042 64.305 63.517"
	 xml:space="preserve">
<path d="M29.867,0.267V15.2c0,0.311-0.1,0.567-0.3,0.767c-0.2,0.2-0.456,0.3-0.767,0.3H18.133c-0.311,0-0.567-0.1-0.767-0.3
	c-0.2-0.2-0.3-0.456-0.3-0.767v-2.133c0-0.311,0.1-0.567,0.3-0.767c0.2-0.2,0.456-0.3,0.767-0.3H25.6V0.267
	c0-0.311,0.1-0.567,0.3-0.767c0.2-0.2,0.456-0.3,0.767-0.3H28.8c0.311,0,0.567,0.1,0.767,0.3C29.767-0.3,29.867-0.044,29.867,0.267z
	 M43.733,12c0-3.289-0.811-6.322-2.433-9.1c-1.622-2.778-3.822-4.978-6.6-6.6s-5.811-2.433-9.1-2.433S19.278-5.322,16.5-3.7
	s-4.978,3.822-6.6,6.6S7.467,8.711,7.467,12s0.811,6.322,2.433,9.1s3.822,4.978,6.6,6.6s5.811,2.433,9.1,2.433
	s6.322-0.811,9.1-2.433s4.978-3.822,6.6-6.6C42.922,18.322,43.733,15.289,43.733,12z M51.2,12c0,4.644-1.144,8.928-3.433,12.85
	c-2.289,3.922-5.394,7.028-9.317,9.317S30.244,37.6,25.6,37.6s-8.928-1.144-12.85-3.433s-7.028-5.394-9.317-9.317S0,16.644,0,12
	S1.144,3.072,3.433-0.85s5.394-7.028,9.317-9.317S20.956-13.6,25.6-13.6s8.928,1.144,12.85,3.433s7.028,5.394,9.317,9.317
	C50.056,3.072,51.2,7.356,51.2,12z"/>
</svg>
