<?xml version="1.0" encoding="utf-8"?>
<!-- Generator: Adobe Illustrator 17.0.0, SVG Export Plug-In . SVG Version: 6.00 Build 0)  -->
<!DOCTYPE svg PUBLIC "-//W3C//DTD SVG 1.1//EN" "http://www.w3.org/Graphics/SVG/1.1/DTD/svg11.dtd">
<svg version="1.1" id="Calque_1" xmlns="http://www.w3.org/2000/svg" xmlns:xlink="http://www.w3.org/1999/xlink" x="0px" y="0px"
	 width="50.667px" height="66.333px" viewBox="-16.25 -16.867 50.667 66.333" enable-background="new -16.25 -16.867 50.667 66.333"
	 xml:space="preserve">
<path d="M19.833,16.633c0,0.289-0.111,0.544-0.333,0.767L3.967,32.933c-0.222,0.222-0.478,0.333-0.767,0.333
	s-0.544-0.111-0.767-0.333l-1.667-1.667c-0.222-0.222-0.333-0.478-0.333-0.767s0.111-0.544,0.333-0.767l13.1-13.1l-13.1-13.1
	C0.544,3.311,0.433,3.056,0.433,2.767S0.544,2.222,0.767,2l1.667-1.667C2.656,0.111,2.911,0,3.2,0s0.544,0.111,0.767,0.333
	L19.5,15.867C19.722,16.089,19.833,16.344,19.833,16.633z"/>
</svg>
