<?xml version="1.0" encoding="utf-8"?>
<!-- Generator: Adobe Illustrator 17.0.0, SVG Export Plug-In . SVG Version: 6.00 Build 0)  -->
<!DOCTYPE svg PUBLIC "-//W3C//DTD SVG 1.1//EN" "http://www.w3.org/Graphics/SVG/1.1/DTD/svg11.dtd">
<svg version="1.1" id="Calque_1" xmlns="http://www.w3.org/2000/svg" xmlns:xlink="http://www.w3.org/1999/xlink" x="0px" y="0px"
	 width="59.733px" height="44.8px" viewBox="0 0 59.733 44.8" enable-background="new 0 0 59.733 44.8" xml:space="preserve">
<path d="M59.733,29.867v6.4c0,0.289-0.106,0.539-0.317,0.75c-0.211,0.211-0.461,0.317-0.75,0.317H12.8v6.4
	c0,0.289-0.106,0.539-0.317,0.75c-0.211,0.211-0.461,0.317-0.75,0.317c-0.267,0-0.533-0.111-0.8-0.333L0.3,33.8
	C0.1,33.6,0,33.356,0,33.067C0,32.756,0.1,32.5,0.3,32.3l10.667-10.667c0.2-0.2,0.456-0.3,0.767-0.3c0.289,0,0.539,0.106,0.75,0.317
	c0.211,0.211,0.317,0.461,0.317,0.75v6.4h45.867c0.289,0,0.539,0.106,0.75,0.317C59.628,29.328,59.733,29.578,59.733,29.867z
	 M59.733,11.733c0,0.311-0.1,0.567-0.3,0.767L48.767,23.167c-0.2,0.2-0.456,0.3-0.767,0.3c-0.289,0-0.539-0.106-0.75-0.317
	c-0.211-0.211-0.317-0.461-0.317-0.75V16H1.067c-0.289,0-0.539-0.106-0.75-0.317C0.106,15.472,0,15.222,0,14.933v-6.4
	c0-0.289,0.106-0.539,0.317-0.75c0.211-0.211,0.461-0.317,0.75-0.317h45.867v-6.4c0-0.311,0.1-0.567,0.3-0.767S47.689,0,48,0
	c0.267,0,0.533,0.111,0.8,0.333l10.633,10.633C59.633,11.167,59.733,11.422,59.733,11.733z"/>
</svg>
