<?xml version="1.0" encoding="utf-8"?>
<!-- Generator: Adobe Illustrator 17.1.0, SVG Export Plug-In . SVG Version: 6.00 Build 0)  -->
<!DOCTYPE svg PUBLIC "-//W3C//DTD SVG 1.1//EN" "http://www.w3.org/Graphics/SVG/1.1/DTD/svg11.dtd">
<svg version="1.1" id="Calque_1" xmlns="http://www.w3.org/2000/svg" xmlns:xlink="http://www.w3.org/1999/xlink" x="0px" y="0px"
	 viewBox="-11 0 89.2 51.2" enable-background="new -11 0 89.2 51.2" xml:space="preserve">
<g>
	<g>
		<path d="M23.8,21.8c-1.7,1.7-2.5,3.7-2.5,6c0,2.4,0.8,4.4,2.5,6c1.7,1.7,3.7,2.5,6,2.5s4.4-0.8,6-2.5c1.7-1.7,2.5-3.7,2.5-6
			s-0.8-4.4-2.5-6c-1.7-1.7-3.7-2.5-6-2.5S25.5,20.1,23.8,21.8z M30.9,23.5c0,0.3-0.1,0.6-0.3,0.8c-0.2,0.2-0.5,0.3-0.8,0.3
			c-0.9,0-1.6,0.3-2.3,0.9c-0.6,0.6-0.9,1.4-0.9,2.3c0,0.3-0.1,0.6-0.3,0.8c-0.2,0.2-0.5,0.3-0.8,0.3s-0.6-0.1-0.8-0.3
			c-0.2-0.2-0.3-0.5-0.3-0.8c0-1.5,0.5-2.7,1.6-3.8c1-1,2.3-1.6,3.8-1.6c0.3,0,0.6,0.1,0.8,0.3S30.9,23.2,30.9,23.5z"/>
		<path d="M56.4,26c-0.8,0-1.5-0.3-2-0.9s-0.8-1.3-0.8-2.1c0.2-5,2.1-8.7,5.6-10.9c0.2-0.1,0.4-0.2,0.6-0.3V4.3c0-1.2-0.4-2.2-1.2-3
			S56.6,0,55.5,0H4.3c-1.2,0-2.2,0.4-3,1.2S0,3.1,0,4.3v42.7c0,1.2,0.4,2.2,1.2,3c0.8,0.8,1.8,1.2,3,1.2h51.2c1.2,0,2.2-0.4,3-1.2
			c0.8-0.8,1.2-1.8,1.2-3V26H56.4z M8.5,2.1h12.8v4.3H8.5V2.1z M4.3,8.5h21.5l2.1-4.3h27.6v4.6v3.9H4.3V8.5z M42.7,27.8
			c0,3.5-1.2,6.5-3.8,9s-5.5,3.8-9,3.8s-6.5-1.2-9-3.8s-3.8-5.5-3.8-9c0-3.5,1.2-6.5,3.8-9s5.5-3.8,9-3.8s6.5,1.2,9,3.8
			S42.7,24.3,42.7,27.8z M55.5,46.9H4.3v-4.3h51.2V46.9z"/>
	</g>
</g>
<g>
	<g>
		<path d="M60.7,14.6c1.7-1.1,3.8-1.6,6.2-1.6c3.2,0,5.9,0.8,8.1,2.3c2.1,1.5,3.2,3.8,3.2,6.9c0,1.9-0.5,3.4-1.4,4.7
			c-0.5,0.8-1.6,1.8-3.1,3L72.2,31c-0.8,0.6-1.4,1.4-1.7,2.3c-0.2,0.5-0.3,1.4-0.3,2.5h-5.8c0.1-2.4,0.3-4.1,0.7-5s1.3-2,2.9-3.2
			l1.6-1.2c0.5-0.4,0.9-0.8,1.2-1.3c0.6-0.8,0.9-1.7,0.9-2.6c0-1.1-0.3-2.1-1-3c-0.6-0.9-1.8-1.3-3.5-1.3c-1.7,0-2.8,0.6-3.5,1.7
			c-0.7,1.1-1,2.2-1,3.4h-6.2C56.6,19.2,58,16.3,60.7,14.6z M64.3,38.7h6.4v6.2h-6.4V38.7z"/>
	</g>
</g>
</svg>
