<?xml version="1.0" encoding="utf-8"?>
<!-- Generator: Adobe Illustrator 17.0.0, SVG Export Plug-In . SVG Version: 6.00 Build 0)  -->
<!DOCTYPE svg PUBLIC "-//W3C//DTD SVG 1.1//EN" "http://www.w3.org/Graphics/SVG/1.1/DTD/svg11.dtd">
<svg version="1.1" id="Calque_1" xmlns="http://www.w3.org/2000/svg" xmlns:xlink="http://www.w3.org/1999/xlink" x="0px" y="0px"
	 width="59.733px" height="51.2px" viewBox="0 0 59.733 51.2" enable-background="new 0 0 59.733 51.2" xml:space="preserve">
<path d="M46.933,30.933V41.6c0,2.644-0.939,4.906-2.817,6.783c-1.878,1.878-4.139,2.817-6.783,2.817H9.6
	c-2.644,0-4.906-0.939-6.783-2.817S0,44.244,0,41.6V13.867c0-2.644,0.939-4.906,2.817-6.783S6.956,4.267,9.6,4.267h23.467
	c0.311,0,0.567,0.1,0.767,0.3c0.2,0.2,0.3,0.456,0.3,0.767v2.133c0,0.311-0.1,0.567-0.3,0.767s-0.456,0.3-0.767,0.3H9.6
	c-1.467,0-2.722,0.522-3.767,1.567s-1.567,2.3-1.567,3.767V41.6c0,1.467,0.522,2.722,1.567,3.767s2.3,1.567,3.767,1.567h27.733
	c1.467,0,2.722-0.522,3.767-1.567s1.567-2.3,1.567-3.767V30.933c0-0.311,0.1-0.567,0.3-0.767c0.2-0.2,0.456-0.3,0.767-0.3h2.133
	c0.311,0,0.567,0.1,0.767,0.3C46.833,30.367,46.933,30.622,46.933,30.933z M59.733,2.133V19.2c0,0.578-0.211,1.078-0.633,1.5
	c-0.422,0.422-0.922,0.633-1.5,0.633c-0.578,0-1.078-0.211-1.5-0.633l-5.867-5.867L28.5,36.567
	c-0.222,0.222-0.478,0.333-0.767,0.333s-0.544-0.111-0.767-0.333l-3.8-3.8c-0.222-0.222-0.333-0.478-0.333-0.767
	c0-0.289,0.111-0.544,0.333-0.767L44.9,9.5l-5.867-5.867c-0.422-0.422-0.633-0.922-0.633-1.5s0.211-1.078,0.633-1.5
	S39.956,0,40.533,0H57.6c0.578,0,1.078,0.211,1.5,0.633C59.522,1.056,59.733,1.556,59.733,2.133z"/>
</svg>
