<?xml version="1.0" encoding="utf-8"?>
<!-- Generator: Adobe Illustrator 17.0.0, SVG Export Plug-In . SVG Version: 6.00 Build 0)  -->
<!DOCTYPE svg PUBLIC "-//W3C//DTD SVG 1.1//EN" "http://www.w3.org/Graphics/SVG/1.1/DTD/svg11.dtd">
<svg version="1.1" id="Calque_1" xmlns="http://www.w3.org/2000/svg" xmlns:xlink="http://www.w3.org/1999/xlink" x="0px" y="0px"
	 width="54.933px" height="54.4px" viewBox="0 0 54.933 54.4" enable-background="new 0 0 54.933 54.4" xml:space="preserve">
<path d="M48.533,40c0-0.889-0.311-1.644-0.933-2.267L40.667,30.8c-0.622-0.622-1.378-0.933-2.267-0.933
	c-0.933,0-1.733,0.356-2.4,1.067c0.067,0.067,0.278,0.272,0.633,0.617c0.356,0.344,0.594,0.583,0.717,0.717
	c0.122,0.133,0.289,0.344,0.5,0.633c0.211,0.289,0.356,0.572,0.433,0.85c0.078,0.278,0.117,0.583,0.117,0.917
	c0,0.889-0.311,1.644-0.933,2.267c-0.622,0.622-1.378,0.933-2.267,0.933c-0.333,0-0.639-0.039-0.917-0.117s-0.561-0.222-0.85-0.433
	c-0.289-0.211-0.5-0.378-0.633-0.5c-0.133-0.122-0.372-0.361-0.717-0.717c-0.344-0.356-0.55-0.567-0.617-0.633
	c-0.733,0.689-1.1,1.5-1.1,2.433c0,0.889,0.311,1.644,0.933,2.267l6.867,6.9c0.6,0.6,1.356,0.9,2.267,0.9
	c0.889,0,1.644-0.289,2.267-0.867l4.9-4.867C48.222,41.611,48.533,40.867,48.533,40z M25.1,16.5c0-0.889-0.311-1.644-0.933-2.267
	l-6.867-6.9C16.678,6.711,15.922,6.4,15.033,6.4c-0.867,0-1.622,0.3-2.267,0.9l-4.9,4.867c-0.622,0.622-0.933,1.367-0.933,2.233
	c0,0.889,0.311,1.644,0.933,2.267L14.8,23.6c0.6,0.6,1.356,0.9,2.267,0.9c0.933,0,1.733-0.344,2.4-1.033
	c-0.067-0.067-0.278-0.272-0.633-0.617c-0.356-0.344-0.594-0.583-0.717-0.717s-0.289-0.344-0.5-0.633
	c-0.211-0.289-0.356-0.572-0.433-0.85c-0.078-0.278-0.117-0.583-0.117-0.917c0-0.889,0.311-1.644,0.933-2.267
	s1.378-0.933,2.267-0.933c0.333,0,0.639,0.039,0.917,0.117c0.278,0.078,0.561,0.222,0.85,0.433c0.289,0.211,0.5,0.378,0.633,0.5
	s0.372,0.361,0.717,0.717c0.344,0.356,0.55,0.567,0.617,0.633C24.733,18.244,25.1,17.433,25.1,16.5z M54.933,40
	c0,2.667-0.944,4.922-2.833,6.767l-4.9,4.867c-1.844,1.844-4.1,2.767-6.767,2.767c-2.689,0-4.956-0.944-6.8-2.833l-6.867-6.9
	C24.922,42.822,24,40.567,24,37.9c0-2.733,0.978-5.056,2.933-6.967L24,28c-1.911,1.956-4.222,2.933-6.933,2.933
	c-2.667,0-4.933-0.933-6.8-2.8L3.333,21.2c-1.867-1.867-2.8-4.133-2.8-6.8s0.944-4.922,2.833-6.767l4.9-4.867
	C10.111,0.922,12.367,0,15.033,0c2.689,0,4.956,0.944,6.8,2.833l6.867,6.9c1.844,1.844,2.767,4.1,2.767,6.767
	c0,2.733-0.978,5.056-2.933,6.967l2.933,2.933c1.911-1.956,4.222-2.933,6.933-2.933c2.667,0,4.933,0.933,6.8,2.8l6.933,6.933
	C54,35.067,54.933,37.333,54.933,40z"/>
</svg>
