<?xml version="1.0" encoding="utf-8"?>
<!-- Generator: Adobe Illustrator 17.0.0, SVG Export Plug-In . SVG Version: 6.00 Build 0)  -->
<!DOCTYPE svg PUBLIC "-//W3C//DTD SVG 1.1//EN" "http://www.w3.org/Graphics/SVG/1.1/DTD/svg11.dtd">
<svg version="1.1" id="Calque_1" xmlns="http://www.w3.org/2000/svg" xmlns:xlink="http://www.w3.org/1999/xlink" x="0px" y="0px"
	 width="52.533px" height="51.2px" viewBox="0 0 52.533 51.2" enable-background="new 0 0 52.533 51.2" xml:space="preserve">
<path d="M51.7,30.933c0,0.111-0.011,0.189-0.033,0.233c-1.422,5.956-4.4,10.783-8.933,14.483S32.889,51.2,26.8,51.2
	c-3.244,0-6.383-0.611-9.417-1.833s-5.739-2.967-8.117-5.233l-4.3,4.3c-0.422,0.422-0.922,0.633-1.5,0.633s-1.078-0.211-1.5-0.633
	s-0.633-0.922-0.633-1.5V32c0-0.578,0.211-1.078,0.633-1.5s0.922-0.633,1.5-0.633H18.4c0.578,0,1.078,0.211,1.5,0.633
	c0.422,0.422,0.633,0.922,0.633,1.5c0,0.578-0.211,1.078-0.633,1.5l-4.567,4.567c1.578,1.467,3.367,2.6,5.367,3.4
	c2,0.8,4.078,1.2,6.233,1.2c2.978,0,5.756-0.722,8.333-2.167c2.578-1.444,4.644-3.433,6.2-5.967c0.244-0.378,0.833-1.678,1.767-3.9
	c0.178-0.511,0.511-0.767,1-0.767h6.4c0.289,0,0.539,0.106,0.75,0.317C51.594,30.394,51.7,30.644,51.7,30.933z M52.533,4.267V19.2
	c0,0.578-0.211,1.078-0.633,1.5c-0.422,0.422-0.922,0.633-1.5,0.633H35.467c-0.578,0-1.078-0.211-1.5-0.633
	c-0.422-0.422-0.633-0.922-0.633-1.5s0.211-1.078,0.633-1.5l4.6-4.6c-3.289-3.044-7.167-4.567-11.633-4.567
	c-2.978,0-5.756,0.722-8.333,2.167s-4.644,3.433-6.2,5.967c-0.244,0.378-0.833,1.678-1.767,3.9c-0.178,0.511-0.511,0.767-1,0.767H3
	c-0.289,0-0.539-0.106-0.75-0.317c-0.211-0.211-0.317-0.461-0.317-0.75v-0.233c1.444-5.956,4.444-10.783,9-14.483S20.822,0,26.933,0
	c3.244,0,6.4,0.617,9.467,1.85c3.067,1.233,5.789,2.972,8.167,5.217l4.333-4.3c0.422-0.422,0.922-0.633,1.5-0.633
	c0.578,0,1.078,0.211,1.5,0.633C52.322,3.189,52.533,3.689,52.533,4.267z"/>
</svg>
