<?xml version="1.0" encoding="utf-8"?>
<!-- Generator: Adobe Illustrator 17.0.0, SVG Export Plug-In . SVG Version: 6.00 Build 0)  -->
<!DOCTYPE svg PUBLIC "-//W3C//DTD SVG 1.1//EN" "http://www.w3.org/Graphics/SVG/1.1/DTD/svg11.dtd">
<svg version="1.1" id="Calque_1" xmlns="http://www.w3.org/2000/svg" xmlns:xlink="http://www.w3.org/1999/xlink" x="0px" y="0px"
	 width="58.5px" height="56.5px" viewBox="0 0 58.5 56.5" enable-background="new 0 0 58.5 56.5" xml:space="preserve">
<path d="M56.467,21.5c0,0.489-0.289,1.022-0.867,1.6L43.5,34.9l2.867,16.667c0.022,0.156,0.033,0.378,0.033,0.667
	c0,0.467-0.117,0.861-0.35,1.183c-0.233,0.322-0.572,0.483-1.017,0.483c-0.422,0-0.867-0.133-1.333-0.4l-14.967-7.867L13.767,53.5
	c-0.489,0.267-0.933,0.4-1.333,0.4c-0.467,0-0.817-0.161-1.05-0.483c-0.233-0.322-0.35-0.717-0.35-1.183
	c0-0.133,0.022-0.356,0.067-0.667L13.967,34.9L1.833,23.1C1.278,22.5,1,21.967,1,21.5c0-0.822,0.622-1.333,1.867-1.533L19.6,17.533
	l7.5-15.167C27.522,1.456,28.067,1,28.733,1s1.211,0.456,1.633,1.367l7.5,15.167L54.6,19.967
	C55.844,20.167,56.467,20.678,56.467,21.5z"/>
</svg>
