<?xml version="1.0" encoding="utf-8"?>
<!-- Generator: Adobe Illustrator 18.0.0, SVG Export Plug-In . SVG Version: 6.00 Build 0)  -->
<!DOCTYPE svg PUBLIC "-//W3C//DTD SVG 1.1//EN" "http://www.w3.org/Graphics/SVG/1.1/DTD/svg11.dtd">
<svg version="1.1" id="Calque_1" xmlns="http://www.w3.org/2000/svg" xmlns:xlink="http://www.w3.org/1999/xlink" x="0px" y="0px"
	 viewBox="-13 -13 68 68" enable-background="new -13 -13 68 68" xml:space="preserve">
<path d="M39.6,31.9c0,0.9-0.3,1.6-0.9,2.3l-4.5,4.5c-0.6,0.6-1.4,0.9-2.3,0.9c-0.9,0-1.6-0.3-2.3-0.9l-9.8-9.8L10,38.7
	c-0.6,0.6-1.4,0.9-2.3,0.9s-1.6-0.3-2.3-0.9l-4.5-4.5C0.3,33.5,0,32.8,0,31.9s0.3-1.6,0.9-2.3l9.8-9.8L0.9,10C0.3,9.4,0,8.6,0,7.7
	s0.3-1.6,0.9-2.3l4.5-4.5C6.1,0.3,6.8,0,7.7,0S9.4,0.3,10,0.9l9.8,9.8l9.8-9.8C30.2,0.3,31,0,31.9,0s1.6,0.3,2.3,0.9l4.5,4.5
	c0.6,0.6,0.9,1.4,0.9,2.3s-0.3,1.6-0.9,2.3l-9.8,9.8l9.8,9.8C39.3,30.2,39.6,31,39.6,31.9z"/>
</svg>
