<?xml version="1.0" encoding="utf-8"?>
<!-- Generator: Adobe Illustrator 17.0.0, SVG Export Plug-In . SVG Version: 6.00 Build 0)  -->
<!DOCTYPE svg PUBLIC "-//W3C//DTD SVG 1.1//EN" "http://www.w3.org/Graphics/SVG/1.1/DTD/svg11.dtd">
<svg version="1.1" id="Calque_1" xmlns="http://www.w3.org/2000/svg" xmlns:xlink="http://www.w3.org/1999/xlink" x="0px" y="0px"
	 width="51.2px" height="51.2px" viewBox="0 0 51.2 51.2" enable-background="new 0 0 51.2 51.2" xml:space="preserve">
<path d="M51.2,25.6c0,4.644-1.144,8.928-3.433,12.85s-5.394,7.028-9.317,9.317C34.528,50.056,30.244,51.2,25.6,51.2
	c-2.467,0-4.889-0.356-7.267-1.067c1.311-2.067,2.178-3.889,2.6-5.467c0.2-0.756,0.8-3.1,1.8-7.033
	c0.444,0.867,1.256,1.617,2.433,2.25c1.178,0.633,2.444,0.95,3.8,0.95c2.689,0,5.089-0.761,7.2-2.283
	c2.111-1.522,3.744-3.617,4.9-6.283c1.156-2.667,1.733-5.667,1.733-9c0-2.533-0.661-4.911-1.983-7.133
	c-1.322-2.222-3.239-4.033-5.75-5.433s-5.344-2.1-8.5-2.1c-2.333,0-4.511,0.322-6.533,0.967c-2.022,0.644-3.739,1.5-5.15,2.567
	s-2.622,2.294-3.633,3.683s-1.756,2.828-2.233,4.317C8.539,21.622,8.3,23.111,8.3,24.6c0,2.311,0.444,4.344,1.333,6.1
	c0.889,1.756,2.189,2.989,3.9,3.7c0.667,0.267,1.089,0.044,1.267-0.667c0.044-0.156,0.133-0.5,0.267-1.033s0.222-0.867,0.267-1
	c0.133-0.511,0.011-0.989-0.367-1.433c-1.133-1.356-1.7-3.033-1.7-5.033c0-3.356,1.161-6.239,3.483-8.65s5.361-3.617,9.117-3.617
	c3.356,0,5.972,0.911,7.85,2.733c1.878,1.822,2.817,4.189,2.817,7.1c0,3.778-0.761,6.989-2.283,9.633
	c-1.522,2.644-3.472,3.967-5.85,3.967c-1.356,0-2.444-0.483-3.267-1.45c-0.822-0.967-1.078-2.128-0.767-3.483
	c0.178-0.778,0.472-1.817,0.883-3.117c0.411-1.3,0.744-2.444,1-3.433s0.383-1.828,0.383-2.517c0-1.111-0.3-2.033-0.9-2.767
	s-1.456-1.1-2.567-1.1c-1.378,0-2.544,0.633-3.5,1.9c-0.956,1.267-1.433,2.844-1.433,4.733c0,1.622,0.278,2.978,0.833,4.067
	l-3.3,13.933c-0.378,1.556-0.522,3.522-0.433,5.9c-4.578-2.022-8.278-5.144-11.1-9.367S0,30.778,0,25.6
	c0-4.644,1.144-8.928,3.433-12.85s5.394-7.028,9.317-9.317S20.956,0,25.6,0s8.928,1.144,12.85,3.433s7.028,5.394,9.317,9.317
	S51.2,20.956,51.2,25.6z"/>
</svg>
