<?xml version="1.0" encoding="utf-8"?>
<!-- Generator: Adobe Illustrator 18.0.0, SVG Export Plug-In . SVG Version: 6.00 Build 0)  -->
<!DOCTYPE svg PUBLIC "-//W3C//DTD SVG 1.1//EN" "http://www.w3.org/Graphics/SVG/1.1/DTD/svg11.dtd">
<svg version="1.1" id="Calque_1" xmlns="http://www.w3.org/2000/svg" xmlns:xlink="http://www.w3.org/1999/xlink" x="0px" y="0px"
	 viewBox="-15 -19 99 91" enable-background="new -15 -19 99 91" xml:space="preserve">
<path d="M55.7,7.7c0,0.9-0.3,1.6-0.9,2.3L30.6,34.1l-4.5,4.5c-0.6,0.6-1.4,0.9-2.3,0.9s-1.6-0.3-2.3-0.9L17,34.1L5,22.1
	C4.3,21.4,4,20.7,4,19.8s0.3-1.6,0.9-2.3L9.5,13c0.6-0.6,1.4-0.9,2.3-0.9s1.6,0.3,2.3,0.9l9.8,9.8L45.7,0.9C46.3,0.3,47.1,0,48,0
	s1.6,0.3,2.3,0.9l4.5,4.5C55.4,6.1,55.7,6.8,55.7,7.7z"/>
</svg>
