<?xml version="1.0" encoding="utf-8"?>
<!-- Generator: Adobe Illustrator 17.0.0, SVG Export Plug-In . SVG Version: 6.00 Build 0)  -->
<!DOCTYPE svg PUBLIC "-//W3C//DTD SVG 1.1//EN" "http://www.w3.org/Graphics/SVG/1.1/DTD/svg11.dtd">
<svg version="1.1" id="Calque_1" xmlns="http://www.w3.org/2000/svg" xmlns:xlink="http://www.w3.org/1999/xlink" x="0px" y="0px"
	 width="51.2px" height="53.333px" viewBox="0 0 51.2 53.333" enable-background="new 0 0 51.2 53.333" xml:space="preserve">
<path d="M16.533,42.667c0,1.333-0.472,2.467-1.417,3.4c-0.944,0.933-2.072,1.4-3.383,1.4c-1.333,0-2.467-0.467-3.4-1.4
	s-1.4-2.067-1.4-3.4c0-1.333,0.467-2.467,1.4-3.4c0.933-0.933,2.067-1.4,3.4-1.4c1.311,0,2.439,0.467,3.383,1.4
	C16.061,40.2,16.533,41.333,16.533,42.667z M30.933,49.067c0,1.178-0.417,2.183-1.25,3.017c-0.833,0.833-1.839,1.25-3.017,1.25
	c-1.178,0-2.183-0.417-3.017-1.25c-0.833-0.833-1.25-1.839-1.25-3.017c0-1.178,0.417-2.183,1.25-3.017
	c0.833-0.833,1.839-1.25,3.017-1.25c1.178,0,2.183,0.417,3.017,1.25C30.517,46.883,30.933,47.889,30.933,49.067z M10.667,27.733
	c0,1.467-0.522,2.722-1.567,3.767c-1.044,1.044-2.3,1.567-3.767,1.567S2.611,32.544,1.567,31.5C0.522,30.456,0,29.2,0,27.733
	c0-1.467,0.522-2.722,1.567-3.767c1.044-1.044,2.3-1.567,3.767-1.567s2.722,0.522,3.767,1.567
	C10.144,25.011,10.667,26.267,10.667,27.733z M45.333,42.667c0,1.022-0.367,1.9-1.1,2.633s-1.611,1.1-2.633,1.1
	s-1.9-0.367-2.633-1.1s-1.1-1.611-1.1-2.633c0-1.022,0.367-1.9,1.1-2.633s1.611-1.1,2.633-1.1s1.9,0.367,2.633,1.1
	S45.333,41.644,45.333,42.667z M17.6,12.8c0,1.622-0.572,3.006-1.717,4.15s-2.528,1.717-4.15,1.717s-3.006-0.572-4.15-1.717
	s-1.717-2.528-1.717-4.15s0.572-3.006,1.717-4.15s2.528-1.717,4.15-1.717s3.006,0.572,4.15,1.717S17.6,11.178,17.6,12.8z
	 M33.067,6.4c0,1.778-0.622,3.289-1.867,4.533S28.444,12.8,26.667,12.8c-1.778,0-3.289-0.622-4.533-1.867S20.267,8.178,20.267,6.4
	s0.622-3.289,1.867-4.533S24.889,0,26.667,0c1.778,0,3.289,0.622,4.533,1.867S33.067,4.622,33.067,6.4z M51.2,27.733
	c0,0.889-0.311,1.644-0.933,2.267c-0.622,0.622-1.378,0.933-2.267,0.933c-0.889,0-1.644-0.311-2.267-0.933
	c-0.622-0.622-0.933-1.378-0.933-2.267c0-0.889,0.311-1.644,0.933-2.267c0.622-0.622,1.378-0.933,2.267-0.933
	c0.889,0,1.644,0.311,2.267,0.933C50.889,26.089,51.2,26.844,51.2,27.733z M44.267,12.8c0,0.733-0.261,1.361-0.783,1.883
	c-0.522,0.522-1.15,0.783-1.883,0.783s-1.361-0.261-1.883-0.783c-0.522-0.522-0.783-1.15-0.783-1.883
	c0-0.733,0.261-1.361,0.783-1.883s1.15-0.783,1.883-0.783s1.361,0.261,1.883,0.783S44.267,12.067,44.267,12.8z"/>
</svg>
