<?xml version="1.0" encoding="utf-8"?>
<!-- Generator: Adobe Illustrator 17.0.0, SVG Export Plug-In . SVG Version: 6.00 Build 0)  -->
<!DOCTYPE svg PUBLIC "-//W3C//DTD SVG 1.1//EN" "http://www.w3.org/Graphics/SVG/1.1/DTD/svg11.dtd">
<svg version="1.1" id="Calque_1" xmlns="http://www.w3.org/2000/svg" xmlns:xlink="http://www.w3.org/1999/xlink" x="0px" y="0px"
	 width="50.5px" height="50.5px" viewBox="0 0 50.5 50.5" enable-background="new 0 0 50.5 50.5" xml:space="preserve">
<path d="M12.1,46.233l3.033-3.033L7.3,35.367L4.267,38.4v3.567h4.267v4.267H12.1z M29.533,15.3c0-0.489-0.244-0.733-0.733-0.733
	c-0.222,0-0.411,0.078-0.567,0.233L10.167,32.867c-0.156,0.156-0.233,0.344-0.233,0.567c0,0.489,0.244,0.733,0.733,0.733
	c0.222,0,0.411-0.078,0.567-0.233L29.3,15.867C29.456,15.711,29.533,15.522,29.533,15.3z M27.733,8.9L41.6,22.767L13.867,50.5H0
	V36.633L27.733,8.9z M50.5,12.1c0,1.178-0.411,2.178-1.233,3l-5.533,5.533L29.867,6.767l5.533-5.5C36.2,0.422,37.2,0,38.4,0
	c1.178,0,2.189,0.422,3.033,1.267l7.833,7.8C50.089,9.933,50.5,10.944,50.5,12.1z"/>
</svg>
