<?xml version="1.0" encoding="utf-8"?>
<!-- Generator: Adobe Illustrator 17.0.0, SVG Export Plug-In . SVG Version: 6.00 Build 0)  -->
<!DOCTYPE svg PUBLIC "-//W3C//DTD SVG 1.1//EN" "http://www.w3.org/Graphics/SVG/1.1/DTD/svg11.dtd">
<svg version="1.1" id="Calque_1" xmlns="http://www.w3.org/2000/svg" xmlns:xlink="http://www.w3.org/1999/xlink" x="0px" y="0px"
	 width="61.167px" height="50px" viewBox="0 0 61.167 50" enable-background="new 0 0 61.167 50" xml:space="preserve">
<path d="M17.067,38.333v6.4c0,0.889-0.311,1.644-0.933,2.267c-0.622,0.622-1.378,0.933-2.267,0.933H3.2
	c-0.889,0-1.644-0.311-2.267-0.933C0.311,46.378,0,45.622,0,44.733v-6.4c0-0.889,0.311-1.644,0.933-2.267
	c0.622-0.622,1.378-0.933,2.267-0.933h10.667c0.889,0,1.644,0.311,2.267,0.933C16.756,36.689,17.067,37.444,17.067,38.333z
	 M17.067,21.267v6.4c0,0.889-0.311,1.644-0.933,2.267c-0.622,0.622-1.378,0.933-2.267,0.933H3.2c-0.889,0-1.644-0.311-2.267-0.933
	S0,28.556,0,27.667v-6.4C0,20.378,0.311,19.622,0.933,19s1.378-0.933,2.267-0.933h10.667c0.889,0,1.644,0.311,2.267,0.933
	C16.756,19.622,17.067,20.378,17.067,21.267z M38.4,38.333v6.4c0,0.889-0.311,1.644-0.933,2.267
	c-0.622,0.622-1.378,0.933-2.267,0.933H24.533c-0.889,0-1.644-0.311-2.267-0.933c-0.622-0.622-0.933-1.378-0.933-2.267v-6.4
	c0-0.889,0.311-1.644,0.933-2.267c0.622-0.622,1.378-0.933,2.267-0.933H35.2c0.889,0,1.644,0.311,2.267,0.933
	C38.089,36.689,38.4,37.444,38.4,38.333z M17.067,4.2v6.4c0,0.889-0.311,1.644-0.933,2.267c-0.622,0.622-1.378,0.933-2.267,0.933
	H3.2c-0.889,0-1.644-0.311-2.267-0.933C0.311,12.244,0,11.489,0,10.6V4.2c0-0.889,0.311-1.644,0.933-2.267S2.311,1,3.2,1h10.667
	c0.889,0,1.644,0.311,2.267,0.933C16.756,2.556,17.067,3.311,17.067,4.2z M38.4,21.267v6.4c0,0.889-0.311,1.644-0.933,2.267
	c-0.622,0.622-1.378,0.933-2.267,0.933H24.533c-0.889,0-1.644-0.311-2.267-0.933s-0.933-1.378-0.933-2.267v-6.4
	c0-0.889,0.311-1.644,0.933-2.267s1.378-0.933,2.267-0.933H35.2c0.889,0,1.644,0.311,2.267,0.933
	C38.089,19.622,38.4,20.378,38.4,21.267z M59.733,38.333v6.4c0,0.889-0.311,1.644-0.933,2.267c-0.622,0.622-1.378,0.933-2.267,0.933
	H45.867c-0.889,0-1.644-0.311-2.267-0.933c-0.622-0.622-0.933-1.378-0.933-2.267v-6.4c0-0.889,0.311-1.644,0.933-2.267
	c0.622-0.622,1.378-0.933,2.267-0.933h10.667c0.889,0,1.644,0.311,2.267,0.933C59.422,36.689,59.733,37.444,59.733,38.333z
	 M38.4,4.2v6.4c0,0.889-0.311,1.644-0.933,2.267C36.844,13.489,36.089,13.8,35.2,13.8H24.533c-0.889,0-1.644-0.311-2.267-0.933
	c-0.622-0.622-0.933-1.378-0.933-2.267V4.2c0-0.889,0.311-1.644,0.933-2.267S23.644,1,24.533,1H35.2
	c0.889,0,1.644,0.311,2.267,0.933C38.089,2.556,38.4,3.311,38.4,4.2z M59.733,21.267v6.4c0,0.889-0.311,1.644-0.933,2.267
	c-0.622,0.622-1.378,0.933-2.267,0.933H45.867c-0.889,0-1.644-0.311-2.267-0.933c-0.622-0.622-0.933-1.378-0.933-2.267v-6.4
	c0-0.889,0.311-1.644,0.933-2.267c0.622-0.622,1.378-0.933,2.267-0.933h10.667c0.889,0,1.644,0.311,2.267,0.933
	C59.422,19.622,59.733,20.378,59.733,21.267z M59.733,4.2v6.4c0,0.889-0.311,1.644-0.933,2.267
	c-0.622,0.622-1.378,0.933-2.267,0.933H45.867c-0.889,0-1.644-0.311-2.267-0.933c-0.622-0.622-0.933-1.378-0.933-2.267V4.2
	c0-0.889,0.311-1.644,0.933-2.267C44.222,1.311,44.978,1,45.867,1h10.667c0.889,0,1.644,0.311,2.267,0.933
	C59.422,2.556,59.733,3.311,59.733,4.2z"/>
</svg>
