<?xml version="1.0" encoding="utf-8"?>
<!-- Generator: Adobe Illustrator 17.0.0, SVG Export Plug-In . SVG Version: 6.00 Build 0)  -->
<!DOCTYPE svg PUBLIC "-//W3C//DTD SVG 1.1//EN" "http://www.w3.org/Graphics/SVG/1.1/DTD/svg11.dtd">
<svg version="1.1" id="Calque_1" xmlns="http://www.w3.org/2000/svg" xmlns:xlink="http://www.w3.org/1999/xlink" x="0px" y="0px"
	 width="56.5px" height="45.25px" viewBox="0 0 56.5 45.25" enable-background="new 0 0 56.5 45.25" xml:space="preserve">
<path d="M55,6.067c-1.489,2.178-3.289,4.033-5.4,5.567c0.022,0.311,0.033,0.778,0.033,1.4c0,2.889-0.422,5.772-1.267,8.65
	c-0.844,2.878-2.128,5.639-3.85,8.283c-1.722,2.644-3.772,4.983-6.15,7.017c-2.378,2.033-5.244,3.656-8.6,4.867
	c-3.356,1.211-6.944,1.817-10.767,1.817c-6.022,0-11.533-1.611-16.533-4.833c0.778,0.089,1.644,0.133,2.6,0.133
	c5,0,9.456-1.533,13.367-4.6c-2.333-0.044-4.422-0.761-6.267-2.15c-1.844-1.389-3.111-3.161-3.8-5.317
	c0.733,0.111,1.411,0.167,2.033,0.167c0.956,0,1.9-0.122,2.833-0.367c-2.489-0.511-4.55-1.75-6.183-3.717s-2.45-4.25-2.45-6.85V16
	c1.511,0.844,3.133,1.3,4.867,1.367c-1.467-0.978-2.633-2.256-3.5-3.833s-1.3-3.289-1.3-5.133c0-1.956,0.489-3.767,1.467-5.433
	c2.689,3.311,5.961,5.961,9.817,7.95s7.983,3.094,12.383,3.317c-0.178-0.844-0.267-1.667-0.267-2.467c0-2.978,1.05-5.517,3.15-7.617
	S35.856,1,38.833,1c3.111,0,5.733,1.133,7.867,3.4c2.422-0.467,4.7-1.333,6.833-2.6c-0.822,2.556-2.4,4.533-4.733,5.933
	C50.867,7.511,52.933,6.956,55,6.067z"/>
</svg>
