<?xml version="1.0" encoding="utf-8"?>
<!-- Generator: Adobe Illustrator 17.0.0, SVG Export Plug-In . SVG Version: 6.00 Build 0)  -->
<!DOCTYPE svg PUBLIC "-//W3C//DTD SVG 1.1//EN" "http://www.w3.org/Graphics/SVG/1.1/DTD/svg11.dtd">
<svg version="1.1" id="Calque_1" xmlns="http://www.w3.org/2000/svg" xmlns:xlink="http://www.w3.org/1999/xlink" x="0px" y="0px"
	 width="50px" height="55px" viewBox="1 1 50 55" enable-background="new 1 1 50 55" xml:space="preserve">
<path d="M48.933,44.567c0,2.667-0.811,4.772-2.433,6.317c-1.622,1.544-3.778,2.317-6.467,2.317H10.9
	c-2.689,0-4.844-0.772-6.467-2.317S2,47.233,2,44.567c0-1.178,0.039-2.328,0.117-3.45c0.078-1.122,0.233-2.333,0.467-3.633
	c0.233-1.3,0.528-2.506,0.883-3.617S4.3,31.672,4.9,30.617c0.6-1.056,1.289-1.956,2.067-2.7s1.728-1.339,2.85-1.783
	c1.122-0.444,2.361-0.667,3.717-0.667c0.2,0,0.667,0.239,1.4,0.717c0.733,0.478,1.561,1.011,2.483,1.6s2.122,1.122,3.6,1.6
	s2.961,0.717,4.45,0.717s2.972-0.239,4.45-0.717c1.478-0.478,2.678-1.011,3.6-1.6c0.922-0.589,1.75-1.122,2.483-1.6
	s1.2-0.717,1.4-0.717c1.356,0,2.594,0.222,3.717,0.667c1.122,0.444,2.072,1.039,2.85,1.783c0.778,0.744,1.467,1.644,2.067,2.7
	c0.6,1.056,1.078,2.139,1.433,3.25c0.356,1.111,0.65,2.317,0.883,3.617c0.233,1.3,0.389,2.511,0.467,3.633
	S48.933,43.389,48.933,44.567z M38.267,14.8c0,3.533-1.25,6.55-3.75,9.05S29,27.6,25.467,27.6s-6.55-1.25-9.05-3.75
	s-3.75-5.517-3.75-9.05s1.25-6.55,3.75-9.05S21.933,2,25.467,2s6.55,1.25,9.05,3.75S38.267,11.267,38.267,14.8z"/>
</svg>
