<?xml version="1.0" standalone="no"?>
<!DOCTYPE svg PUBLIC "-//W3C//DTD SVG 1.1//EN" "http://www.w3.org/Graphics/SVG/1.1/DTD/svg11.dtd" >
<svg xmlns="http://www.w3.org/2000/svg">
<metadata>
This is a custom SVG font generated by IcoMoon.
<iconset grid="16"></iconset>
</metadata>
<defs>
<font id="icomoon" horiz-adv-x="512" >
<font-face units-per-em="512" ascent="480" descent="-32" />
<missing-glyph horiz-adv-x="512" />
<glyph class="hidden" unicode="&#xf000;" d="M0,480L 512 -32L0 -32 z" horiz-adv-x="0" />
<glyph unicode="&#xe000;" d="M0,224A256,256 180 1 1 512,224A256,256 180 1 1 0,224z"  />
<glyph unicode="&#xe001;" d="M 155.826,337.269c-11.13-11.13-16.368-24.225-16.368-39.284c0-15.714, 5.238-28.808, 16.368-39.284c 11.13-11.13, 24.225-16.368, 39.284-16.368s 28.808,5.238, 39.284,16.368c 11.13,11.13, 16.368,24.225, 16.368,39.284
			s-5.238,28.808-16.368,39.284c-11.13,11.13-24.225,16.368-39.284,16.368S 166.957,348.399, 155.826,337.269z M 202.312,326.138c0-1.964-0.655-3.928-1.964-5.238c-1.309-1.309-3.274-1.964-5.238-1.964
			c-5.893,0-10.476-1.964-15.059-5.893c-3.928-3.928-5.893-9.166-5.893-15.059c0-1.964-0.655-3.928-1.964-5.238c-1.309-1.309-3.274-1.964-5.238-1.964s-3.928,0.655-5.238,1.964
			c-1.309,1.309-1.964,3.274-1.964,5.238c0,9.821, 3.274,17.678, 10.476,24.88c 6.547,6.547, 15.059,10.476, 24.88,10.476c 1.964,0, 3.928-0.655, 5.238-1.964S 202.312,328.102, 202.312,326.138zM 369.269,309.77c-5.238,0-9.821,1.964-13.095,5.893s-5.238,8.512-5.238,13.749c 1.309,32.737, 13.749,56.962, 36.665,71.366c 1.309,0.655, 2.619,1.309, 3.928,1.964L 391.529,451.847 c0,7.857-2.619,14.404-7.857,19.642
			S 370.578,480, 363.376,480L 28.153,480 c-7.857,0-14.404-2.619-19.642-7.857S0,459.703,0,451.847l0-279.57 c0-7.857, 2.619-14.404, 7.857-19.642c 5.238-5.238, 11.785-7.857, 19.642-7.857l 335.223,0 c 7.857,0, 14.404,2.619, 19.642,7.857
			c 5.238,5.238, 7.857,11.785, 7.857,19.642L 390.22,309.77 L 369.269,309.77 z M 55.652,466.251l 83.806,0 l0-28.153 L 55.652,438.097 L 55.652,466.251 z M 28.153,424.348l 140.767,0 l 13.749,28.153l 180.706,0 l0-30.118 l0-25.535 L 28.153,396.849 L 28.153,424.348 z M 279.57,297.985
			c0-22.916-7.857-42.558-24.88-58.926s-36.010-24.88-58.926-24.88s-42.558,7.857-58.926,24.88s-24.88,36.010-24.88,58.926c0,22.916, 7.857,42.558, 24.88,58.926s 36.010,24.88, 58.926,24.88s 42.558-7.857, 58.926-24.88
			S 279.57,320.9, 279.57,297.985z M 363.376,172.931L 28.153,172.931 l0,28.153 l 335.223,0 L 363.376,172.931 zM 397.422,384.409c 11.13,7.202, 24.88,10.476, 40.593,10.476c 20.951,0, 38.629-5.238, 53.033-15.059c 13.749-9.821, 20.951-24.88, 20.951-45.176c0-12.44-3.274-22.261-9.166-30.772
			c-3.274-5.238-10.476-11.785-20.297-19.642L 472.716,277.033c-5.238-3.928-9.166-9.166-11.13-15.059c-1.309-3.274-1.964-9.166-1.964-16.368l-37.974,0 c 0.655,15.714, 1.964,26.844, 4.583,32.737s 8.512,13.095, 18.987,20.951
			l 10.476,7.857c 3.274,2.619, 5.893,5.238, 7.857,8.512c 3.928,5.238, 5.893,11.13, 5.893,17.023c0,7.202-1.964,13.749-6.547,19.642c-3.928,5.893-11.785,8.512-22.916,8.512c-11.13,0-18.332-3.928-22.916-11.13
			c-4.583-7.202-6.547-14.404-6.547-22.261l-40.593,0 C 370.578,354.292, 379.744,373.279, 397.422,384.409z M 420.992,226.619l 41.903,0 l0-40.593 l-41.903,0 L 420.992,226.619 z"  />
<glyph unicode="&#xe002;" d="M 630.080,315.808c-3.040,3.328-7.296,5.216-11.776,5.216l-205.312,0 c 0.8,25.824-0.544,94.624-34.912,132
	c-15.456,16.832-35.296,25.344-59.008,25.344c-0.864,0-1.6-0.352-2.432-0.48C 315.808,478.016, 315.072,478.368, 314.208,478.368
	c-23.68,0-43.52-8.544-59.008-25.344C 220.8,415.648, 219.456,346.848, 220.256,321.024L 21.024,321.024 c-4.48,0-8.8-1.92-11.808-5.216
	S 4.736,308, 5.184,303.52c 0.832-8.608, 21.12-211.008, 58.624-269.312c 40.096-62.4, 96.992-65.696, 255.36-65.696c0,0, 0.032,0, 0.032,0
	c 0.352,0, 0.64,0, 0.96,0c0,0, 0.032,0, 0.032,0c 158.336,0, 215.2,3.328, 255.328,65.696c 37.504,58.304, 57.76,260.704, 58.656,269.312
	C 634.624,308, 633.12,312.448, 630.080,315.808z M 278.656,431.456c 9.312,10.144, 20.96,15.040, 35.552,15.040c 0.864,0, 1.6,0.352, 2.432,0.48
	c 0.832-0.128, 1.568-0.48, 2.432-0.48c 14.592,0, 26.208-4.896, 35.52-15.008c 24.576-26.624, 27.584-83.264, 26.528-110.464L 252.128,321.024 
	C 251.040,348.16, 254.016,404.672, 278.656,431.456z M 600.608,289.152c-1.664-14.592-3.872-32.512-6.624-51.84c-2.016,0.928-4.192,1.504-6.56,1.504l-541.664,0 
	c-0.192,0-0.384-0.096-0.576-0.128c-2.656,18.784-4.8,36.224-6.432,50.464L 600.608,289.152 z M 548.704,51.456
	c-29.76-46.304-69.984-51.072-229.024-51.072s-199.296,4.736-229.056,51.072c-16.8,26.112-30.912,93.696-40.704,155.456l 537.504,0 
	c 0.736,0, 1.376,0.32, 2.080,0.416C 579.712,145.504, 565.536,77.664, 548.704,51.456z" horiz-adv-x="640"  />
<glyph unicode="&#xe003;" d="M 246.494,183.399L 343.766,280.672c 1.674,1.681, 2.514,3.607, 2.514,5.785s-0.841,4.111-2.514,5.785l-12.571,12.578
	c-1.681,1.674-3.607,2.514-5.785,2.514s-4.111-0.841-5.785-2.514l-98.816-98.816l-98.816,98.816c-1.674,1.674-3.607,2.514-5.785,2.514
	s-4.104-0.841-5.777-2.514l-12.578-12.578c-1.674-1.674-2.514-3.607-2.514-5.785s 0.841-4.104, 2.514-5.777L 195.118,183.399L 97.845,86.134
	c-1.674-1.681-2.514-3.607-2.514-5.785s 0.841-4.111, 2.514-5.785l 12.571-12.578c 1.681-1.674, 3.607-2.514, 5.785-2.514
	s 4.111,0.841, 5.785,2.514l 98.816,98.816l 98.816-98.816c 1.674-1.674, 3.607-2.514, 5.785-2.514s 4.104,0.841, 5.777,2.514l 12.578,12.578
	c 1.674,1.674, 2.514,3.607, 2.514,5.785s-0.841,4.104-2.514,5.777L 246.494,183.399z" horiz-adv-x="435.582"  />
<glyph unicode="&#xe004;" d="M 446.213,74.431c0-24.827-7.55-44.423-22.649-58.806c-15.099-14.373-35.17-21.569-60.202-21.569L 92.16-5.944 
	c-25.032,0-45.093,7.187-60.202,21.569S 9.309,49.613, 9.309,74.431c0,10.966, 0.363,21.672, 1.089,32.116c 0.726,10.445, 2.169,21.718, 4.347,33.82
	c 2.169,12.102, 4.915,23.329, 8.22,33.671S 30.72,194.472, 36.305,204.293c 5.585,9.83, 11.999,18.209, 19.242,25.135s 16.086,12.465, 26.531,16.598
	c 10.445,4.133, 21.979,6.209, 34.602,6.209c 1.862,0, 6.209-2.225, 13.033-6.675c 6.824-4.45, 14.531-9.411, 23.114-14.895s 19.754-10.445, 33.513-14.895
	s 27.564-6.675, 41.425-6.675s 27.667,2.225, 41.425,6.675c 13.759,4.45, 24.93,9.411, 33.513,14.895c 8.583,5.483, 16.291,10.445, 23.114,14.895
	s 11.171,6.675, 13.033,6.675c 12.623,0, 24.148-2.067, 34.602-6.209c 10.445-4.133, 19.288-9.672, 26.531-16.598c 7.242-6.926, 13.656-15.304, 19.242-25.135
	c 5.585-9.83, 10.035-19.912, 13.34-30.255c 3.314-10.342, 6.051-21.569, 8.22-33.671c 2.169-12.102, 3.621-23.375, 4.347-33.82
	S 446.213,85.397, 446.213,74.431z M 346.922,351.535c0-32.889-11.636-60.975-34.909-84.247S 260.655,232.378, 227.766,232.378s-60.975,11.636-84.247,34.909
	s-34.909,51.358-34.909,84.247s 11.636,60.975, 34.909,84.247S 194.867,470.691, 227.766,470.691s 60.975-11.636, 84.247-34.909S 346.922,384.424, 346.922,351.535z" horiz-adv-x="465.455"  />
<glyph unicode="&#xe005;" d="M 620.237,410.732c-16.794-24.565-37.092-45.477-60.894-62.783c 0.25-3.504, 0.375-8.772, 0.375-15.792c0-32.575-4.756-65.092-14.29-97.542
	c-9.523-32.461-23.996-63.59-43.418-93.412c-19.422-29.821-42.542-56.195-69.359-79.132c-26.817-22.926-59.142-41.233-96.984-54.886
	c-37.842-13.653-78.313-20.491-121.424-20.491c-67.914,0-130.059,18.17-186.448,54.5c 8.772-1.001, 18.534-1.502, 29.321-1.502
	c 56.388,0, 106.633,17.283, 150.744,51.871c-26.305,0.501-49.869,8.579-70.679,24.246c-20.799,15.667-35.078,35.647-42.849,59.961
	c 8.272-1.252, 15.918-1.889, 22.926-1.889c 10.786,0, 21.424,1.377, 31.949,4.142c-28.069,5.757-51.314,19.74-69.723,41.916s-27.625,47.923-27.625,77.244L 51.86,298.718 
	c 17.044-9.523, 35.328-14.655, 54.886-15.417c-16.543,11.025-29.696,25.441-39.47,43.224s-14.655,37.092-14.655,57.89c0,22.062, 5.518,42.485, 16.543,61.269
	c 30.322-37.342, 67.22-67.22, 110.706-89.657s 90.021-34.896, 139.639-37.41c-2.002,9.523-3.015,18.796-3.015,27.819c0,33.587, 11.844,62.214, 35.521,85.902
	S 404.355,467.871, 437.919,467.871c 35.078,0, 64.649-12.777, 88.713-38.343c 27.318,5.268, 52.998,15.030, 77.062,29.321c-9.273-28.82-27.068-51.12-53.373-66.901
	C 573.633,394.439, 596.935,400.708, 620.237,410.732z" horiz-adv-x="637.156"  />
<glyph unicode="&#xe006;" d="M 174.285,87.849l0-65.362 c0-9.083-3.174-16.794-9.523-23.153c-6.349-6.349-14.070-9.523-23.153-9.523L 32.676-10.189 
	c-9.083,0-16.794,3.174-23.153,9.523C 3.174,5.693,0,13.414,0,22.487l0,65.362 c0,9.083, 3.174,16.794, 9.523,23.153
	c 6.349,6.349, 14.070,9.523, 23.153,9.523l 108.933,0 c 9.083,0, 16.794-3.174, 23.153-9.523C 171.11,104.632, 174.285,96.922, 174.285,87.849z
	 M 174.285,262.124l0-65.362 c0-9.083-3.174-16.794-9.523-23.153c-6.349-6.349-14.070-9.523-23.153-9.523L 32.676,164.086 c-9.083,0-16.794,3.174-23.153,9.523
	S0,187.689,0,196.772l0,65.362 C0,271.206, 3.174,278.927, 9.523,285.276s 14.070,9.523, 23.153,9.523l 108.933,0 c 9.083,0, 16.794-3.174, 23.153-9.523
	C 171.11,278.927, 174.285,271.206, 174.285,262.124z M 392.141,87.849l0-65.362 c0-9.083-3.174-16.794-9.523-23.153
	c-6.349-6.349-14.070-9.523-23.153-9.523L 250.532-10.189 c-9.083,0-16.794,3.174-23.153,9.523c-6.349,6.349-9.523,14.070-9.523,23.153l0,65.362 
	c0,9.083, 3.174,16.794, 9.523,23.153c 6.349,6.349, 14.070,9.523, 23.153,9.523L 359.465,120.525 c 9.083,0, 16.794-3.174, 23.153-9.523
	C 388.966,104.632, 392.141,96.922, 392.141,87.849z M 174.285,436.408l0-65.362 c0-9.083-3.174-16.794-9.523-23.153c-6.349-6.349-14.070-9.523-23.153-9.523
	L 32.676,338.381 c-9.083,0-16.794,3.174-23.153,9.523C 3.174,354.263,0,361.974,0,371.057L0,436.408 c0,9.083, 3.174,16.794, 9.523,23.153S 23.603,469.094, 32.676,469.094l 108.933,0 
	c 9.083,0, 16.794-3.174, 23.153-9.523C 171.11,453.202, 174.285,445.491, 174.285,436.408z M 392.141,262.124l0-65.362 c0-9.083-3.174-16.794-9.523-23.153
	c-6.349-6.349-14.070-9.523-23.153-9.523L 250.532,164.086 c-9.083,0-16.794,3.174-23.153,9.523s-9.523,14.070-9.523,23.153l0,65.362 
	c0,9.083, 3.174,16.794, 9.523,23.153s 14.070,9.523, 23.153,9.523L 359.465,294.799 c 9.083,0, 16.794-3.174, 23.153-9.523
	C 388.966,278.927, 392.141,271.206, 392.141,262.124z M 609.997,87.849l0-65.362 c0-9.083-3.174-16.794-9.523-23.153c-6.349-6.349-14.070-9.523-23.153-9.523
	L 468.398-10.189 c-9.083,0-16.794,3.174-23.153,9.523c-6.349,6.349-9.523,14.070-9.523,23.153l0,65.362 c0,9.083, 3.174,16.794, 9.523,23.153
	c 6.349,6.349, 14.070,9.523, 23.153,9.523l 108.933,0 c 9.083,0, 16.794-3.174, 23.153-9.523C 606.822,104.632, 609.997,96.922, 609.997,87.849z
	 M 392.141,436.408l0-65.362 c0-9.083-3.174-16.794-9.523-23.153C 376.248,341.555, 368.538,338.381, 359.465,338.381L 250.532,338.381 c-9.083,0-16.794,3.174-23.153,9.523
	c-6.349,6.349-9.523,14.070-9.523,23.153L 217.856,436.408 c0,9.083, 3.174,16.794, 9.523,23.153S 241.449,469.094, 250.532,469.094L 359.465,469.094 
	c 9.083,0, 16.794-3.174, 23.153-9.523C 388.966,453.202, 392.141,445.491, 392.141,436.408z M 609.997,262.124l0-65.362 c0-9.083-3.174-16.794-9.523-23.153
	c-6.349-6.349-14.070-9.523-23.153-9.523L 468.398,164.086 c-9.083,0-16.794,3.174-23.153,9.523c-6.349,6.349-9.523,14.070-9.523,23.153l0,65.362 
	c0,9.083, 3.174,16.794, 9.523,23.153c 6.349,6.349, 14.070,9.523, 23.153,9.523l 108.933,0 c 9.083,0, 16.794-3.174, 23.153-9.523
	C 606.822,278.927, 609.997,271.206, 609.997,262.124z M 609.997,436.408l0-65.362 c0-9.083-3.174-16.794-9.523-23.153
	c-6.349-6.349-14.070-9.523-23.153-9.523L 468.398,338.381 c-9.083,0-16.794,3.174-23.153,9.523c-6.349,6.349-9.523,14.070-9.523,23.153L 435.722,436.408 
	c0,9.083, 3.174,16.794, 9.523,23.153C 451.594,465.92, 459.315,469.094, 468.398,469.094l 108.933,0 c 9.083,0, 16.794-3.174, 23.153-9.523
	C 606.822,453.202, 609.997,445.491, 609.997,436.408z" horiz-adv-x="624.64"  />
<glyph unicode="&#xe007;" d="M 511.854,285.193c0-4.434-2.624-9.262-7.863-14.501L 394.313,163.721l 25.984-151.086c 0.201-1.417, 0.302-3.429, 0.302-6.043
	c0-4.233-1.061-7.808-3.173-10.725c-2.112-2.917-5.184-4.379-9.216-4.379c-3.822,0-7.863,1.207-12.087,3.63l-135.671,71.314L 124.791-4.882
	c-4.434-2.423-8.457-3.63-12.087-3.63c-4.233,0-7.406,1.463-9.518,4.379c-2.112,2.917-3.173,6.501-3.173,10.725
	c0,1.207, 0.201,3.227, 0.603,6.043L 126.61,163.721L 16.613,270.683C 11.584,276.123, 9.061,280.96, 9.061,285.193c0,7.451, 5.641,12.087, 16.923,13.897L 177.664,321.152
	l 67.986,137.481C 249.481,466.88, 254.418,471.022, 260.453,471.022s 10.981-4.133, 14.802-12.389l 67.986-137.481L 494.93,299.090
	C 506.213,297.271, 511.854,292.645, 511.854,285.193z" horiz-adv-x="530.286"  />
<glyph unicode="&#xe008;" d="M 159.3,70.39c0-12.8-4.531-23.687-13.602-32.642c-9.061-8.955-19.891-13.438-32.478-13.438c-12.8,0-23.687,4.482-32.642,13.438
	s-13.438,19.842-13.438,32.642c0,12.8, 4.482,23.687, 13.438,32.642c 8.955,8.955, 19.842,13.438, 32.642,13.438c 12.587,0, 23.417-4.482, 32.478-13.438
	C 154.769,94.078, 159.3,83.2, 159.3,70.39z M 297.54,8.95c0-11.312-3.999-20.953-11.998-28.962c-7.999-7.999-17.659-11.998-28.962-11.998
	c-11.312,0-20.953,3.999-28.962,11.998c-7.999,7.999-11.998,17.659-11.998,28.962c0,11.312, 3.999,20.953, 11.998,28.962
	c 7.999,7.999, 17.659,11.998, 28.962,11.998c 11.312,0, 20.953-3.999, 28.962-11.998C 293.54,29.923, 297.54,20.263, 297.54,8.95z M 102.98,213.76
	c0-14.085-5.014-26.131-15.041-36.159c-10.018-10.018-22.084-15.041-36.159-15.041S 25.648,167.574, 15.621,177.601C 5.593,187.619, 0.58,199.675, 0.58,213.76
	c0,14.085, 5.014,26.131, 15.041,36.159c 10.018,10.018, 22.084,15.041, 36.159,15.041s 26.131-5.014, 36.159-15.041
	C 97.966,239.891, 102.98,227.835, 102.98,213.76z M 435.78,70.39c0-9.815-3.526-18.239-10.559-25.281s-15.466-10.559-25.281-10.559
	s-18.239,3.526-25.281,10.559s-10.559,15.466-10.559,25.281c0,9.815, 3.526,18.239, 10.559,25.281s 15.466,10.559, 25.281,10.559s 18.239-3.526, 25.281-10.559
	S 435.78,80.215, 435.78,70.39z M 169.54,357.12c0-15.573-5.487-28.856-16.481-39.839s-24.267-16.481-39.839-16.481s-28.856,5.487-39.839,16.481
	s-16.481,24.267-16.481,39.839s 5.487,28.856, 16.481,39.839s 24.267,16.481, 39.839,16.481s 28.856-5.487, 39.839-16.481S 169.54,372.693, 169.54,357.12z
	 M 318.029,418.56c0-17.070-5.97-31.57-17.92-43.52S 273.64,357.12, 256.58,357.12c-17.070,0-31.57,5.97-43.52,17.92S 195.14,401.49, 195.14,418.56
	s 5.97,31.57, 17.92,43.52S 239.519,480, 256.58,480c 17.070,0, 31.57-5.97, 43.52-17.92S 318.029,435.63, 318.029,418.56z M 492.1,213.76
	c0-8.53-2.985-15.785-8.955-21.765c-5.97-5.97-13.225-8.955-21.765-8.955c-8.53,0-15.785,2.985-21.765,8.955
	c-5.97,5.97-8.955,13.225-8.955,21.765c0,8.53, 2.985,15.785, 8.955,21.765c 5.97,5.97, 13.225,8.955, 21.765,8.955
	c 8.53,0, 15.785-2.985, 21.765-8.955C 489.115,229.545, 492.1,222.3, 492.1,213.76z M 425.549,357.12c0-7.033-2.502-13.070-7.516-18.075
	c-5.014-5.014-11.042-7.516-18.075-7.516s-13.070,2.502-18.075,7.516c-5.014,5.014-7.516,11.042-7.516,18.075
	c0,7.033, 2.502,13.070, 7.516,18.075s 11.042,7.516, 18.075,7.516s 13.070-2.502, 18.075-7.516S 425.549,364.153, 425.549,357.12z" horiz-adv-x="492.679"  />
<glyph unicode="&#xe009;" d="M 109.225,309.335q0-9.047 -6.4-15.447t-15.447-6.4t-15.447,6.4t-6.4,15.447t 6.4,15.447t 15.447,6.4t 15.447-6.4t 6.4-15.447zM 262.144,309.335q0-9.047 -6.4-15.447t-15.447-6.4t-15.447,6.4t-6.4,15.447t 6.4,15.447t 15.447,6.4t 15.447-6.4t 6.4-15.447zM 283.991,495.017l0-87.383 q0-4.096 -2.729-7.255t-6.999-3.671 l-178.176-20.823q 0.169-1.193 0.768-3.671t 1.024-4.521t 0.425-3.753q0-2.729 -4.096-10.921l 157.015,0 q 4.439,0 7.68-3.241t 3.241-7.68t-3.241-7.68t-7.68-3.241l-174.761,0 q-4.439,0 -7.68,3.241t-3.241,7.68q0,2.391 1.879,6.743t 5.033,10.153t 3.497,6.487l-30.208,140.457l-34.816,0 q-4.439,0 -7.68,3.241t-3.241,7.68t 3.241,7.68t 7.68,3.241l 43.689,0 q 2.729,0 4.864-1.111t 3.415-2.647t 2.217-4.183t 1.28-4.521 t 0.937-5.033t 0.768-4.352l 204.969,0 q 4.439,0 7.68-3.241t 3.241-7.68z"  />
<glyph unicode="&#xe00a;" d="M 354.249,388.67c0,37.823-13.838,70.112-40.591,97.787s-59.041,40.591-96.865,40.591s-70.112-13.838-97.787-40.591S 78.414,426.494, 78.414,388.67s 13.838-70.112, 40.591-97.787s 59.041-40.591, 97.787-40.591
	s 70.112,13.838, 96.865,40.591S 354.249,350.847, 354.249,388.67z M 512,133.132c0-11.070-3.69-20.295-11.993-27.676c-7.38-7.38-16.605-11.993-27.676-11.993c-11.070,0-20.295,3.69-27.676,11.993L 339.488,210.623
	c-36.901-25.831-77.492-37.823-122.695-37.823c-29.521,0-57.196,5.535-83.95,17.528s-49.816,26.753-69.189,46.126s-35.056,42.436-46.126,69.189S0,360.072,0,388.67s 5.535,57.196, 17.528,83.95s 26.753,49.816, 46.126,69.189
	s 42.436,35.056, 69.189,46.126s 54.429,17.528, 83.95,17.528s 57.196-5.535, 83.95-17.528c 26.753-11.070, 49.816-26.753, 69.189-46.126c 19.373-19.373, 35.056-42.436, 46.126-69.189s 16.605-54.429, 16.605-83.95
	c0-45.204-12.915-85.795-37.823-122.695l 105.168-105.168C 508.31,153.427, 512,144.202, 512,133.132z"  />
<glyph unicode="&#xe00b;" d="M 500.263,424.842L 500.263,279.483 c0-5.622-2.058-10.496-6.164-14.602c-4.106-4.106-8.97-6.164-14.602-6.164L 334.139,258.718 
	c-9.078,0-15.468,4.322-19.151,12.977c-3.682,8.438-2.156,15.892, 4.549,22.39l 44.78,44.78c-32.010,29.627-69.76,44.455-113.231,44.455
	c-22.498,0-43.963-4.382-64.414-13.145c-20.441-8.763-38.124-20.608-53.051-35.525c-14.927-14.927-26.772-32.61-35.525-53.051c-8.763-20.441-13.145-41.915-13.145-64.414
	s 4.382-43.963, 13.145-64.414c 8.763-20.441, 20.608-38.124, 35.525-53.051c 14.927-14.927, 32.61-26.772, 53.051-35.525s 41.915-13.145, 64.414-13.145
	c 25.738,0, 50.068,5.622, 72.999,16.866c 22.932,11.254, 42.279,27.146, 58.082,47.695c 1.516,2.156, 3.998,3.466, 7.463,3.889c 3.023,0, 5.73-0.975, 8.103-2.924
	l 44.455-44.78c 1.95-1.733, 2.983-3.948, 3.082-6.646c 0.108-2.708-0.699-5.14-2.432-7.296c-23.572-28.554-52.135-50.678-85.662-66.353
	S 288.276-32, 251.077-32c-33.743,0-65.979,6.597-96.689,19.791C 123.668,0.985, 97.172,18.727, 74.89,40.999
	c-22.282,22.282-40.015,48.778-53.218,79.498S 1.89,183.444, 1.89,217.186s 6.597,65.979, 19.791,96.689C 34.875,344.596, 52.618,371.092, 74.89,393.374
	s 48.778,40.015, 79.498,53.218S 217.334,466.373, 251.077,466.373c 31.803,0, 62.572-6.006, 92.308-18.009c 29.745-12.002, 56.182-28.928, 79.33-50.777l 42.181,41.856
	C 471.168,446.149, 478.74,447.665, 487.611,443.983C 496.049,440.31, 500.263,433.93, 500.263,424.842z" horiz-adv-x="502.154"  />
<glyph unicode="&#xe00c;" d="M 487.209,135.758l0-31.662 c0-4.289-1.566-7.999-4.697-11.13s-6.842-4.697-11.13-4.697L 123.117,88.268 c-4.289,0-7.999,1.566-11.13,4.697
	S 107.29,99.814, 107.29,104.103l0,31.662 c0,4.289, 1.566,7.999, 4.697,11.13s 6.842,4.697, 11.13,4.697l 348.256,0 c 4.289,0, 7.999-1.566, 11.13-4.697
	S 487.209,140.047, 487.209,135.758z M 487.209,262.4l0-31.662 c0-4.289-1.566-7.999-4.697-11.13s-6.842-4.697-11.13-4.697L 123.117,214.91 
	c-4.289,0-7.999,1.566-11.13,4.697C 108.856,222.746, 107.29,226.456, 107.29,230.738L 107.29,262.4 c0,4.289, 1.566,7.999, 4.697,11.13s 6.842,4.697, 11.13,4.697l 348.256,0 
	c 4.289,0, 7.999-1.566, 11.13-4.697C 485.643,270.399, 487.209,266.689, 487.209,262.4z M 487.209,389.042L 487.209,357.38 c0-4.289-1.566-7.999-4.697-11.13
	c-3.131-3.131-6.842-4.697-11.13-4.697L 123.117,341.552 c-4.289,0-7.999,1.566-11.13,4.697S 107.29,353.091, 107.29,357.38L 107.29,389.042 c0,4.289, 1.566,7.999, 4.697,11.13
	S 118.836,404.87, 123.117,404.87l 348.256,0 c 4.289,0, 7.999-1.566, 11.13-4.697S 487.209,393.324, 487.209,389.042z" horiz-adv-x="660.406"  />
<glyph unicode="&#xe00d;" d="M 512,67.556c0-11.636-3.879-20.687-11.636-29.737l-58.182-58.182c-7.758-7.758-18.101-11.636-29.737-11.636c-11.636,0-20.687,3.879-29.737,11.636l-126.707,126.707L 129.293-20.364
	c-7.758-7.758-18.101-11.636-29.737-11.636s-20.687,3.879-29.737,11.636l-58.182,58.182C 3.879,46.869,0,55.919,0,67.556s 3.879,20.687, 11.636,29.737l 126.707,126.707L 11.636,350.707C 3.879,358.465,0,368.808,0,380.444
	s 3.879,20.687, 11.636,29.737l 58.182,58.182C 78.869,476.121, 87.919,480, 99.556,480S 121.535,476.121, 129.293,468.364l 126.707-126.707l 126.707,126.707C 390.465,476.121, 400.808,480, 412.444,480s 20.687-3.879, 29.737-11.636l 58.182-58.182
	c 7.758-7.758, 11.636-18.101, 11.636-29.737s-3.879-20.687-11.636-29.737l-126.707-126.707l 126.707-126.707C 508.121,89.535, 512,79.192, 512,67.556z"  />
<glyph unicode="&#xe00e;" d="M 382.996,148.666c0,5.783-2.108,10.782-6.335,14.999L 316.326,224l 60.326,60.326c 4.216,4.216, 6.335,9.216, 6.335,14.999
	c0,6.003-2.108,11.113-6.335,15.33l-29.997,29.997c-4.216,4.216-9.326,6.335-15.33,6.335c-5.783,0-10.782-2.108-14.999-6.335L 256,284.326
	l-60.326,60.326c-4.216,4.216-9.216,6.335-14.999,6.335c-6.003,0-11.113-2.108-15.33-6.335l-29.997-29.997c-4.216-4.216-6.335-9.326-6.335-15.33
	c0-5.783, 2.108-10.782, 6.335-14.999l 60.326-60.326l-60.326-60.326c-4.216-4.216-6.335-9.216-6.335-14.999c0-6.003, 2.108-11.113, 6.335-15.33l 29.997-29.997
	c 4.216-4.216, 9.326-6.335, 15.33-6.335c 5.783,0, 10.782,2.108, 14.999,6.335l 60.326,60.326l 60.326-60.326c 4.216-4.216, 9.216-6.335, 14.999-6.335
	c 6.003,0, 11.113,2.108, 15.33,6.335l 29.997,29.997C 380.888,137.562, 382.996,142.672, 382.996,148.666z M 512,224c0-46.441-11.445-89.279-34.334-128.502
	s-53.941-70.285-93.174-93.174C 345.279-20.555, 302.441-32, 256-32s-89.279,11.445-128.502,34.334c-39.223,22.889-70.285,53.941-93.174,93.174
	S0,177.559,0,224s 11.445,89.279, 34.334,128.502s 53.941,70.285, 93.174,93.174S 209.559,480, 256,480s 89.279-11.445, 128.502-34.334
	s 70.285-53.941, 93.174-93.174S 512,270.441, 512,224z"  />
<glyph unicode="&#xe00f;" d="M 513.757,171.003c0-1.104-0.11-1.877-0.331-2.319c-14.135-59.191-43.721-107.159-88.767-143.922S 326.827-30.404, 266.32-30.404
	c-32.236,0-63.428,6.074-93.576,18.211s-57.033,29.485-80.665,52.003l-42.727-42.727c-4.196-4.196-9.166-6.295-14.908-6.295s-10.712,2.098-14.908,6.295
	s-6.295,9.166-6.295,14.908L 13.242,160.402 c0,5.742, 2.098,10.712, 6.295,14.908s 9.166,6.295, 14.908,6.295L 182.844,181.594 c 5.742,0, 10.712-2.098, 14.908-6.295
	c 4.196-4.196, 6.295-9.166, 6.295-14.908c0-5.742-2.098-10.712-6.295-14.908l-45.387-45.387c 15.681-14.577, 33.461-25.841, 53.338-33.792
	c 19.878-7.951, 40.528-11.927, 61.942-11.927c 29.596,0, 57.203,7.178, 82.803,21.534c 25.62,14.346, 46.15,34.113, 61.611,59.292c 2.429,3.755, 8.282,16.675, 17.559,38.751
	c 1.767,5.080, 5.080,7.62, 9.939,7.62l 63.598,0 c 2.871,0, 5.361-1.054, 7.449-3.152C 512.713,176.354, 513.757,173.874, 513.757,171.003z M 522.039,435.988L 522.039,287.598 
	c0-5.742-2.098-10.712-6.295-14.908c-4.196-4.196-9.166-6.295-14.908-6.295L 352.447,266.396 c-5.742,0-10.712,2.098-14.908,6.295
	c-4.196,4.196-6.295,9.166-6.295,14.908s 2.098,10.712, 6.295,14.908l 45.709,45.709c-32.688,30.248-71.218,45.387-115.602,45.387
	c-29.596,0-57.203-7.178-82.803-21.534s-46.15-34.113-61.611-59.292c-2.429-3.755-8.282-16.675-17.559-38.751c-1.767-5.080-5.080-7.62-9.939-7.62L 29.816,266.386 
	c-2.871,0-5.361,1.054-7.449,3.152c-2.098,2.098-3.152,4.578-3.152,7.449l0,2.319 c 14.346,59.191, 44.163,107.159, 89.439,143.922S 206.918,478.394, 267.645,478.394
	c 32.236,0, 63.598-6.134, 94.077-18.382c 30.479-12.248, 57.525-29.535, 81.157-51.843l 43.058,42.727c 4.196,4.196, 9.166,6.295, 14.908,6.295
	c 5.742,0, 10.712-2.098, 14.908-6.295C 519.941,446.7, 522.039,441.731, 522.039,435.988z" horiz-adv-x="522.039"  />
<glyph unicode="&#xe010;" d="M 405.333,202.667l0,42.667 c0,5.783-2.108,10.782-6.335,14.999c-4.216,4.216-9.216,6.335-14.999,6.335l-85.333,0 L 298.667,352 
	c0,5.783-2.108,10.782-6.335,14.999c-4.216,4.216-9.216,6.335-14.999,6.335l-42.667,0 c-5.783,0-10.782-2.108-14.999-6.335
	c-4.216-4.216-6.335-9.216-6.335-14.999l0-85.333 L 128,266.667 c-5.783,0-10.782-2.108-14.999-6.335c-4.216-4.216-6.335-9.216-6.335-14.999l0-42.667 
	c0-5.783, 2.108-10.782, 6.335-14.999c 4.216-4.216, 9.216-6.335, 14.999-6.335l 85.333,0 L 213.333,96 c0-5.783, 2.108-10.782, 6.335-14.999
	c 4.216-4.216, 9.216-6.335, 14.999-6.335l 42.667,0 c 5.783,0, 10.782,2.108, 14.999,6.335s 6.335,9.216, 6.335,14.999l0,85.333 L 384,181.333 
	c 5.783,0, 10.782,2.108, 14.999,6.335C 403.215,191.895, 405.333,196.894, 405.333,202.667z M 512,224c0-46.441-11.445-89.279-34.334-128.502
	s-53.941-70.285-93.174-93.174C 345.279-20.555, 302.441-32, 256-32s-89.279,11.445-128.502,34.334c-39.223,22.889-70.285,53.941-93.174,93.174
	S0,177.559,0,224s 11.445,89.279, 34.334,128.502s 53.941,70.285, 93.174,93.174S 209.559,480, 256,480s 89.279-11.445, 128.502-34.334
	s 70.285-53.941, 93.174-93.174S 512,270.441, 512,224z"  />
<glyph unicode="&#xe011;" d="M 512,224c0-46.441-11.445-89.279-34.334-128.502s-53.941-70.285-93.174-93.174C 345.279-20.555, 302.441-32, 256-32
	c-24.666,0-48.891,3.564-72.674,10.672c 13.111,20.671, 21.775,38.892, 26.002,54.674c 1.998,7.56, 8.001,31.001, 18,70.335
	c 4.437-8.674, 12.559-16.173, 24.325-22.498c 11.776-6.335, 24.435-9.497, 37.998-9.497c 26.885,0, 50.889,7.61, 72.001,22.829
	c 21.112,15.219, 37.436,36.171, 49.001,62.825c 11.555,26.674, 17.328,56.671, 17.328,90.002c0,25.329-6.606,49.112-19.827,71.329
	c-13.222,22.217-32.387,40.328-57.505,54.332s-53.439,21.002-85.002,21.002c-23.331,0-45.106-3.223-65.325-9.668c-20.219-6.435-37.386-14.999-51.501-25.67
	s-26.222-22.94-36.332-36.834s-17.559-28.28-22.327-43.169C 85.394,263.775, 83.004,248.887, 83.004,233.999c0-23.11, 4.437-43.44, 13.332-60.998
	c 8.895-17.559, 21.885-29.887, 39.002-37.005c 6.666-2.67, 10.893-0.442, 12.669,6.666c 0.442,1.556, 1.325,5, 2.67,10.33s 2.219,8.674, 2.67,9.999
	c 1.325,5.11, 0.11,9.889-3.674,14.326c-11.334,13.563-16.996,30.328-16.996,50.327c0,33.561, 11.605,62.394, 34.826,86.498s 53.609,36.171, 91.166,36.171
	c 33.561,0, 59.723-9.106, 78.497-27.327c 18.783-18.221, 28.17-41.894, 28.17-70.997c0-37.778-7.61-69.893-22.829-96.326
	c-15.219-26.443-34.716-39.675-58.499-39.675c-13.563,0-24.435,4.829-32.668,14.497c-8.222,9.668-10.782,21.283-7.67,34.826
	c 1.777,7.78, 4.718,18.171, 8.835,31.172c 4.106,13.001, 7.439,24.435, 9.999,34.334s 3.835,18.281, 3.835,25.168c0,11.113-3.002,20.329-8.995,27.668
	s-14.557,11.003-25.67,11.003c-13.784,0-25.439-6.335-34.997-19.004c-9.557-12.669-14.326-28.441-14.326-47.335c0-16.223, 2.781-29.776, 8.333-40.669
	l-32.999-139.334c-3.785-15.561-5.22-35.218-4.327-59c-45.779,20.219-82.783,51.441-111.004,93.666S0,172.218,0,224
	c0,46.441, 11.445,89.279, 34.334,128.502s 53.941,70.285, 93.174,93.174S 209.559,480, 256,480s 89.279-11.445, 128.502-34.334s 70.285-53.941, 93.174-93.174
	S 512,270.441, 512,224z"  />
<glyph unicode="&#xe012;" d="M 214.167,331.088c0-17.85-6.244-33.019-18.743-45.508s-27.668-18.743-45.508-18.743s-33.019,6.244-45.508,18.743
	s-18.743,27.668-18.743,45.508S 91.919,364.107, 104.408,376.596s 27.668,18.743, 45.508,18.743s 33.019-6.244, 45.508-18.743S 214.167,348.928, 214.167,331.088z
	 M 556.845,202.586l0-149.916 L 85.665,52.671 l0,64.251 L 192.753,224l 53.539-53.539L 417.631,341.79L 556.845,202.586z M 588.971,438.167L 53.539,438.167 
	c-2.901,0-5.411-1.064-7.529-3.182s-3.182-4.628-3.182-7.529l0-406.92 c0-2.901, 1.064-5.411, 3.182-7.529
	c 2.118-2.118, 4.628-3.182, 7.529-3.182l 535.421,0 c 2.901,0, 5.411,1.064, 7.529,3.182c 2.118,2.118, 3.182,4.628, 3.182,7.529L 599.672,427.465 
	c0,2.901-1.064,5.411-3.182,7.529C 594.382,437.112, 591.872,438.167, 588.971,438.167z M 642.51,427.465l0-406.92 c0-14.728-5.24-27.327-15.731-37.818
	s-23.090-15.731-37.818-15.731L 53.539-33.004 c-14.728,0-27.327,5.24-37.818,15.731S0,5.818,0,20.535L0,427.465 c0,14.728, 5.24,27.327, 15.731,37.818
	S 38.822,481.004, 53.539,481.004l 535.421,0 c 14.728,0, 27.327-5.24, 37.818-15.731S 642.51,442.182, 642.51,427.465z" horiz-adv-x="642.51"  />
<glyph unicode="&#xe013;" d="M 512,75.631c0-6.545-1.213-15.093-3.629-25.633s-4.975-18.855-7.635-24.91c-5.098-12.121-19.879-24.966-44.366-38.545
	c-22.784-12.355-45.334-18.543-67.64-18.543c-6.545,0-12.9,0.423-19.089,1.28S 356.486-28.371, 348.739-26.19s-13.512,3.94-17.274,5.265
	c-3.751,1.336-10.485,3.818-20.179,7.446C 301.568-9.817, 295.635-7.635, 293.454-6.912c-23.763,8.493-44.967,18.543-63.633,30.186
	c-31.021,19.155-63.087,45.279-96.189,78.358s-59.214,65.146-78.358,96.189C 43.631,216.476, 33.581,237.702, 25.088,261.454c-0.735,2.182-2.916,8.114-6.545,17.82
	s-6.122,16.429-7.446,20.179s-3.083,9.517-5.265,17.274c-2.182,7.758-3.695,14.726-4.552,20.914S0,350.186,0,356.73c0,22.294, 6.189,44.845, 18.543,67.64
	c 13.568,24.476, 26.424,39.268, 38.545,44.366c 6.066,2.66, 14.369,5.209, 24.91,7.635S 101.098,480, 107.642,480c 3.395,0, 5.933-0.356, 7.635-1.091
	c 4.363-1.447, 10.785-10.674, 19.278-27.637c 2.66-4.608, 6.311-11.153, 10.908-19.634S 154.301,415.455, 158.186,408.543c 3.885-6.901, 7.635-13.401, 11.264-19.456
	C 170.184,388.118, 172.299,385.091, 175.827,379.993c 3.517-5.098, 6.122-9.394, 7.825-12.9c 1.703-3.517, 2.538-6.968, 2.538-10.362
	c0-4.842-3.462-10.908-10.362-18.187c-6.901-7.279-14.425-13.946-22.55-20.001s-15.638-12.477-22.55-19.278s-10.362-12.355-10.362-16.729
	c0-2.182, 0.612-4.909, 1.825-8.181c 1.213-3.272, 2.248-5.766, 3.083-7.446c 0.846-1.703, 2.538-4.608, 5.098-8.726s 3.94-6.422, 4.174-6.901
	c 18.421-33.202, 39.513-61.707, 63.277-85.448s 52.246-44.845, 85.448-63.277c 0.479-0.245, 2.794-1.636, 6.901-4.174s 7.023-4.241, 8.726-5.098
	c 1.703-0.846, 4.174-1.881, 7.446-3.083c 3.272-1.213, 5.999-1.825, 8.181-1.825c 4.363,0, 9.939,3.462, 16.729,10.362
	c 6.79,6.901, 13.212,14.425, 19.278,22.55c 6.066,8.114, 12.733,15.638, 20.001,22.55c 7.279,6.901, 13.334,10.362, 18.187,10.362
	c 3.395,0, 6.856-0.846, 10.362-2.538c 3.517-1.703, 7.825-4.296, 12.9-7.825s 8.114-5.643, 9.082-6.355c 6.066-3.629, 12.544-7.402, 19.456-11.264
	c 6.901-3.885, 14.603-8.114, 23.096-12.733s 15.037-8.248, 19.634-10.908c 16.974-8.493, 26.179-14.915, 27.637-19.278
	C 511.644,81.575, 512,79.026, 512,75.631z"  />
<glyph unicode="&#xe014;" d="M 122.675,11.264l 30.751,30.751L 74.015,121.426L 43.264,90.675l0-36.168 l 43.264,0 l0-43.264 L 122.675,11.254 z M 299.428,324.874c0,4.956-2.478,7.434-7.434,7.434
	c-2.253,0-4.168-0.788-5.745-2.365L 103.076,146.77c-1.577-1.577-2.365-3.492-2.365-5.745c0-4.956, 2.478-7.434, 7.434-7.434
	c 2.253,0, 4.168,0.788, 5.745,2.365L 297.062,319.13C 298.639,320.717, 299.428,322.632, 299.428,324.874z M 281.17,389.765L 421.765,249.17L 140.595-32L0-32 
	L0,108.595 L 281.17,389.765z M 512,357.325c0-11.94-4.168-22.077-12.503-30.413l-56.095-56.095L 302.807,411.392l 56.095,55.767C 367.022,475.72, 377.16,480, 389.325,480
	c 11.94,0, 22.19-4.28, 30.751-12.841l 79.411-79.084C 507.832,379.29, 512,369.039, 512,357.325z"  />
<glyph unicode="&#xe015;" d="M 721.985,380.192c0-11.666-3.889-20.739-11.666-29.813L 396.638,37.995l-58.329-58.329c-7.777-7.777-18.147-11.666-29.813-11.666s-20.739,3.889-29.813,11.666L 220.354,37.995L 64.81,193.539
	C 55.737,202.613, 51.848,211.686, 51.848,223.352s 3.889,20.739, 11.666,29.813L 123.139,311.494c 7.777,7.777, 18.147,11.666, 29.813,11.666s 20.739-3.889, 29.813-11.666l 127.028-127.028L 592.365,468.334C 600.142,476.111, 610.511,480, 622.177,480
	s 20.739-3.889, 29.813-11.666l 58.329-58.329C 718.096,400.932, 721.985,391.858, 721.985,380.192z" horiz-adv-x="670.137"  />
<glyph unicode="&#xe016;" d="M 428.002,278.001c0,6.224-1.998,11.334-6.003,15.33l-30.328,29.997c-4.216,4.216-9.216,6.335-14.999,6.335c-5.783,0-10.782-2.108-14.999-6.335
	l-136.001-135.67L 150.327,263.002c-4.216,4.216-9.216,6.335-14.999,6.335s-10.782-2.108-14.999-6.335L 90.002,232.995c-3.996-3.996-6.003-9.106-6.003-15.33
	c0-6.003, 1.998-11.003, 6.003-14.999L 210.673,81.995c 4.216-4.216, 9.216-6.335, 14.999-6.335c 6.003,0, 11.113,2.108, 15.33,6.335l 180.997,180.997
	C 426.004,266.998, 428.002,271.997, 428.002,278.001z M 512,224c0-46.441-11.445-89.279-34.334-128.502s-53.941-70.285-93.174-93.174
	C 345.279-20.555, 302.441-32, 256-32s-89.279,11.445-128.502,34.334c-39.223,22.889-70.285,53.941-93.174,93.174S0,177.559,0,224
	s 11.445,89.279, 34.334,128.502s 53.941,70.285, 93.174,93.174S 209.559,480, 256,480s 89.279-11.445, 128.502-34.334s 70.285-53.941, 93.174-93.174
	S 512,270.441, 512,224z"  />
<glyph unicode="&#xe017;" d="M 240.297,445.865l0-32.768 q0-6.825 -4.777-11.607t-11.607-4.777l-207.529,0 q-6.825,0 -11.607,4.777t-4.777,11.607l0,32.768 q0,6.825 4.777,11.607t 11.607,4.777l 207.529,0 q 6.825,0 11.607-4.777t 4.777-11.607z"  />
<glyph unicode="&#xe018;" d="M 413.44,196.116l0,43.52 c0,5.898-2.15,10.998-6.461,15.299c-4.301,4.301-9.4,6.461-15.299,6.461L 130.56,261.396 
	c-5.898,0-10.998-2.15-15.299-6.461c-4.301-4.301-6.461-9.4-6.461-15.299l0-43.52 c0-5.898, 2.15-10.998, 6.461-15.299
	c 4.301-4.301, 9.4-6.461, 15.299-6.461l 261.12,0 c 5.898,0, 10.998,2.15, 15.299,6.461C 411.279,185.129, 413.44,190.228, 413.44,196.116z M 522.24,217.876
	c0-47.37-11.674-91.064-35.021-131.072s-55.020-71.69-95.037-95.037C 352.184-31.57, 308.49-43.244, 261.12-43.244s-91.064,11.674-131.072,35.021
	c-40.008,23.347-71.69,55.020-95.037,95.037S0,170.506,0,217.876s 11.674,91.064, 35.021,131.072s 55.020,71.69, 95.037,95.037S 213.75,478.996, 261.12,478.996
	s 91.064-11.674, 131.072-35.021s 71.69-55.020, 95.037-95.037S 522.24,265.247, 522.24,217.876z" horiz-adv-x="522.24"  />
<glyph unicode="&#xe019;" d="M 256,309.333c0,23.562-8.333,43.671-24.998,60.326c-16.665,16.665-36.784,24.998-60.326,24.998s-43.671-8.333-60.326-24.998s-24.998-36.784-24.998-60.326
	s 8.333-43.671, 24.998-60.326c 16.665-16.665, 36.784-24.998, 60.326-24.998s 43.671,8.333, 60.326,24.998C 247.667,265.673, 256,285.781, 256,309.333z
	 M 341.333,309.333c0-24.225-3.674-44.112-11.003-59.673L 208.996-8.328c-3.564-7.329-8.835-13.111-15.832-17.328c-6.997-4.216-14.497-6.335-22.498-6.335
	c-8.001,0-15.501,2.108-22.498,6.335s-12.168,9.999-15.501,17.328L 11.003,249.67C 3.674,265.221, 0,285.109, 0,309.333C 0,356.437, 16.665,396.675, 49.995,430.005
	s 73.557,49.995, 120.671,49.995S 257.998,463.335, 291.328,430.005S 341.333,356.437, 341.333,309.333z" horiz-adv-x="341.333"  />
<glyph unicode="&#xe01a;" d="M 452.352,104.695c0,8.287-2.901,15.322-8.695,21.125L 379.032,190.445c-5.793,5.793-12.847,8.695-21.125,8.695
	c-8.695,0-16.156-3.319-22.367-9.946c 0.626-0.626, 2.588-2.532, 5.897-5.755c 3.319-3.205, 5.537-5.433, 6.684-6.684
	c 1.138-1.242, 2.693-3.205, 4.665-5.897c 1.963-2.693, 3.319-5.329, 4.039-7.927c 0.73-2.588, 1.090-5.433, 1.090-8.543
	c0-8.287-2.901-15.322-8.695-21.125c-5.793-5.793-12.847-8.695-21.125-8.695c-3.1,0-5.954,0.36-8.543,1.090s-5.224,2.067-7.927,4.039
	c-2.693,1.963-4.665,3.527-5.897,4.665c-1.242,1.138-3.47,3.366-6.684,6.684c-3.205,3.319-5.129,5.281-5.755,5.897
	c-6.836-6.419-10.249-13.985-10.249-22.68c0-8.287, 2.901-15.322, 8.695-21.125l 64-64.313c 5.594-5.594, 12.639-8.391, 21.125-8.391
	c 8.287,0, 15.322,2.693, 21.125,8.078l 45.672,45.359C 449.451,89.685, 452.352,96.616, 452.352,104.695z M 233.946,323.726c0,8.287-2.901,15.322-8.695,21.125
	l-64,64.313C 155.449,414.967, 148.404,417.868, 140.117,417.868c-8.078,0-15.113-2.797-21.125-8.391l-45.672-45.359c-5.793-5.793-8.695-12.743-8.695-20.812
	c0-8.287, 2.901-15.322, 8.695-21.125L 137.946,257.555c 5.594-5.594, 12.639-8.391, 21.125-8.391c 8.695,0, 16.156,3.205, 22.367,9.624
	c-0.626,0.626-2.588,2.532-5.897,5.755c-3.319,3.205-5.537,5.433-6.684,6.684s-2.693,3.205-4.665,5.897
	c-1.963,2.693-3.319,5.329-4.039,7.927c-0.73,2.588-1.090,5.433-1.090,8.543c0,8.287, 2.901,15.322, 8.695,21.125
	s 12.847,8.695, 21.125,8.695c 3.1,0, 5.954-0.36, 8.543-1.090c 2.588-0.73, 5.224-2.067, 7.927-4.039c 2.693-1.963, 4.665-3.527, 5.897-4.665
	s 3.47-3.366, 6.684-6.684c 3.205-3.319, 5.129-5.281, 5.755-5.897C 230.523,307.475, 233.946,315.032, 233.946,323.726z M 512,104.695
	c0-24.86-8.799-45.871-26.406-63.071l-45.672-45.359c-17.19-17.19-38.21-25.79-63.071-25.79c-25.060,0-46.194,8.799-63.384,26.406l-64,64.313
	C 232.287,78.393, 223.687,99.413, 223.687,124.274c0,25.477, 9.112,47.123, 27.335,64.939L 223.687,216.548c-17.816-18.233-39.348-27.335-64.616-27.335
	c-24.86,0-45.976,8.695-63.384,26.093L 31.061,279.922c-17.399,17.399-26.093,38.523-26.093,63.384s 8.799,45.871, 26.406,63.071l 45.672,45.359
	C 94.236,468.926, 115.266,477.516, 140.117,477.516c 25.060,0, 46.194-8.799, 63.384-26.406l 64-64.313c 17.19-17.19, 25.79-38.21, 25.79-63.071
	c0-25.477-9.112-47.123-27.335-64.939l 27.335-27.335c 17.816,18.233, 39.348,27.335, 64.616,27.335c 24.86,0, 45.976-8.695, 63.384-26.093l 64.616-64.616
	C 503.305,150.68, 512,129.555, 512,104.695z"  />
<glyph unicode="&#xe01b;" d="M 341.333,63.995l0,53.328 c0,3.112-1.004,5.672-3.002,7.67c-1.998,1.998-4.558,3.002-7.67,3.002l-32.005,0 L 298.657,298.672 c0,3.112-1.004,5.672-3.002,7.67
	c-1.998,1.998-4.558,3.002-7.67,3.002L 181.328,309.343 c-3.112,0-5.672-1.004-7.67-3.002c-1.998-1.998-3.002-4.558-3.002-7.67l0-53.328 
	c0-3.112, 1.004-5.672, 3.002-7.67c 1.998-1.998, 4.558-3.002, 7.67-3.002l 32.005,0 L 213.333,127.995 l-32.005,0 c-3.112,0-5.672-1.004-7.67-3.002
	c-1.998-1.998-3.002-4.558-3.002-7.67L 170.657,63.995 c0-3.112, 1.004-5.672, 3.002-7.67c 1.998-1.998, 4.558-3.002, 7.67-3.002l 149.333,0 c 3.112,0, 5.672,1.004, 7.67,3.002
	S 341.333,60.893, 341.333,63.995z M 298.667,362.672L 298.667,416 c0,3.112-1.004,5.672-3.002,7.67c-1.998,1.998-4.558,3.002-7.67,3.002l-64,0 
	c-3.112,0-5.672-1.004-7.67-3.002c-1.998-1.998-3.002-4.558-3.002-7.67l0-53.328 c0-3.112, 1.004-5.672, 3.002-7.67c 1.998-1.998, 4.558-3.002, 7.67-3.002l 64,0 
	c 3.112,0, 5.672,1.004, 7.67,3.002C 297.673,357, 298.667,359.56, 298.667,362.672z M 512,224c0-46.441-11.445-89.279-34.334-128.502
	s-53.941-70.285-93.174-93.174C 345.279-20.555, 302.441-32, 256-32s-89.279,11.445-128.502,34.334c-39.223,22.889-70.285,53.941-93.174,93.174
	S0,177.559,0,224s 11.445,89.279, 34.334,128.502s 53.941,70.285, 93.174,93.174S 209.559,480, 256,480s 89.279-11.445, 128.502-34.334
	s 70.285-53.941, 93.174-93.174S 512,270.441, 512,224z"  />
<glyph unicode="&#xe01c;" d="M 565.809,184.82l0-192.89 c0-6.973-2.548-12.995-7.631-18.078s-11.118-7.631-18.078-7.631L 385.78-33.78 l0,154.307 l-102.875,0 l0-154.307 l-154.307,0 
	c-6.973,0-12.995,2.548-18.078,7.631s-7.631,11.118-7.631,18.078l0,192.89 c0,0.268, 0.073,0.67, 0.207,1.207s 0.207,0.939, 0.207,1.207l 231.070,190.476
	l 231.070-190.476C 565.675,186.697, 565.809,185.893, 565.809,184.82z M 655.433,212.553L 630.504,182.808c-2.146-2.414-4.949-3.877-8.436-4.425l-1.207,0 
	c-3.486,0-6.29,0.939-8.436,2.804L 334.336,413.074L 56.259,181.211c-3.218-2.146-6.424-3.084-9.643-2.804C 43.13,178.932, 40.314,180.407, 38.181,182.808
	L 13.263,212.553c-2.146,2.682-3.084,5.827-2.804,9.435c 0.268,3.621, 1.731,6.498, 4.425,8.643L 303.799,471.345C 312.369,478.306, 322.56,481.792, 334.336,481.792
	s 21.967-3.486, 30.537-10.447l 98.048-81.981l0,78.36 c0,3.755, 1.207,6.839, 3.621,9.253c 2.414,2.414, 5.498,3.621, 9.253,3.621l 77.154,0 c 3.755,0, 6.839-1.207, 9.253-3.621
	c 2.414-2.414, 3.621-5.498, 3.621-9.253l0-163.962 l 88.003-73.143c 2.682-2.146, 4.145-5.022, 4.425-8.643S 657.566,215.235, 655.433,212.553z" horiz-adv-x="658.286"  />
<glyph unicode="&#xe01d;" d="M 171.537,223.991c-31.241-0.963-56.789-13.303-76.652-37.029L 56.12,186.971 c-15.811,0-29.123,3.905-39.919,11.715C 5.398,206.497,0,217.917,0,232.973
	c0,68.070, 11.958,102.114, 35.866,102.114c 1.154,0, 5.354-2.022, 12.583-6.075s 16.636-8.149, 28.203-12.297S 99.701,310.485, 111.078,310.485
	c 12.921,0, 25.748,2.222, 38.469,6.656c-0.963-7.133-1.449-13.503-1.449-19.092C 148.107,271.243, 155.917,246.554, 171.537,223.991z M 481.341,39.732
	c0-23.144-7.038-41.411-21.113-54.819c-14.076-13.399-32.785-20.107-56.12-20.107L 151.283-35.193 c-23.335,0-42.036,6.699-56.12,20.107
	c-14.076,13.399-21.113,31.675-21.113,54.819c0,10.223, 0.338,20.202, 1.015,29.939s 2.022,20.246, 4.053,31.527C 81.139,112.488, 83.69,122.945, 86.78,132.586
	c 3.089,9.641, 7.229,19.039, 12.436,28.203c 5.207,9.164, 11.186,16.974, 17.937,23.431c 6.751,6.456, 14.996,11.62, 24.732,15.473
	C 151.621,203.555, 162.373,205.481, 174.141,205.481c 1.927,0, 6.075-2.074, 12.436-6.222c 6.361-4.148, 13.399-8.773, 21.113-13.885
	c 7.715-5.111, 18.033-9.737, 30.954-13.885c 12.921-4.148, 25.938-6.222, 39.051-6.222c 13.112,0, 26.129,2.074, 39.051,6.222
	c 12.921,4.148, 23.24,8.773, 30.954,13.885c 7.715,5.111, 14.753,9.737, 21.113,13.885C 375.175,203.416, 379.323,205.481, 381.249,205.481
	c 11.767,0, 22.511-1.927, 32.256-5.788c 9.737-3.853, 17.981-9.016, 24.732-15.473c 6.751-6.456, 12.731-14.267, 17.937-23.431
	c 5.207-9.164, 9.355-18.562, 12.436-28.203c 3.089-9.641, 5.641-20.107, 7.663-31.388s 3.376-21.79, 4.053-31.527
	C 481.002,59.934, 481.341,49.963, 481.341,39.732z M 185.127,409.127c0-20.445-7.229-37.897-21.695-52.354c-14.466-14.466-31.918-21.695-52.354-21.695
	s-37.897,7.229-52.354,21.695s-21.695,31.918-21.695,52.354S 44.258,447.015, 58.724,461.481S 90.633,483.176, 111.078,483.176s 37.897-7.229, 52.354-21.695
	C 177.898,447.015, 185.127,429.564, 185.127,409.127z M 388.773,298.058c0-30.659-10.847-56.841-32.542-78.536s-47.876-32.542-78.536-32.542s-56.841,10.847-78.536,32.542
	s-32.542,47.876-32.542,78.536s 10.847,56.841, 32.542,78.536s 47.876,32.542, 78.536,32.542s 56.841-10.847, 78.536-32.542S 388.773,328.708, 388.773,298.058z M 555.39,232.973
	c0-15.039-5.398-26.468-16.202-34.278c-10.795-7.81-24.107-11.715-39.919-11.715l-38.764,0 c-19.864,23.717-45.412,36.066-76.652,37.029
	c 15.62,22.563, 23.431,47.243, 23.431,74.049c0,5.589-0.486,11.958-1.449,19.092c 12.731-4.434, 25.548-6.656, 38.469-6.656c 11.377,0, 22.849,2.074, 34.425,6.222
	c 11.568,4.148, 20.975,8.244, 28.203,12.297c 7.229,4.053, 11.429,6.075, 12.583,6.075C 543.432,335.069, 555.39,301.034, 555.39,232.973z M 518.361,409.127
	c0-20.445-7.229-37.897-21.695-52.354s-31.918-21.695-52.354-21.695c-20.445,0-37.897,7.229-52.354,21.695c-14.466,14.466-21.695,31.918-21.695,52.354
	s 7.229,37.897, 21.695,52.354C 406.415,475.947, 423.867,483.176, 444.312,483.176c 20.445,0, 37.897-7.229, 52.354-21.695S 518.361,429.564, 518.361,409.127z" horiz-adv-x="555.39"  />
<glyph unicode="&#xe01e;" d="M 269.535,68.613c0,4.31-0.465,8.462-1.387,12.465c-0.922,3.994-1.899,7.689-2.923,11.078c-1.024,3.389-2.821,6.926-5.381,10.612
	c-2.569,3.696-4.72,6.824-6.461,9.384c-1.741,2.569-4.459,5.595-8.155,9.076c-3.696,3.491-6.516,6.097-8.462,7.848
	c-1.946,1.741-5.232,4.357-9.849,7.848s-7.792,5.846-9.533,7.084c-1.741,1.229-5.129,3.593-10.156,7.084
	c-5.018,3.491-8.155,5.641-9.384,6.461c-3.491,0.41-8.611,0.614-15.388,0.614c-11.078,0-21.951-0.717-32.61-2.15s-21.746-3.994-33.233-7.689
	c-11.487-3.696-21.532-8.406-30.152-14.15c-8.611-5.744-15.695-13.442-21.234-23.077c-5.539-9.635-8.304-20.61-8.304-32.926
	c0-13.945, 3.64-26.41, 10.92-37.385s 16.822-19.586, 28.616-25.842c 11.795-6.256, 24.157-10.92, 37.078-14.001c 12.921-3.072, 25.944-4.617, 39.070-4.617
	c 12.102,0, 23.636,1.285, 34.611,3.845c 10.975,2.569, 21.29,6.563, 30.925,11.999c 9.635,5.437, 17.278,12.977, 22.919,22.612
	C 266.715,44.409, 269.535,55.692, 269.535,68.613z M 232.616,333.847c0,12.307-1.685,25.386-5.073,39.229s-8.211,27.229-14.466,40.15
	c-6.256,12.921-14.867,23.589-25.842,32.005C 176.249,453.637, 163.998,457.844, 150.463,457.844c-19.084,0-33.848-7.084-44.311-21.234s-15.695-31.083-15.695-50.772
	c0-9.635, 1.182-19.791, 3.537-30.459s 6.004-21.336, 10.92-32.005c 4.925-10.668, 10.668-20.257, 17.231-28.774c 6.563-8.509, 14.569-15.434, 23.999-20.769
	c 9.43-5.334, 19.382-8.006, 29.845-8.006c 19.903,0, 34.313,6.2, 43.231,18.618S 232.616,313.33, 232.616,333.847z M 192.307,480L 326.768,480 l-41.537-24.306l-41.537,0 
	c 14.569-9.235, 25.842-22.156, 33.848-38.772s 11.999-33.95, 11.999-52.001c0-15.174-2.365-28.672-7.084-40.457c-4.72-11.795-10.454-21.29-17.231-28.458
	s-13.545-13.787-20.303-19.847c-6.768-6.051-12.521-12.307-17.231-18.767c-4.72-6.461-7.084-13.386-7.084-20.769c0-5.334, 1.685-10.557, 5.073-15.695
	c 3.389-5.129, 7.792-10.054, 13.228-14.774c 5.437-4.72, 11.441-9.635, 18.004-14.774s 13.126-10.817, 19.689-17.073c 6.563-6.256, 12.567-13.023, 18.004-20.303
	c 5.437-7.28, 9.849-15.993, 13.228-26.149c 3.389-10.156, 5.073-21.076, 5.073-32.768c0-32.824-14.364-61.747-43.082-86.77
	c-31.185-26.866-74.249-40.308-129.229-40.308c-12.102,0-24.362,1.024-36.762,3.072c-12.409,2.048-24.92,5.483-37.544,10.314
	c-12.614,4.822-23.738,10.771-33.392,17.846S 15.388,15.439, 9.235,26.619c-6.153,11.18-9.235,23.636-9.235,37.385c0,12.521, 3.798,26.363, 11.385,41.537
	c 6.563,13.126, 16.412,24.464, 29.538,33.997s 27.992,16.822, 44.609,21.848c 16.617,5.018, 32.507,8.713, 47.69,11.078c 15.174,2.365, 30.562,3.752, 46.154,4.152
	c-13.126,17.017-19.689,32.312-19.689,45.847c0,2.467, 0.205,4.878, 0.614,7.224s 0.922,4.357, 1.545,6.004c 0.614,1.648, 1.443,3.845, 2.467,6.619
	c 1.024,2.765, 1.741,4.971, 2.15,6.619C 158.255,247.906, 151.077,247.384, 144.924,247.384c-30.562,0-56.767,10.054-78.615,30.152s-32.768,45.335-32.768,75.692
	c0,28.719, 9.747,54.402, 29.231,77.079s 43.483,37.181, 71.997,43.539C 154.047,477.952, 173.233,480, 192.307,480z M 512,401.236L 512,361.849 l-78.764,0 l0-78.764 l-39.387,0 
	L 393.849,361.849 l-78.764,0 L 315.085,401.236 l 78.764,0 L 393.849,480 l 39.387,0 l0-78.764 L 512,401.236 z"  />
<glyph unicode="&#xe01f;" d="M 40.33,22.292L 373.209,22.292 l0,249.659 L 237.972,271.951 c-8.674,0-16.030,3.033-22.105,9.098s-9.098,13.44-9.098,22.105L 206.769,438.39 L 40.33,438.39 L 40.33,22.292 z
	 M 248.379,313.561l 122.23,0 c-2.166,6.282-4.559,10.732-7.148,13.332L 261.711,428.633C 259.111,431.242, 254.661,433.615, 248.379,435.791L 248.379,313.561 z M 414.828,303.163L 414.828,11.884 
	c0-8.674-3.033-16.030-9.098-22.105c-6.065-6.065-13.44-9.098-22.105-9.098L 29.932-19.318 c-8.674,0-16.030,3.033-22.105,9.098S-1.28,3.22,-1.28,11.884L-1.28,448.788 
	c0,8.674, 3.033,16.030, 9.098,22.105S 21.258,480, 29.932,480l 208.049,0 c 8.674,0, 18.206-2.166, 28.603-6.508c 10.407-4.332, 18.639-9.541, 24.704-15.606
	l 101.425-101.425c 6.065-6.065, 11.274-14.306, 15.606-24.704S 414.828,311.828, 414.828,303.163z" horiz-adv-x="413.538"  />
<glyph unicode="&#xe020;" d="M 160.313,312.235L 240.156,312.235 l-9.32-88.235l-70.523,0 l0-256 L 54.376-32.009 L 54.376,224 L 1.555,224 L 1.555,312.235 l 52.821,0 l0,53.125 c0,37.689, 8.913,66.228, 26.719,85.589S 128.209,480, 169.017,480
	l 70.523,0 l0-88.235 L 195.423,391.765 c-8.078,0-14.545-0.673-19.418-2.020c-4.864-1.346-8.391-3.783-10.562-7.301c-2.171-3.527-3.565-7.092-4.191-10.714
	s-0.929-8.751-0.929-15.379L 160.322,312.235 z" horiz-adv-x="274.963"  />
<glyph unicode="&#xe021;" d="M 465.388,171.123L 465.388,65.34 c0-26.222-9.306-48.65-27.929-67.263c-18.623-18.623-41.040-27.929-67.263-27.929L 95.192-29.852 
	c-26.222,0-48.65,9.306-67.263,27.929S0,39.128,0,65.34L0,340.344 c0,26.222, 9.306,48.65, 27.929,67.263S 68.979,435.536, 95.192,435.536l 232.699,0 
	c 3.082,0, 5.622-0.994, 7.61-2.972c 1.988-1.988, 2.972-4.518, 2.972-7.61l0-21.153 c0-3.082-0.994-5.622-2.972-7.61s-4.518-2.972-7.61-2.972L 95.192,393.231 
	c-14.547,0-26.995-5.18-37.356-15.541s-15.541-22.809-15.541-37.356L 42.305,65.34 c0-14.547, 5.18-26.995, 15.541-37.356s 22.809-15.541, 37.356-15.541l 275.004,0 
	c 14.547,0, 26.995,5.18, 37.356,15.541s 15.541,22.809, 15.541,37.356L 423.083,171.123 c0,3.082, 0.994,5.622, 2.972,7.61c 1.988,1.988, 4.518,2.972, 7.61,2.972l 21.153,0 
	c 3.082,0, 5.622-0.994, 7.61-2.972C 464.394,176.735, 465.388,174.205, 465.388,171.123z M 592.314,456.699L 592.314,287.468 c0-5.732-2.088-10.692-6.275-14.878
	c-4.186-4.186-9.146-6.275-14.878-6.275c-5.732,0-10.692,2.088-14.878,6.275l-58.177,58.177L 282.604,115.255
	c-2.199-2.199-4.739-3.303-7.61-3.303s-5.391,1.104-7.61,3.303l-37.677,37.677c-2.199,2.199-3.303,4.739-3.303,7.61
	c0,2.861, 1.104,5.391, 3.303,7.61L 445.229,383.654l-58.177,58.177c-4.186,4.186-6.275,9.146-6.275,14.878s 2.088,10.692, 6.275,14.878
	S 396.208,477.852, 401.93,477.852L 571.161,477.852 c 5.732,0, 10.692-2.088, 14.878-6.275C 590.226,467.381, 592.314,462.421, 592.314,456.699z" horiz-adv-x="592.314"  />
<glyph unicode="&#xe022;" d="M 304.060,79.307l0,47.684 c0,2.342-0.798,4.307-2.387,5.896c-1.589,1.589-3.471,2.387-5.647,2.387l-48.188,0 
	c-2.176,0-4.058-0.798-5.647-2.387S 239.812,129.34, 239.812,126.999l0-47.684 c0-2.342, 0.798-4.307, 2.387-5.896s 3.471-2.387, 5.647-2.387l 48.188,0 
	c 2.176,0, 4.058,0.798, 5.647,2.387C 303.27,75, 304.060,76.966, 304.060,79.307z M 303.563,173.176l 4.518,115.2
	c0,2.010-0.836,3.599-2.507,4.766c-2.176,1.837-4.186,2.763-6.024,2.763L 244.329,295.906 c-1.837,0-3.848-0.919-6.024-2.763
	c-1.672-1.175-2.507-2.929-2.507-5.271L 240.060,173.176c0-1.672, 0.836-3.057, 2.507-4.141c 1.672-1.084, 3.682-1.634, 6.024-1.634l 46.434,0 
	c 2.342,0, 4.307,0.542, 5.896,1.634C 302.517,170.12, 303.39,171.505, 303.563,173.176z M 300.047,407.59L 492.8,54.212c 5.858-10.541, 5.692-21.082-0.504-31.624
	c-2.846-4.849-6.731-8.704-11.671-11.543c-4.939-2.846-10.248-4.269-15.94-4.269l-385.506,0 c-5.692,0-11,1.423-15.94,4.269
	C 58.308,13.884, 54.423,17.739, 51.576,22.588c-6.189,10.541-6.355,21.082-0.504,31.624l 192.753,353.378c 2.846,5.188, 6.776,9.284, 11.799,12.296
	c 5.022,3.012, 10.458,4.518, 16.316,4.518c 5.858,0, 11.294-1.506, 16.316-4.518C 293.271,416.881, 297.201,412.777, 300.047,407.59z" horiz-adv-x="534.588"  />
<glyph unicode="&#xe023;" d="M 686.545,138.182l0-73.553 c0-3.316-1.222-6.191-3.642-8.623c-2.42-2.42-5.295-3.642-8.623-3.642L 147.119,52.352 l0-73.553 
	c0-3.316-1.222-6.191-3.642-8.623c-2.42-2.42-5.295-3.642-8.623-3.642c-3.072,0-6.121,1.28-9.193,3.828L 3.444,92.975
	C 1.152,95.267,0,98.071,0,101.399C0,104.972, 1.152,107.916, 3.444,110.208l 122.601,122.601c 2.304,2.304, 5.236,3.444, 8.82,3.444c 3.316,0, 6.191-1.222, 8.623-3.642
	c 2.42-2.42, 3.642-5.295, 3.642-8.623l0-73.553 l 527.174,0 c 3.316,0, 6.191-1.222, 8.623-3.642C 685.335,144.372, 686.545,141.498, 686.545,138.182z
	 M 686.545,346.601c0-3.572-1.152-6.516-3.444-8.82L 560.512,215.18c-2.304-2.304-5.236-3.444-8.82-3.444c-3.316,0-6.191,1.222-8.623,3.642
	c-2.42,2.42-3.642,5.295-3.642,8.623L 539.427,297.553 L 12.265,297.553 c-3.316,0-6.191,1.222-8.623,3.642C 1.222,303.628,0,306.502,0,309.818l0,73.553 
	c0,3.316, 1.222,6.191, 3.642,8.623c 2.42,2.42, 5.295,3.642, 8.623,3.642l 527.174,0 l0,73.553 c0,3.572, 1.152,6.516, 3.444,8.82S 548.119,481.455, 551.692,481.455
	c 3.072,0, 6.121-1.28, 9.193-3.828l 122.217-122.217C 685.393,353.105, 686.545,350.173, 686.545,346.601z" horiz-adv-x="686.545"  />
<glyph unicode="&#xe024;" d="M 609.792,24.643L 609.792,306.087 c-7.814-8.793-16.25-16.851-25.288-24.186c-65.48-50.332-117.515-91.615-156.115-123.871c-12.455-10.507-22.606-18.688-30.419-24.554
	c-7.814-5.855-18.376-11.787-31.699-17.775c-13.312-5.977-25.834-8.982-37.565-8.982l-0.367,0 l-0.367,0 c-11.731,0-24.253,2.994-37.565,8.982
	c-13.312,5.977-23.875,11.91-31.699,17.775c-7.814,5.855-17.953,14.047-30.419,24.554c-38.6,32.245-90.635,73.539-156.115,123.871
	c-9.038,7.335-17.475,15.393-25.288,24.186l0-281.444 c0-3.172, 1.169-5.921, 3.484-8.248c 2.315-2.315, 5.064-3.484, 8.248-3.484L 598.061,12.922 
	c 3.172,0, 5.921,1.169, 8.248,3.484C 608.634,18.721, 609.792,21.471, 609.792,24.643z M 609.792,409.8L 609.792,413.83 L 609.792,418.783 c0,0-0.067,1.581-0.189,4.764
	s-0.479,4.708-1.102,4.586c-0.612-0.122-1.291,0.979-2.015,3.295C 605.763,433.742, 604.661,434.655, 603.203,434.165c-1.458-0.479-3.172-0.189-5.131,0.913
	L 58.635,435.078 c-3.172,0-5.921-1.169-8.248-3.484c-2.315-2.315-3.484-5.064-3.484-8.248c0-41.038, 17.953-75.731, 53.871-104.081
	c 47.149-37.142, 96.134-75.854, 146.955-116.168c 1.458-1.224, 5.743-4.831, 12.833-10.808s 12.711-10.563, 16.851-13.746s 9.583-7.023, 16.306-11.542
	s 12.889-7.88, 18.499-10.084s 10.874-3.295, 15.75-3.295l 0.367,0 L 328.715,153.633 c 4.886,0, 10.14,1.102, 15.75,3.295s 11.787,5.565, 18.499,10.084
	s 12.154,8.37, 16.306,11.542s 9.773,7.758, 16.851,13.746c 7.079,5.977, 11.353,9.583, 12.833,10.808c 50.81,40.314, 99.807,79.037, 146.955,116.168
	c 13.19,10.507, 25.478,24.621, 36.831,42.329C 604.115,379.325, 609.792,395.386, 609.792,409.8z M 656.696,423.357L 656.696,24.643 c0-16.128-5.743-29.93-17.23-41.416
	c-11.475-11.475-25.288-17.23-41.416-17.23L 58.635-33.992 c-16.128,0-29.93,5.743-41.416,17.23S0,8.515,0,24.643L0,423.357 
	c0,16.128, 5.743,29.93, 17.23,41.416S 42.518,481.992, 58.635,481.992L 598.061,481.992 c 16.128,0, 29.93-5.743, 41.416-17.23C 650.952,453.287, 656.696,439.474, 656.696,423.357z" horiz-adv-x="656.696"  />
<glyph unicode="&#xe025;" d="M 326.879,94.419l 42.707,42.707L 313.622,193.069l-42.707-42.707L 270.915,129.759 l 35.339,0 l0-35.339 L 326.879,94.419 z M 488.838,359.457c-3.929,3.929-7.969,3.795-12.143-0.367
	L 347.859,230.255c-4.174-4.174-4.296-8.214-0.367-12.143s 7.969-3.795, 12.143,0.367L 488.47,347.314C 492.644,351.488, 492.767,355.528, 488.838,359.457z
	 M 518.278,140.8l0-69.933 c0-29.195-10.374-54.172-31.11-74.908c-20.736-20.736-45.702-31.11-74.908-31.11L 106.017-35.139 c-29.195,0-54.172,10.374-74.908,31.11
	S0,41.661,0,70.867L0,377.121 c0,29.195, 10.374,54.172, 31.11,74.908S 76.811,483.139, 106.017,483.139l 306.254,0 c 15.46,0, 29.818-3.072, 43.064-9.194
	c 3.673-1.725, 5.888-4.541, 6.623-8.47c 0.735-4.174-0.367-7.736-3.317-10.674L 440.621,436.758c-3.439-3.439-7.368-4.419-11.787-2.95
	c-5.643,1.469-11.164,2.204-16.562,2.204L 106.017,436.024 c-16.195,0-30.063-5.766-41.594-17.308S 47.115,393.327, 47.115,377.121l0-306.254 
	c0-16.195, 5.766-30.063, 17.308-41.594s 25.4-17.308, 41.594-17.308l 306.254,0 c 16.195,0, 30.063,5.766, 41.594,17.308s 17.308,25.4, 17.308,41.594l0,46.381 
	c0,3.194, 1.102,5.888, 3.317,8.092l 23.552,23.552c 3.673,3.673, 7.969,4.541, 12.889,2.571C 515.829,149.515, 518.278,145.965, 518.278,140.8z M 482.95,412.461
	l 106.017-106.017l-247.363-247.363l-106.017,0 l0,106.017 L 482.95,412.461z M 646.378,363.876l-33.87-33.87l-106.017,106.017L 540.371,469.882c 6.867,6.867, 15.215,10.307, 25.032,10.307
	c 9.817,0, 18.154-3.439, 25.032-10.307l 55.953-55.953c 6.867-6.867, 10.307-15.215, 10.307-25.032S 653.256,370.744, 646.378,363.876z" horiz-adv-x="656.696"  />
<glyph unicode="&#xe026;" d="M 373.328,213.328c0-2.67-1.114-5.331-3.333-8.001L 263.67,99.002c-2.44-1.998-5-3.002-7.67-3.002s-5.22,1.004-7.67,3.002
	L 141.673,205.668c-3.333,3.564-4.106,7.439-2.329,11.666c 1.777,4.437, 5.11,6.666, 9.999,6.666l 64,0 L 213.343,341.328 c0,3.112, 1.004,5.672, 3.002,7.67
	c 1.998,1.998, 4.558,3.002, 7.67,3.002l 64,0 c 3.112,0, 5.672-1.004, 7.67-3.002c 1.998-1.998, 3.002-4.558, 3.002-7.67L 298.677,224 l 64,0 c 3.112,0, 5.672-1.004, 7.67-3.002
	S 373.328,216.44, 373.328,213.328z M 256,405.328c-32.888,0-63.217-8.112-90.995-24.325s-49.784-38.219-65.998-65.998s-24.325-58.107-24.325-90.995
	s 8.112-63.217, 24.325-90.995s 38.219-49.784, 65.998-65.998s 58.107-24.325, 90.995-24.325s 63.217,8.112, 90.995,24.325c 27.779,16.223, 49.784,38.219, 65.998,65.998
	c 16.223,27.779, 24.325,58.107, 24.325,90.995s-8.112,63.217-24.325,90.995c-16.223,27.779-38.219,49.784-65.998,65.998C 319.217,397.217, 288.888,405.328, 256,405.328
	z M 512,224c0-46.441-11.445-89.279-34.334-128.502s-53.941-70.285-93.174-93.174C 345.279-20.555, 302.441-32, 256-32
	s-89.279,11.445-128.502,34.334c-39.223,22.889-70.285,53.941-93.174,93.174S0,177.559,0,224s 11.445,89.279, 34.334,128.502s 53.941,70.285, 93.174,93.174
	S 209.559,480, 256,480s 89.279-11.445, 128.502-34.334s 70.285-53.941, 93.174-93.174S 512,270.441, 512,224z"  />
<glyph unicode="&#xe027;" d="M 252.503,427.035c-36.581,0-70.776-6.22-102.574-18.65s-57.093-29.293-75.852-50.568s-28.16-44.119-28.16-68.51
	c0-19.609, 6.34-38.498, 19.009-56.669S 95.406,198.672, 118.359,185.284l 34.783-20.088l-12.56-30.132c 8.138,4.782, 15.534,9.445, 22.245,13.987l 15.785,11.111
	l 19.009-3.584c 18.65-3.344, 36.94-5.022, 54.871-5.022c 36.581,0, 70.776,6.22, 102.574,18.65c 31.809,12.441, 57.093,29.293, 75.852,50.568
	s 28.16,44.119, 28.16,68.51s-9.379,47.224-28.16,68.51s-44.054,38.139-75.852,50.568C 323.268,420.815, 289.084,427.035, 252.503,427.035z M 252.503,472.93
	c 45.666,0, 87.933-8.192, 126.78-24.565s 69.523-38.672, 91.997-66.898s 33.716-58.945, 33.716-92.182S 493.764,225.34, 471.291,197.125
	c-22.474-28.214-53.139-50.503-91.997-66.898c-38.858-16.373-81.114-24.565-126.78-24.565c-20.567,0-41.614,1.917-63.129,5.73
	c-29.652-21.046-62.878-36.352-99.709-45.917c-8.606-2.157-18.89-4.063-30.851-5.73l-1.078,0 c-2.625,0-5.076,0.959-7.353,2.876
	c-2.266,1.917-3.649,4.423-4.118,7.527c-0.24,0.719-0.359,1.492-0.359,2.331s 0.065,1.612, 0.185,2.331
	c 0.12,0.719, 0.359,1.427, 0.719,2.157L 47.703,78.766c0,0, 0.425,0.654, 1.264,1.972c 0.839,1.318, 1.318,1.917, 1.427,1.797
	c 0.12-0.12, 0.654,0.468, 1.612,1.797s 1.427,1.852, 1.427,1.612C 54.642,87.372, 57.388,90.357, 61.691,94.9s 7.419,8.072, 9.325,10.578
	s 4.608,5.981, 8.072,10.403c 3.464,4.423, 6.46,9.031, 8.965,13.802c 2.506,4.782, 4.957,10.044, 7.353,15.785c-29.652,17.212-52.965,38.378-69.937,63.488
	S0,260.842,0,289.307c0,33.236, 11.231,63.956, 33.716,92.182s 53.139,50.503, 91.997,66.898S 206.826,472.93, 252.503,472.93z M 547.328,53.657
	c 2.386-5.73, 4.837-10.992, 7.353-15.785c 2.506-4.782, 5.501-9.379, 8.965-13.802c 3.464-4.423, 6.155-7.887, 8.072-10.403
	c 1.917-2.506, 5.022-6.035, 9.325-10.578c 4.303-4.543, 7.059-7.527, 8.257-8.965c 0.24-0.24, 0.719-0.773, 1.427-1.612
	c 0.719-0.839, 1.264-1.427, 1.612-1.797s 0.839-0.959, 1.427-1.797c 0.599-0.839, 1.013-1.492, 1.264-1.972L 595.914-14.853
	c0,0, 0.24-0.719, 0.719-2.157c 0.468-1.427, 0.534-2.211, 0.185-2.331s-0.468-0.893-0.359-2.331c-0.719-3.344-2.266-5.981-4.662-7.887
	c-2.386-1.917-5.022-2.756-7.887-2.506c-11.95,1.678-22.245,3.584-30.851,5.73c-36.82,9.565-70.057,24.87-99.709,45.917
	c-21.515-3.835-42.561-5.73-63.129-5.73c-64.795,0-121.235,15.785-169.287,47.344c 13.868-0.959, 24.391-1.427, 31.559-1.427
	c 38.498,0, 75.438,5.381, 110.832,16.144c 35.393,10.763, 66.952,26.177, 94.687,46.265c 29.892,21.994, 52.845,47.344, 68.859,76.037s 24.031,59.065, 24.031,91.103
	c0,18.41-2.756,36.581-8.257,54.523c 30.851-16.983, 55.231-38.258, 73.172-63.837s 26.896-53.074, 26.896-82.497c0-28.694-8.486-55.536-25.469-80.515
	C 600.282,91.98, 576.97,70.879, 547.328,53.657z" horiz-adv-x="642.723"  />
<glyph unicode="&#xe028;" d="M 254.865,231.825c0,20.105-7.108,37.265-21.333,51.482c-14.225,14.225-31.386,21.333-51.482,21.333s-37.265-7.108-51.482-21.333
	c-14.225-14.225-21.333-31.386-21.333-51.482s 7.108-37.265, 21.333-51.482c 14.225-14.225, 31.386-21.333, 51.482-21.333s 37.265,7.108, 51.482,21.333
	C 247.748,194.56, 254.865,211.721, 254.865,231.825z M 473.318,86.187c0,9.865-3.601,18.398-10.812,25.6c-7.202,7.202-15.735,10.812-25.6,10.812
	c-9.865,0-18.398-3.601-25.6-10.812c-7.202-7.202-10.812-15.735-10.812-25.6c0-10.052, 3.558-18.628, 10.667-25.745c 7.108-7.108, 15.693-10.667, 25.745-10.667
	c 10.052,0, 18.628,3.558, 25.745,10.667C 469.76,67.558, 473.318,76.134, 473.318,86.187z M 473.318,377.455c0,9.865-3.601,18.398-10.812,25.6
	C 455.305,410.266, 446.771,413.867, 436.907,413.867c-9.865,0-18.398-3.601-25.6-10.812c-7.202-7.202-10.812-15.735-10.812-25.6c0-10.052, 3.558-18.628, 10.667-25.745
	c 7.108-7.108, 15.693-10.667, 25.745-10.667c 10.052,0, 18.628,3.558, 25.745,10.667C 469.76,358.827, 473.318,367.411, 473.318,377.455z M 364.092,257.707l0-52.625 
	c0-1.894-0.666-3.746-1.988-5.547c-1.331-1.801-2.842-2.799-4.548-2.987l-44.092-6.827c-2.082-6.639-5.12-13.841-9.105-21.615
	c 6.451-9.105, 14.985-20.002, 25.6-32.708c 1.331-1.894, 1.988-3.789, 1.988-5.692c0-2.278-0.666-4.079-1.988-5.402
	c-4.361-5.692-12.186-14.174-23.467-25.455C 295.202,87.561, 287.761,81.92, 284.16,81.92c-2.082,0-4.079,0.666-5.973,1.988l-32.708,25.6
	c-7.014-3.601-14.319-6.545-21.905-8.815c-2.082-20.48-4.267-35.174-6.545-44.092c-1.331-4.548-4.173-6.827-8.533-6.827l-52.907,0 
	c-2.082,0-3.985,0.708-5.692,2.133c-1.707,1.425-2.654,3.081-2.842,4.975l-6.545,43.52c-6.451,1.894-13.559,4.838-21.333,8.815l-33.562-25.318
	C 84.292,82.586, 82.398,81.92, 79.932,81.92c-2.082,0-4.079,0.759-5.973,2.278c-27.307,25.225-40.96,40.388-40.96,45.508c0,1.707, 0.666,3.507, 1.988,5.402
	c 1.894,2.654, 5.786,7.68, 11.665,15.078c 5.879,7.398, 10.334,13.175, 13.372,17.348c-4.361,8.346-7.68,16.119-9.958,23.322l-43.238,6.827
	c-1.894,0.188-3.507,1.092-4.838,2.705C 0.666,202.001,0,203.853,0,205.935L0,258.56 c0,1.894, 0.666,3.746, 1.988,5.547
	c 1.331,1.801, 2.842,2.799, 4.548,2.987l 44.092,6.827c 2.082,6.639, 5.12,13.841, 9.105,21.615c-6.451,9.105-14.985,20.002-25.6,32.708
	c-1.331,2.082-1.988,3.985-1.988,5.692C 32.145,336.213, 32.802,338.108, 34.133,339.627c 4.173,5.692, 11.947,14.131, 23.322,25.318s 18.867,16.785, 22.468,16.785
	c 2.082,0, 4.079-0.666, 5.973-1.988l 32.708-25.6c 6.451,3.413, 13.747,6.451, 21.905,9.105c 2.082,20.48, 4.267,35.081, 6.545,43.802
	c 1.331,4.548, 4.173,6.827, 8.533,6.827l 52.907,0 C 210.586,413.867, 212.48,413.158, 214.187,411.733c 1.707-1.425, 2.654-3.081, 2.842-4.975l 6.545-43.52
	c 6.451-1.894, 13.559-4.838, 21.333-8.815L 278.468,379.733c 1.519,1.331, 3.413,1.988, 5.692,1.988c 2.082,0, 4.079-0.759, 5.973-2.278
	c 27.307-25.225, 40.96-40.388, 40.96-45.508c0-1.707-0.666-3.507-1.988-5.402c-2.278-3.038-6.255-8.158-11.947-15.36c-5.692-7.202-9.958-12.894-12.8-17.067
	c 4.361-9.105, 7.586-16.879, 9.668-23.322l 43.238-6.545c 1.894-0.375, 3.507-1.374, 4.838-2.987C 363.426,261.641, 364.092,259.789, 364.092,257.707z
	 M 546.133,106.095l0-39.825 c0-3.038-14.131-5.973-42.385-8.815c-2.278-5.12-5.12-10.052-8.533-14.788c 9.668-21.427, 14.507-34.509, 14.507-39.253
	c0-0.759-0.375-1.425-1.135-1.988c-23.134-13.466-34.893-20.198-35.268-20.198c-1.519,0-5.879,4.454-13.082,13.372
	c-7.202,8.909-12.134,15.36-14.788,19.345c-3.789-0.375-6.639-0.572-8.533-0.572s-4.745,0.188-8.533,0.572c-2.654-3.985-7.586-10.428-14.788-19.345
	c-7.202-8.909-11.571-13.372-13.082-13.372c-0.375,0-12.134,6.733-35.268,20.198c-0.759,0.572-1.135,1.229-1.135,1.988
	c0,4.745, 4.838,17.826, 14.507,39.253c-3.413,4.745-6.255,9.668-8.533,14.788c-28.254,2.842-42.385,5.786-42.385,8.815l0,39.825 
	c0,3.038, 14.131,5.973, 42.385,8.815c 2.466,5.495, 5.308,10.428, 8.533,14.788c-9.668,21.427-14.507,34.509-14.507,39.253c0,0.759, 0.375,1.425, 1.135,1.988
	c 0.759,0.375, 4.079,2.278, 9.958,5.692c 5.879,3.413, 11.469,6.639, 16.785,9.668c 5.308,3.038, 8.158,4.548, 8.533,4.548
	c 1.519,0, 5.879-4.412, 13.082-13.227c 7.202-8.815, 12.134-15.215, 14.788-19.2c 3.789,0.375, 6.639,0.572, 8.533,0.572s 4.745-0.188, 8.533-0.572
	c 9.668,13.466, 18.398,24.081, 26.172,31.855l 1.707,0.572c 0.759,0, 12.518-6.639, 35.268-19.908c 0.759-0.572, 1.135-1.229, 1.135-1.988
	c0-4.745-4.838-17.826-14.507-39.253c 3.226-4.361, 6.067-9.293, 8.533-14.788C 532.002,112.068, 546.133,109.133, 546.133,106.095z M 546.133,397.372L 546.133,357.547 
	c0-3.038-14.131-5.973-42.385-8.815c-2.278-5.12-5.12-10.052-8.533-14.788c 9.668-21.427, 14.507-34.509, 14.507-39.253c0-0.759-0.375-1.425-1.135-1.988
	c-23.134-13.466-34.893-20.198-35.268-20.198c-1.519,0-5.879,4.454-13.082,13.372c-7.202,8.909-12.134,15.36-14.788,19.345
	c-3.789-0.375-6.639-0.572-8.533-0.572s-4.745,0.188-8.533,0.572C 425.719,301.227, 420.787,294.775, 413.585,285.867c-7.202-8.909-11.571-13.372-13.082-13.372
	c-0.375,0-12.134,6.733-35.268,20.198c-0.759,0.572-1.135,1.229-1.135,1.988c0,4.745, 4.838,17.826, 14.507,39.253
	c-3.413,4.745-6.255,9.668-8.533,14.788C 341.811,351.573, 327.68,354.509, 327.68,357.547L 327.68,397.372 c0,3.038, 14.131,5.973, 42.385,8.815
	c 2.466,5.495, 5.308,10.428, 8.533,14.788c-9.668,21.427-14.507,34.509-14.507,39.253c0,0.759, 0.375,1.425, 1.135,1.988
	c 0.759,0.375, 4.079,2.278, 9.958,5.692c 5.879,3.413, 11.469,6.639, 16.785,9.668C 397.278,480.614, 400.119,482.133, 400.495,482.133
	c 1.519,0, 5.879-4.412, 13.082-13.227c 7.202-8.815, 12.134-15.215, 14.788-19.2c 3.789,0.375, 6.639,0.572, 8.533,0.572s 4.745-0.188, 8.533-0.572
	c 9.668,13.466, 18.398,24.081, 26.172,31.855L 473.318,482.133c 0.759,0, 12.518-6.639, 35.268-19.908c 0.759-0.572, 1.135-1.229, 1.135-1.988
	c0-4.745-4.838-17.826-14.507-39.253c 3.226-4.361, 6.067-9.293, 8.533-14.788C 532.002,403.345, 546.133,400.401, 546.133,397.372z" horiz-adv-x="546.133"  />
<glyph unicode="&#xe029;" d="M 294.4,315.835L 294.4,195.052 c0-2.519-0.813-4.584-2.43-6.201c-1.617-1.617-3.69-2.43-6.201-2.43L 199.493,186.421 c-2.519,0-4.584,0.813-6.201,2.43
	c-1.617,1.617-2.43,3.69-2.43,6.201l0,17.254 c0,2.519, 0.813,4.584, 2.43,6.201c 1.617,1.617, 3.69,2.43, 6.201,2.43L 259.893,220.936 L 259.893,315.835 
	c0,2.519, 0.813,4.584, 2.43,6.201c 1.617,1.617, 3.69,2.43, 6.201,2.43L 285.769,324.466 c 2.519,0, 4.584-0.813, 6.201-2.43C 293.595,320.427, 294.4,318.354, 294.4,315.835z
	 M 406.561,220.936c0,26.6-6.558,51.135-19.675,73.606c-13.117,22.471-30.915,40.261-53.386,53.386s-46.998,19.675-73.606,19.675S 208.758,361.045, 186.287,347.92
	s-40.261-30.915-53.386-53.386S 113.225,247.536, 113.225,220.936s 6.558-51.135, 19.675-73.606s 30.915-40.261, 53.386-53.386s 46.998-19.675, 73.606-19.675
	s 51.135,6.558, 73.606,19.675s 40.261,30.915, 53.386,53.386C 399.994,169.801, 406.561,194.337, 406.561,220.936z M 466.952,220.936c0-37.563-9.257-72.216-27.77-103.936
	c-18.513-31.72-43.626-56.848-75.362-75.362S 297.456,13.869, 259.893,13.869s-72.216,9.257-103.936,27.77s-56.848,43.626-75.362,75.362S 52.825,183.373, 52.825,220.936
	S 62.082,293.153, 80.595,324.872s 43.626,56.848, 75.362,75.362S 222.33,427.995, 259.893,427.995s 72.216-9.257, 103.936-27.77s 56.848-43.626, 75.362-75.362
	C 457.704,293.153, 466.952,258.499, 466.952,220.936z" horiz-adv-x="520.127"  />
<glyph unicode="&#xe02a;" d="M 244.685,221.862c0-7.398-2.701-13.798-8.102-19.2L 45.427,11.52c-5.402-5.402-11.802-8.102-19.2-8.102s-13.798,2.701-19.2,8.102
	S-1.075,23.322,-1.075,30.72L-1.075,413.005 c0,7.398, 2.701,13.798, 8.102,19.2s 11.802,8.102, 19.2,8.102s 13.798-2.701, 19.2-8.102L 236.582,241.062
	C 241.984,235.661, 244.685,229.261, 244.685,221.862z" horiz-adv-x="320"  />
<glyph unicode="&#xe02b;" d="M 297.891,273.655c 24.613,0, 45.67-8.741, 63.144-26.224C 378.517,229.949, 387.258,208.891, 387.258,184.278s-8.741-45.67-26.224-63.144
	C 343.561,103.652, 322.504,94.911, 297.891,94.911s-45.67,8.741-63.144,26.224C 217.265,138.617, 208.524,159.674, 208.524,184.278s 8.741,45.67, 26.224,63.144
	S 273.278,273.655, 297.891,273.655z M 516.347,402.735c 21.932,0, 40.653-7.754, 56.162-23.273s 23.273-34.239, 23.273-56.162l0-278.035 c0-21.932-7.754-40.653-23.273-56.162
	c-15.518-15.518-34.239-23.273-56.162-23.273L 79.434-34.169 c-21.932,0-40.653,7.754-56.162,23.273C 7.754,4.622,0,23.333,0,45.265L0,323.291 
	c0,21.932, 7.754,40.653, 23.273,56.162s 34.239,23.273, 56.162,23.273L 148.945,402.725 L 164.771,444.933c 3.928,10.138, 11.115,18.879, 21.569,26.224S 207.49,482.169, 218.456,482.169l 158.878,0 
	c 10.966,0, 21.672-3.668, 32.116-11.013C 419.896,463.811, 427.082,455.070, 431.011,444.933L 446.836,402.735L 516.347,402.735 z M 297.891,45.265c 38.27,0, 71.010,13.601, 98.211,40.802
	s 40.802,59.941, 40.802,98.211s-13.601,71.010-40.802,98.211S 336.161,323.291, 297.891,323.291s-71.010-13.601-98.211-40.802S 158.878,222.557, 158.878,184.278
	s 13.601-71.010, 40.802-98.211S 259.621,45.265, 297.891,45.265z" horiz-adv-x="595.782"  />
<glyph unicode="&#xe02c;" d="M 306.728,245.153c0,3.082-0.994,5.622-2.972,7.61c-1.988,1.988-4.518,2.972-7.61,2.972c-14.547,0-26.995-5.18-37.356-15.541
	c-10.35-10.35-15.541-22.809-15.541-37.356c0-3.082, 0.994-5.622, 2.972-7.61c 1.988-1.988, 4.518-2.972, 7.61-2.972c 3.082,0, 5.622,0.994, 7.61,2.972
	c 1.988,1.988, 2.972,4.518, 2.972,7.61c0,8.814, 3.082,16.304, 9.256,22.478s 13.663,9.256, 22.478,9.256c 3.082,0, 5.622,0.994, 7.61,2.972
	C 305.744,239.541, 306.728,242.071, 306.728,245.153z M 380.777,202.185c0-23.361-8.262-43.299-24.787-59.824c-16.535-16.535-36.472-24.787-59.824-24.787
	s-43.299,8.262-59.824,24.787c-16.535,16.535-24.787,36.472-24.787,59.824s 8.262,43.299, 24.787,59.824c 16.535,16.535, 36.472,24.787, 59.824,24.787
	s 43.299-8.262, 59.824-24.787C 372.515,245.494, 380.777,225.546, 380.777,202.185z M 42.315,12.464l 507.703,0 l0,42.315 l-507.703,0 L 42.315,12.464 z M 423.083,202.185
	c0,35.037-12.398,64.954-37.185,89.741S 331.194,329.111, 296.157,329.111s-64.954-12.398-89.741-37.185s-37.185-54.704-37.185-89.741s 12.398-64.954, 37.185-89.741
	s 54.704-37.185, 89.741-37.185s 64.954,12.398, 89.741,37.185S 423.083,167.148, 423.083,202.185z M 84.611,414.394l 126.926,0 L 211.536,456.699 l-126.926,0 L 84.611,414.394 z M 42.315,350.926l 507.703,0 L 550.008,389.928 
	l0,45.618 l-273.679,0 l-21.153-42.315L 42.315,393.231 L 42.315,350.926 z M 592.314,435.536l0-423.083 c0-11.686-4.136-21.645-12.398-29.917c-8.262-8.262-18.231-12.398-29.917-12.398
	l-507.703,0 c-11.686,0-21.645,4.136-29.917,12.398C 4.136-9.191,0,0.778,0,12.464L0,435.536 C0,447.222, 4.136,457.201, 12.398,465.453S 30.63,477.852, 42.315,477.852l 507.703,0 
	c 11.686,0, 21.645-4.136, 29.917-12.398S 592.314,447.222, 592.314,435.536z" horiz-adv-x="592.314"  />
<glyph unicode="&#xe02d;" d="M 243.217-4.569c0,3.055-1.527,4.565-4.565,4.565c-11.238,0-20.905,4.044-28.993,12.149c-8.088,8.088-12.149,17.764-12.149,28.993
	c0,3.055-1.527,4.565-4.565,4.565s-4.565-1.527-4.565-4.565c0-13.902, 4.903-25.765, 14.718-35.571s 21.669-14.718, 35.571-14.718
	C 241.69-9.151, 243.217-7.624, 243.217-4.569z M 53.213,77.716l 370.862,0 c-31.232,34.478-54.715,73.667-70.43,117.578
	c-15.716,43.902-23.569,90.051-23.569,138.431c0,48.761-30.477,73.138-91.431,73.138s-91.431-24.376-91.431-73.138
	c0-48.38-7.862-94.529-23.569-138.431S 84.445,112.193, 53.213,77.716z M 476.36,77.716c0-9.91-3.619-18.484-10.856-25.713
	c-7.237-7.237-15.803-10.856-25.713-10.856L 311.791,41.138 c0-20.194-7.142-37.428-21.426-51.712c-14.293-14.293-31.527-21.426-51.712-21.426s-37.428,7.142-51.712,21.426
	c-14.293,14.293-21.426,31.527-21.426,51.712L 37.506,41.138 c-9.91,0-18.484,3.619-25.713,10.856S 0.929,67.805, 0.929,77.716c 36.187,30.668, 63.523,68.521, 82.007,113.569
	S 110.644,283.809, 110.644,333.707c0,31.432, 9.147,56.381, 27.431,74.856s 43.433,29.627, 75.429,33.428c-1.527,3.428-2.291,6.951-2.291,10.57
	c0,7.619, 2.664,14.093, 8.001,19.43S 231.025,480, 238.644,480S 252.737,477.336, 258.074,471.999s 8.001-11.811, 8.001-19.43
	c0-3.619-0.764-7.142-2.291-10.57c 31.996-3.81, 57.144-14.952, 75.429-33.428c 18.284-18.484, 27.431-43.433, 27.431-74.856
	c0-49.907, 9.242-97.384, 27.709-142.431C 412.837,146.237, 440.164,108.375, 476.36,77.716z" horiz-adv-x="477.288"  />
<glyph unicode="&#xe02e;" d="M 99.182,145.633c0,3.103, 1.034,5.172, 3.103,8.276L 262.708,314.331c 2.069,2.069, 5.172,3.103, 8.276,3.103S 276.156,316.4, 279.27,314.331l 160.413-160.413c 2.069-2.069, 3.103-5.172, 3.103-8.276
	s-1.034-5.172-3.103-8.276L 422.087,119.761c-2.069-2.069-5.172-3.103-8.276-3.103c-3.103,0-5.172,1.034-8.276,3.103L 270.984,255.336L 135.408,119.761c-2.069-2.069-5.172-3.103-8.276-3.103
	S 121.95,117.692, 119.881,119.761l-17.596,17.596C 100.216,139.426, 99.182,142.529, 99.182,145.633z" horiz-adv-x="543.347"  />
<glyph unicode="&#xe02f;" d="M 277.543,220.765c0-2.234-0.853-4.197-2.568-5.919L 155.082,94.953c-1.714-1.714-3.693-2.568-5.919-2.568
	s-4.197,0.853-5.919,2.568l-12.87,12.87c-1.714,1.714-2.568,3.693-2.568,5.919s 0.853,4.197, 2.568,5.919l 101.112,101.112l-101.112,101.112
	C 128.659,323.6, 127.806,325.562, 127.806,327.796S 128.659,332.001, 130.382,333.715l 12.87,12.87C 144.966,348.3, 146.928,349.153, 149.163,349.153s 4.197-0.853, 5.919-2.568
	L 274.975,226.684C 276.689,224.97, 277.543,222.999, 277.543,220.765z" horiz-adv-x="387.879"  />
<glyph unicode="&#xe030;" d="M 269.607,327.928c0-2.219-0.853-4.174-2.552-5.88l-100.484-100.484l 100.484-100.484c 1.707-1.707, 2.552-3.669, 2.552-5.88
	s-0.853-4.174-2.552-5.88L 254.27,96.543c-1.707-1.707-3.669-2.552-5.88-2.552s-4.174,0.853-5.88,2.552L 123.353,215.692
	C 121.654,217.391, 120.801,219.353, 120.801,221.572c0,2.219, 0.853,4.174, 2.552,5.88L 242.51,346.601C 244.208,348.3, 246.171,349.153, 248.382,349.153
	s 4.174-0.853, 5.88-2.552L 267.055,333.808C 268.753,332.11, 269.607,330.147, 269.607,327.928z" horiz-adv-x="395.636"  />
<glyph unicode="&#xe031;" d="M 443.131,288.794c0-2.988-1.149-5.632-3.448-7.941L 278.925,120.106C 276.616,117.807, 273.972,116.658, 270.984,116.658
	s-5.632,1.149-7.941,3.448L 102.285,280.874C 99.986,283.173, 98.847,285.806, 98.847,288.794S 99.986,294.437, 102.285,296.735l 17.251,17.251
	C 121.835,316.285, 124.479,317.435, 127.467,317.435S 133.11,316.285, 135.408,313.987l 135.576-135.576l 135.576,135.576C 408.858,316.285, 411.512,317.435, 414.501,317.435
	s 5.632-1.149, 7.941-3.448L 439.683,296.735C 441.981,294.437, 443.131,291.793, 443.131,288.794z" horiz-adv-x="543.347"  />
<glyph unicode="&#x20;" horiz-adv-x="256" />
</font>
</defs>
</svg>
