<?xml version="1.0" encoding="utf-8"?>
<!-- Generator: Adobe Illustrator 17.0.0, SVG Export Plug-In . SVG Version: 6.00 Build 0)  -->
<!DOCTYPE svg PUBLIC "-//W3C//DTD SVG 1.1//EN" "http://www.w3.org/Graphics/SVG/1.1/DTD/svg11.dtd">
<svg version="1.1" id="Calque_1" xmlns="http://www.w3.org/2000/svg" xmlns:xlink="http://www.w3.org/1999/xlink" x="0px" y="0px"
	 width="64px" height="60.5px" viewBox="0 0 64 60.5" enable-background="new 0 0 64 60.5" xml:space="preserve">
<path d="M29.867,29.333c0-2.356-0.833-4.367-2.5-6.033c-1.667-1.667-3.678-2.5-6.033-2.5s-4.367,0.833-6.033,2.5
	c-1.667,1.667-2.5,3.678-2.5,6.033s0.833,4.367,2.5,6.033c1.667,1.667,3.678,2.5,6.033,2.5s4.367-0.833,6.033-2.5
	C29.033,33.7,29.867,31.689,29.867,29.333z M55.467,46.4c0-1.156-0.422-2.156-1.267-3c-0.844-0.844-1.844-1.267-3-1.267
	c-1.156,0-2.156,0.422-3,1.267c-0.844,0.844-1.267,1.844-1.267,3c0,1.178,0.417,2.183,1.25,3.017c0.833,0.833,1.839,1.25,3.017,1.25
	c1.178,0,2.183-0.417,3.017-1.25C55.05,48.583,55.467,47.578,55.467,46.4z M55.467,12.267c0-1.156-0.422-2.156-1.267-3
	C53.356,8.422,52.356,8,51.2,8c-1.156,0-2.156,0.422-3,1.267c-0.844,0.844-1.267,1.844-1.267,3c0,1.178,0.417,2.183,1.25,3.017
	c0.833,0.833,1.839,1.25,3.017,1.25c1.178,0,2.183-0.417,3.017-1.25C55.05,14.45,55.467,13.444,55.467,12.267z M42.667,26.3v6.167
	c0,0.222-0.078,0.439-0.233,0.65c-0.156,0.211-0.333,0.328-0.533,0.35l-5.167,0.8c-0.244,0.778-0.6,1.622-1.067,2.533
	c0.756,1.067,1.756,2.344,3,3.833c0.156,0.222,0.233,0.444,0.233,0.667c0,0.267-0.078,0.478-0.233,0.633
	c-0.511,0.667-1.428,1.661-2.75,2.983C34.594,46.239,33.722,46.9,33.3,46.9c-0.244,0-0.478-0.078-0.7-0.233l-3.833-3
	c-0.822,0.422-1.678,0.767-2.567,1.033c-0.244,2.4-0.5,4.122-0.767,5.167c-0.156,0.533-0.489,0.8-1,0.8h-6.2
	c-0.244,0-0.467-0.083-0.667-0.25c-0.2-0.167-0.311-0.361-0.333-0.583l-0.767-5.1c-0.756-0.222-1.589-0.567-2.5-1.033l-3.933,2.967
	C9.878,46.822,9.656,46.9,9.367,46.9c-0.244,0-0.478-0.089-0.7-0.267c-3.2-2.956-4.8-4.733-4.8-5.333c0-0.2,0.078-0.411,0.233-0.633
	c0.222-0.311,0.678-0.9,1.367-1.767c0.689-0.867,1.211-1.544,1.567-2.033c-0.511-0.978-0.9-1.889-1.167-2.733l-5.067-0.8
	c-0.222-0.022-0.411-0.128-0.567-0.317C0.078,32.828,0,32.611,0,32.367V26.2c0-0.222,0.078-0.439,0.233-0.65
	c0.156-0.211,0.333-0.328,0.533-0.35l5.167-0.8c0.244-0.778,0.6-1.622,1.067-2.533c-0.756-1.067-1.756-2.344-3-3.833
	c-0.156-0.244-0.233-0.467-0.233-0.667C3.767,17.1,3.844,16.878,4,16.7c0.489-0.667,1.4-1.656,2.733-2.967s2.211-1.967,2.633-1.967
	c0.244,0,0.478,0.078,0.7,0.233l3.833,3c0.756-0.4,1.611-0.756,2.567-1.067c0.244-2.4,0.5-4.111,0.767-5.133
	c0.156-0.533,0.489-0.8,1-0.8h6.2C24.678,8,24.9,8.083,25.1,8.25c0.2,0.167,0.311,0.361,0.333,0.583l0.767,5.1
	c0.756,0.222,1.589,0.567,2.5,1.033L32.633,12c0.178-0.156,0.4-0.233,0.667-0.233c0.244,0,0.478,0.089,0.7,0.267
	c3.2,2.956,4.8,4.733,4.8,5.333c0,0.2-0.078,0.411-0.233,0.633c-0.267,0.356-0.733,0.956-1.4,1.8c-0.667,0.844-1.167,1.511-1.5,2
	c0.511,1.067,0.889,1.978,1.133,2.733l5.067,0.767c0.222,0.044,0.411,0.161,0.567,0.35C42.589,25.839,42.667,26.056,42.667,26.3z
	 M64,44.067v4.667c0,0.356-1.656,0.7-4.967,1.033c-0.267,0.6-0.6,1.178-1,1.733c1.133,2.511,1.7,4.044,1.7,4.6
	c0,0.089-0.044,0.167-0.133,0.233c-2.711,1.578-4.089,2.367-4.133,2.367c-0.178,0-0.689-0.522-1.533-1.567
	c-0.844-1.044-1.422-1.8-1.733-2.267c-0.444,0.044-0.778,0.067-1,0.067s-0.556-0.022-1-0.067c-0.311,0.467-0.889,1.222-1.733,2.267
	c-0.844,1.044-1.356,1.567-1.533,1.567c-0.044,0-1.422-0.789-4.133-2.367c-0.089-0.067-0.133-0.144-0.133-0.233
	c0-0.556,0.567-2.089,1.7-4.6c-0.4-0.556-0.733-1.133-1-1.733c-3.311-0.333-4.967-0.678-4.967-1.033v-4.667
	c0-0.356,1.656-0.7,4.967-1.033c0.289-0.644,0.622-1.222,1-1.733c-1.133-2.511-1.7-4.044-1.7-4.6c0-0.089,0.044-0.167,0.133-0.233
	c0.089-0.044,0.478-0.267,1.167-0.667c0.689-0.4,1.344-0.778,1.967-1.133c0.622-0.356,0.956-0.533,1-0.533
	c0.178,0,0.689,0.517,1.533,1.55c0.844,1.033,1.422,1.783,1.733,2.25c0.444-0.044,0.778-0.067,1-0.067s0.556,0.022,1,0.067
	c1.133-1.578,2.156-2.822,3.067-3.733l0.2-0.067c0.089,0,1.467,0.778,4.133,2.333c0.089,0.067,0.133,0.144,0.133,0.233
	c0,0.556-0.567,2.089-1.7,4.6c0.378,0.511,0.711,1.089,1,1.733C62.344,43.367,64,43.711,64,44.067z M64,9.933V14.6
	c0,0.356-1.656,0.7-4.967,1.033c-0.267,0.6-0.6,1.178-1,1.733c1.133,2.511,1.7,4.044,1.7,4.6c0,0.089-0.044,0.167-0.133,0.233
	c-2.711,1.578-4.089,2.367-4.133,2.367c-0.178,0-0.689-0.522-1.533-1.567c-0.844-1.044-1.422-1.8-1.733-2.267
	c-0.444,0.044-0.778,0.067-1,0.067s-0.556-0.022-1-0.067C49.889,21.2,49.311,21.956,48.467,23c-0.844,1.044-1.356,1.567-1.533,1.567
	c-0.044,0-1.422-0.789-4.133-2.367c-0.089-0.067-0.133-0.144-0.133-0.233c0-0.556,0.567-2.089,1.7-4.6
	c-0.4-0.556-0.733-1.133-1-1.733C40.056,15.3,38.4,14.956,38.4,14.6V9.933c0-0.356,1.656-0.7,4.967-1.033
	c0.289-0.644,0.622-1.222,1-1.733c-1.133-2.511-1.7-4.044-1.7-4.6c0-0.089,0.044-0.167,0.133-0.233
	c0.089-0.044,0.478-0.267,1.167-0.667c0.689-0.4,1.344-0.778,1.967-1.133C46.556,0.178,46.889,0,46.933,0
	c0.178,0,0.689,0.517,1.533,1.55c0.844,1.033,1.422,1.783,1.733,2.25c0.444-0.044,0.778-0.067,1-0.067s0.556,0.022,1,0.067
	c1.133-1.578,2.156-2.822,3.067-3.733L55.467,0c0.089,0,1.467,0.778,4.133,2.333c0.089,0.067,0.133,0.144,0.133,0.233
	c0,0.556-0.567,2.089-1.7,4.6c0.378,0.511,0.711,1.089,1,1.733C62.344,9.233,64,9.578,64,9.933z"/>
</svg>
