<?xml version="1.0" encoding="utf-8"?>
<!-- Generator: Adobe Illustrator 17.0.0, SVG Export Plug-In . SVG Version: 6.00 Build 0)  -->
<!DOCTYPE svg PUBLIC "-//W3C//DTD SVG 1.1//EN" "http://www.w3.org/Graphics/SVG/1.1/DTD/svg11.dtd">
<svg version="1.1" id="Calque_1" xmlns="http://www.w3.org/2000/svg" xmlns:xlink="http://www.w3.org/1999/xlink" x="0px" y="0px"
	 width="59.733px" height="47.604px" viewBox="0 0 59.733 47.604" enable-background="new 0 0 59.733 47.604" xml:space="preserve">
<path d="M23.467,4.933c-3.4,0-6.578,0.578-9.533,1.733s-5.306,2.722-7.05,4.7s-2.617,4.1-2.617,6.367
	c0,1.822,0.589,3.578,1.767,5.267S8.867,26.156,11,27.4l3.233,1.867l-1.167,2.8c0.756-0.444,1.444-0.878,2.067-1.3l1.467-1.033
	l1.767,0.333c1.733,0.311,3.433,0.467,5.1,0.467c3.4,0,6.578-0.578,9.533-1.733c2.956-1.156,5.306-2.722,7.05-4.7
	s2.617-4.1,2.617-6.367s-0.872-4.389-2.617-6.367s-4.094-3.544-7.05-4.7C30.044,5.511,26.867,4.933,23.467,4.933z M23.467,0.667
	c4.244,0,8.172,0.761,11.783,2.283s6.461,3.594,8.55,6.217s3.133,5.478,3.133,8.567S45.889,23.678,43.8,26.3
	c-2.089,2.622-4.939,4.694-8.55,6.217c-3.611,1.522-7.539,2.283-11.783,2.283c-1.911,0-3.867-0.178-5.867-0.533
	c-2.756,1.956-5.844,3.378-9.267,4.267c-0.8,0.2-1.756,0.378-2.867,0.533h-0.1c-0.244,0-0.472-0.089-0.683-0.267
	c-0.211-0.178-0.339-0.411-0.383-0.7c-0.022-0.067-0.033-0.139-0.033-0.217s0.006-0.15,0.017-0.217
	c0.011-0.067,0.033-0.133,0.067-0.2L4.433,37.3c0,0,0.039-0.061,0.117-0.183c0.078-0.122,0.122-0.178,0.133-0.167
	c0.011,0.011,0.061-0.044,0.15-0.167s0.133-0.172,0.133-0.15C5.078,36.5,5.333,36.222,5.733,35.8s0.689-0.75,0.867-0.983
	s0.428-0.556,0.75-0.967c0.322-0.411,0.6-0.839,0.833-1.283c0.233-0.444,0.461-0.933,0.683-1.467c-2.756-1.6-4.922-3.567-6.5-5.9
	S0,20.378,0,17.733c0-3.089,1.044-5.944,3.133-8.567s4.939-4.694,8.55-6.217S19.222,0.667,23.467,0.667z M50.867,39.633
	c0.222,0.533,0.45,1.022,0.683,1.467c0.233,0.444,0.511,0.872,0.833,1.283c0.322,0.411,0.572,0.733,0.75,0.967
	c0.178,0.233,0.467,0.561,0.867,0.983c0.4,0.422,0.656,0.7,0.767,0.833c0.022,0.022,0.067,0.072,0.133,0.15
	c0.067,0.078,0.117,0.133,0.15,0.167s0.078,0.089,0.133,0.167c0.056,0.078,0.094,0.139,0.117,0.183L55.383,46
	c0,0,0.022,0.067,0.067,0.2c0.044,0.133,0.05,0.206,0.017,0.217s-0.044,0.083-0.033,0.217c-0.067,0.311-0.211,0.556-0.433,0.733
	c-0.222,0.178-0.467,0.256-0.733,0.233c-1.111-0.156-2.067-0.333-2.867-0.533c-3.422-0.889-6.511-2.311-9.267-4.267
	c-2,0.356-3.956,0.533-5.867,0.533c-6.022,0-11.267-1.467-15.733-4.4c1.289,0.089,2.267,0.133,2.933,0.133
	c3.578,0,7.011-0.5,10.3-1.5c3.289-1,6.222-2.433,8.8-4.3c2.778-2.044,4.911-4.4,6.4-7.067s2.233-5.489,2.233-8.467
	c0-1.711-0.256-3.4-0.767-5.067c2.867,1.578,5.133,3.556,6.8,5.933s2.5,4.933,2.5,7.667c0,2.667-0.789,5.161-2.367,7.483
	C55.789,36.072,53.622,38.033,50.867,39.633z"/>
</svg>
