<?xml version="1.0" encoding="utf-8"?>
<!-- Generator: Adobe Illustrator 17.0.0, SVG Export Plug-In . SVG Version: 6.00 Build 0)  -->
<!DOCTYPE svg PUBLIC "-//W3C//DTD SVG 1.1//EN" "http://www.w3.org/Graphics/SVG/1.1/DTD/svg11.dtd">
<svg version="1.1" id="Calque_1" xmlns="http://www.w3.org/2000/svg" xmlns:xlink="http://www.w3.org/1999/xlink" x="0px" y="0px"
	 width="55.467px" height="55.467px" viewBox="0 0 55.467 55.467" enable-background="new 0 0 55.467 55.467" xml:space="preserve">
<path d="M29.2,44.567c0-0.467-0.05-0.917-0.15-1.35c-0.1-0.433-0.206-0.833-0.317-1.2c-0.111-0.367-0.306-0.75-0.583-1.15
	c-0.278-0.4-0.511-0.739-0.7-1.017c-0.189-0.278-0.483-0.606-0.883-0.983c-0.4-0.378-0.706-0.661-0.917-0.85
	c-0.211-0.189-0.567-0.472-1.067-0.85s-0.844-0.633-1.033-0.767c-0.189-0.133-0.556-0.389-1.1-0.767
	c-0.544-0.378-0.883-0.611-1.017-0.7c-0.378-0.044-0.933-0.067-1.667-0.067c-1.2,0-2.378,0.078-3.533,0.233s-2.356,0.433-3.6,0.833
	c-1.244,0.4-2.333,0.911-3.267,1.533c-0.933,0.622-1.7,1.456-2.3,2.5c-0.6,1.044-0.9,2.233-0.9,3.567
	c0,1.511,0.394,2.861,1.183,4.05s1.822,2.122,3.1,2.8c1.278,0.678,2.617,1.183,4.017,1.517c1.4,0.333,2.811,0.5,4.233,0.5
	c1.311,0,2.561-0.139,3.75-0.417c1.189-0.278,2.306-0.711,3.35-1.3c1.044-0.589,1.872-1.406,2.483-2.45
	C28.894,47.189,29.2,45.967,29.2,44.567z M25.2,15.833c0-1.333-0.183-2.75-0.55-4.25s-0.889-2.95-1.567-4.35
	c-0.678-1.4-1.611-2.556-2.8-3.467C19.094,2.856,17.767,2.4,16.3,2.4c-2.067,0-3.667,0.767-4.8,2.3s-1.7,3.367-1.7,5.5
	c0,1.044,0.128,2.144,0.383,3.3s0.65,2.311,1.183,3.467c0.533,1.156,1.156,2.194,1.867,3.117c0.711,0.922,1.578,1.672,2.6,2.25
	c1.022,0.578,2.1,0.867,3.233,0.867c2.156,0,3.717-0.672,4.683-2.017S25.2,18.056,25.2,15.833z M20.833,0H35.4l-4.5,2.633h-4.5
	c1.578,1,2.8,2.4,3.667,4.2s1.3,3.678,1.3,5.633c0,1.644-0.256,3.106-0.767,4.383c-0.511,1.278-1.133,2.306-1.867,3.083
	s-1.467,1.494-2.2,2.15c-0.733,0.656-1.356,1.333-1.867,2.033c-0.511,0.7-0.767,1.45-0.767,2.25c0,0.578,0.183,1.144,0.55,1.7
	c0.367,0.556,0.844,1.089,1.433,1.6c0.589,0.511,1.239,1.044,1.95,1.6s1.422,1.172,2.133,1.85c0.711,0.678,1.361,1.411,1.95,2.2
	c0.589,0.789,1.067,1.733,1.433,2.833c0.367,1.1,0.55,2.283,0.55,3.55c0,3.556-1.556,6.689-4.667,9.4
	c-3.378,2.911-8.044,4.367-14,4.367c-1.311,0-2.639-0.111-3.983-0.333c-1.344-0.222-2.7-0.594-4.067-1.117
	c-1.367-0.522-2.572-1.167-3.617-1.933S1.667,50.328,1,49.117c-0.667-1.211-1-2.561-1-4.05c0-1.356,0.411-2.856,1.233-4.5
	c0.711-1.422,1.778-2.65,3.2-3.683s3.033-1.822,4.833-2.367c1.8-0.544,3.522-0.944,5.167-1.2c1.644-0.256,3.311-0.406,5-0.45
	c-1.422-1.844-2.133-3.5-2.133-4.967c0-0.267,0.022-0.528,0.067-0.783s0.1-0.472,0.167-0.65c0.067-0.178,0.156-0.417,0.267-0.717
	c0.111-0.3,0.189-0.539,0.233-0.717C17.144,25.144,16.367,25.2,15.7,25.2c-3.311,0-6.15-1.089-8.517-3.267s-3.55-4.911-3.55-8.2
	c0-3.111,1.056-5.894,3.167-8.35s4.711-4.028,7.8-4.717C16.689,0.222,18.767,0,20.833,0z M55.467,8.533V12.8h-8.533v8.533h-4.267
	V12.8h-8.533V8.533h8.533V0h4.267v8.533H55.467z"/>
</svg>
