<?xml version="1.0" encoding="utf-8"?>
<!-- Generator: Adobe Illustrator 17.0.0, SVG Export Plug-In . SVG Version: 6.00 Build 0)  -->
<!DOCTYPE svg PUBLIC "-//W3C//DTD SVG 1.1//EN" "http://www.w3.org/Graphics/SVG/1.1/DTD/svg11.dtd">
<svg version="1.1" id="Calque_1" xmlns="http://www.w3.org/2000/svg" xmlns:xlink="http://www.w3.org/1999/xlink" x="0px" y="0px"
	 width="54.604px" height="42.767px" viewBox="0 0 54.604 42.767" enable-background="new 0 0 54.604 42.767" xml:space="preserve">
<path d="M46.933,24.633v16c0,0.578-0.211,1.078-0.633,1.5s-0.922,0.633-1.5,0.633H32v-12.8h-8.533v12.8h-12.8
	c-0.578,0-1.078-0.211-1.5-0.633s-0.633-0.922-0.633-1.5v-16c0-0.022,0.006-0.056,0.017-0.1s0.017-0.078,0.017-0.1l19.167-15.8
	l19.167,15.8C46.922,24.478,46.933,24.544,46.933,24.633z M54.367,22.333L52.3,24.8c-0.178,0.2-0.411,0.322-0.7,0.367h-0.1
	c-0.289,0-0.522-0.078-0.7-0.233L27.733,5.7L4.667,24.933c-0.267,0.178-0.533,0.256-0.8,0.233C3.578,25.122,3.344,25,3.167,24.8
	L1.1,22.333c-0.178-0.222-0.256-0.483-0.233-0.783c0.022-0.3,0.144-0.539,0.367-0.717L25.2,0.867C25.911,0.289,26.756,0,27.733,0
	s1.822,0.289,2.533,0.867l8.133,6.8v-6.5c0-0.311,0.1-0.567,0.3-0.767c0.2-0.2,0.456-0.3,0.767-0.3h6.4c0.311,0,0.567,0.1,0.767,0.3
	c0.2,0.2,0.3,0.456,0.3,0.767v13.6l7.3,6.067c0.222,0.178,0.344,0.417,0.367,0.717S54.544,22.111,54.367,22.333z"/>
</svg>
