<?xml version="1.0" encoding="utf-8"?>
<!-- Generator: Adobe Illustrator 17.0.0, SVG Export Plug-In . SVG Version: 6.00 Build 0)  -->
<!DOCTYPE svg PUBLIC "-//W3C//DTD SVG 1.1//EN" "http://www.w3.org/Graphics/SVG/1.1/DTD/svg11.dtd">
<svg version="1.1" id="Calque_1" xmlns="http://www.w3.org/2000/svg" xmlns:xlink="http://www.w3.org/1999/xlink" x="0px" y="0px"
	 width="20.086px" height="16.381px" viewBox="0 0 20.086 16.381" enable-background="new 0 0 20.086 16.381" xml:space="preserve">
<path fill="#010101" d="M19.775,5.309c-0.095-0.104-0.229-0.164-0.37-0.164h-6.444c0.025-0.81-0.017-2.97-1.096-4.143
	c-0.485-0.528-1.108-0.795-1.852-0.795c-0.027,0-0.05,0.011-0.076,0.015C9.911,0.218,9.888,0.207,9.861,0.207
	c-0.743,0-1.366,0.268-1.852,0.795C6.93,2.175,6.887,4.335,6.913,5.145H0.66c-0.141,0-0.276,0.06-0.371,0.164
	S0.149,5.554,0.163,5.694c0.026,0.27,0.663,6.622,1.84,8.452c1.258,1.958,3.044,2.062,8.014,2.062c0,0,0.001,0,0.001,0
	c0.011,0,0.02,0,0.03,0c0,0,0.001,0,0.001,0c4.969,0,6.754-0.104,8.013-2.062c1.177-1.83,1.813-8.182,1.841-8.452
	C19.917,5.554,19.87,5.414,19.775,5.309z M8.745,1.679c0.292-0.318,0.658-0.472,1.116-0.472c0.027,0,0.05-0.011,0.076-0.015
	c0.026,0.004,0.049,0.015,0.076,0.015c0.458,0,0.823,0.154,1.115,0.471c0.771,0.836,0.866,2.613,0.833,3.467H7.913
	C7.879,4.293,7.972,2.52,8.745,1.679z M18.85,6.145c-0.052,0.458-0.122,1.02-0.208,1.627c-0.063-0.029-0.132-0.047-0.206-0.047h-17
	c-0.006,0-0.012,0.003-0.018,0.004c-0.083-0.59-0.151-1.137-0.202-1.584H18.85z M17.221,13.605
	c-0.934,1.453-2.196,1.603-7.188,1.603s-6.255-0.149-7.189-1.603c-0.527-0.82-0.97-2.941-1.277-4.879h16.869
	c0.023,0,0.043-0.01,0.065-0.013C18.194,10.654,17.749,12.783,17.221,13.605z"/>
</svg>
