<?xml version="1.0" encoding="utf-8"?>
<!-- Generator: Adobe Illustrator 17.0.0, SVG Export Plug-In . SVG Version: 6.00 Build 0)  -->
<!DOCTYPE svg PUBLIC "-//W3C//DTD SVG 1.1//EN" "http://www.w3.org/Graphics/SVG/1.1/DTD/svg11.dtd">
<svg version="1.1" id="Calque_1" xmlns="http://www.w3.org/2000/svg" xmlns:xlink="http://www.w3.org/1999/xlink" x="0px" y="0px"
	 width="51.2px" height="51.2px" viewBox="0 0 51.2 51.2" enable-background="new 0 0 51.2 51.2" xml:space="preserve">
<path d="M42.8,20.2c0-0.622-0.2-1.133-0.6-1.533l-3.033-3c-0.422-0.422-0.922-0.633-1.5-0.633c-0.578,0-1.078,0.211-1.5,0.633
	l-13.6,13.567L15.033,21.7c-0.422-0.422-0.922-0.633-1.5-0.633s-1.078,0.211-1.5,0.633L9,24.7c-0.4,0.4-0.6,0.911-0.6,1.533
	c0,0.6,0.2,1.1,0.6,1.5L21.067,39.8c0.422,0.422,0.922,0.633,1.5,0.633c0.6,0,1.111-0.211,1.533-0.633l18.1-18.1
	C42.6,21.3,42.8,20.8,42.8,20.2z M51.2,25.6c0,4.644-1.144,8.928-3.433,12.85s-5.394,7.028-9.317,9.317
	C34.528,50.056,30.244,51.2,25.6,51.2s-8.928-1.144-12.85-3.433c-3.922-2.289-7.028-5.394-9.317-9.317S0,30.244,0,25.6
	s1.144-8.928,3.433-12.85s5.394-7.028,9.317-9.317S20.956,0,25.6,0s8.928,1.144,12.85,3.433s7.028,5.394,9.317,9.317
	S51.2,20.956,51.2,25.6z"/>
</svg>
