<?xml version="1.0" encoding="utf-8"?>
<!-- Generator: Adobe Illustrator 17.0.0, SVG Export Plug-In . SVG Version: 6.00 Build 0)  -->
<!DOCTYPE svg PUBLIC "-//W3C//DTD SVG 1.1//EN" "http://www.w3.org/Graphics/SVG/1.1/DTD/svg11.dtd">
<svg version="1.1" id="Calque_1" xmlns="http://www.w3.org/2000/svg" xmlns:xlink="http://www.w3.org/1999/xlink" x="0px" y="0px"
	 width="46.933px" height="46.933px" viewBox="0 0 46.933 46.933" enable-background="new 0 0 46.933 46.933" xml:space="preserve">
<path d="M46.933,37.067c0,0.6-0.111,1.383-0.333,2.35s-0.456,1.728-0.7,2.283c-0.467,1.111-1.822,2.289-4.067,3.533
	c-2.089,1.133-4.156,1.7-6.2,1.7c-0.6,0-1.183-0.039-1.75-0.117S32.678,46.6,31.967,46.4s-1.239-0.361-1.583-0.483
	c-0.344-0.122-0.961-0.35-1.85-0.683C27.644,44.9,27.1,44.7,26.9,44.633c-2.178-0.778-4.122-1.7-5.833-2.767
	c-2.844-1.756-5.783-4.15-8.817-7.183s-5.428-5.972-7.183-8.817C4,24.156,3.078,22.211,2.3,20.033c-0.067-0.2-0.267-0.744-0.6-1.633
	s-0.561-1.506-0.683-1.85s-0.283-0.872-0.483-1.583c-0.2-0.711-0.339-1.35-0.417-1.917S0,11.9,0,11.3c0-2.044,0.567-4.111,1.7-6.2
	c1.244-2.244,2.422-3.6,3.533-4.067c0.556-0.244,1.317-0.478,2.283-0.7S9.267,0,9.867,0c0.311,0,0.544,0.033,0.7,0.1
	c0.4,0.133,0.989,0.978,1.767,2.533c0.244,0.422,0.578,1.022,1,1.8S14.144,5.917,14.5,6.55c0.356,0.633,0.7,1.228,1.033,1.783
	C15.6,8.422,15.794,8.7,16.117,9.167c0.322,0.467,0.561,0.861,0.717,1.183c0.156,0.322,0.233,0.639,0.233,0.95
	c0,0.444-0.317,1-0.95,1.667c-0.633,0.667-1.322,1.278-2.067,1.833s-1.433,1.144-2.067,1.767s-0.95,1.133-0.95,1.533
	c0,0.2,0.056,0.45,0.167,0.75c0.111,0.3,0.206,0.528,0.283,0.683c0.078,0.156,0.233,0.422,0.467,0.8s0.361,0.589,0.383,0.633
	c1.689,3.044,3.622,5.656,5.8,7.833s4.789,4.111,7.833,5.8c0.044,0.022,0.256,0.15,0.633,0.383s0.644,0.389,0.8,0.467
	c0.156,0.078,0.383,0.172,0.683,0.283c0.3,0.111,0.55,0.167,0.75,0.167c0.4,0,0.911-0.317,1.533-0.95
	c0.622-0.633,1.211-1.322,1.767-2.067c0.556-0.744,1.167-1.433,1.833-2.067c0.667-0.633,1.222-0.95,1.667-0.95
	c0.311,0,0.628,0.078,0.95,0.233c0.322,0.156,0.717,0.394,1.183,0.717s0.744,0.517,0.833,0.583c0.556,0.333,1.15,0.678,1.783,1.033
	c0.633,0.356,1.339,0.744,2.117,1.167s1.378,0.756,1.8,1c1.556,0.778,2.4,1.367,2.533,1.767
	C46.9,36.522,46.933,36.756,46.933,37.067z"/>
</svg>
