<?xml version="1.0" encoding="utf-8"?>
<!-- Generator: Adobe Illustrator 17.0.0, SVG Export Plug-In . SVG Version: 6.00 Build 0)  -->
<!DOCTYPE svg PUBLIC "-//W3C//DTD SVG 1.1//EN" "http://www.w3.org/Graphics/SVG/1.1/DTD/svg11.dtd">
<svg version="1.1" id="Calque_1" xmlns="http://www.w3.org/2000/svg" xmlns:xlink="http://www.w3.org/1999/xlink" x="0px" y="0px"
	 width="64px" height="51.2px" viewBox="0 0 64 51.2" enable-background="new 0 0 64 51.2" xml:space="preserve">
<path d="M21.333,14.933c0,1.778-0.622,3.289-1.867,4.533s-2.756,1.867-4.533,1.867s-3.289-0.622-4.533-1.867
	s-1.867-2.756-1.867-4.533S9.156,11.644,10.4,10.4s2.756-1.867,4.533-1.867s3.289,0.622,4.533,1.867S21.333,13.156,21.333,14.933z
	 M55.467,27.733v14.933H8.533v-6.4L19.2,25.6l5.333,5.333L41.6,13.867L55.467,27.733z M58.667,4.267H5.333
	c-0.289,0-0.539,0.106-0.75,0.317s-0.317,0.461-0.317,0.75v40.533c0,0.289,0.106,0.539,0.317,0.75
	c0.211,0.211,0.461,0.317,0.75,0.317h53.333c0.289,0,0.539-0.106,0.75-0.317c0.211-0.211,0.317-0.461,0.317-0.75V5.333
	c0-0.289-0.106-0.539-0.317-0.75C59.206,4.372,58.956,4.267,58.667,4.267z M64,5.333v40.533c0,1.467-0.522,2.722-1.567,3.767
	s-2.3,1.567-3.767,1.567H5.333c-1.467,0-2.722-0.522-3.767-1.567S0,47.333,0,45.867V5.333c0-1.467,0.522-2.722,1.567-3.767
	S3.867,0,5.333,0h53.333c1.467,0,2.722,0.522,3.767,1.567S64,3.867,64,5.333z"/>
</svg>
