<?xml version="1.0" encoding="utf-8"?>
<!-- Generator: Adobe Illustrator 17.0.0, SVG Export Plug-In . SVG Version: 6.00 Build 0)  -->
<!DOCTYPE svg PUBLIC "-//W3C//DTD SVG 1.1//EN" "http://www.w3.org/Graphics/SVG/1.1/DTD/svg11.dtd">
<svg version="1.1" id="Calque_1" xmlns="http://www.w3.org/2000/svg" xmlns:xlink="http://www.w3.org/1999/xlink" x="0px" y="0px"
	 width="89px" height="69px" viewBox="-14.459 -10.125 89 69" enable-background="new -14.459 -10.125 89 69" xml:space="preserve">
<path d="M51.2,36.267v4.267c0,0.578-0.211,1.078-0.633,1.5s-0.922,0.633-1.5,0.633H2.133c-0.578,0-1.078-0.211-1.5-0.633
	S0,41.111,0,40.533v-4.267c0-0.578,0.211-1.078,0.633-1.5s0.922-0.633,1.5-0.633h46.933c0.578,0,1.078,0.211,1.5,0.633
	S51.2,35.689,51.2,36.267z M51.2,19.2v4.267c0,0.578-0.211,1.078-0.633,1.5s-0.922,0.633-1.5,0.633H2.133
	c-0.578,0-1.078-0.211-1.5-0.633C0.211,24.544,0,24.044,0,23.467V19.2c0-0.578,0.211-1.078,0.633-1.5s0.922-0.633,1.5-0.633h46.933
	c0.578,0,1.078,0.211,1.5,0.633C50.989,18.122,51.2,18.622,51.2,19.2z M51.2,2.133V6.4c0,0.578-0.211,1.078-0.633,1.5
	c-0.422,0.422-0.922,0.633-1.5,0.633H2.133c-0.578,0-1.078-0.211-1.5-0.633S0,6.978,0,6.4V2.133c0-0.578,0.211-1.078,0.633-1.5
	S1.556,0,2.133,0h46.933c0.578,0,1.078,0.211,1.5,0.633S51.2,1.556,51.2,2.133z"/>
</svg>
