<?xml version="1.0" encoding="utf-8"?>
<!-- Generator: Adobe Illustrator 18.0.0, SVG Export Plug-In . SVG Version: 6.00 Build 0)  -->
<!DOCTYPE svg PUBLIC "-//W3C//DTD SVG 1.1//EN" "http://www.w3.org/Graphics/SVG/1.1/DTD/svg11.dtd">
<svg version="1.1" id="Capa_1" xmlns="http://www.w3.org/2000/svg" xmlns:xlink="http://www.w3.org/1999/xlink" x="0px" y="0px"
	 viewBox="40.2 0 135.6 146" enable-background="new 40.2 0 135.6 146" xml:space="preserve">
<path d="M172.7,24c-2.1-2.1-4.5-3.1-7.3-3.1h-10.4V13c0-3.6-1.3-6.7-3.8-9.2c-2.6-2.6-5.6-3.8-9.2-3.8h-5.2c-3.6,0-6.7,1.3-9.2,3.8
	c-2.6,2.6-3.8,5.6-3.8,9.2v7.8H92.4V13c0-3.6-1.3-6.7-3.8-9.2S82.9,0,79.3,0h-5.2c-3.6,0-6.7,1.3-9.2,3.8s-3.8,5.6-3.8,9.2v7.8H50.6
	c-2.8,0-5.3,1-7.3,3.1s-3.1,4.5-3.1,7.3v104.3c0,2.8,1,5.3,3.1,7.3c2.1,2.1,4.5,3.1,7.3,3.1h114.7c2.8,0,5.3-1,7.3-3.1
	c2.1-2.1,3.1-4.5,3.1-7.3V31.3C175.8,28.5,174.8,26,172.7,24z M134.1,13c0-0.8,0.2-1.4,0.7-1.9s1.1-0.7,1.9-0.7h5.2
	c0.8,0,1.4,0.2,1.9,0.7c0.5,0.5,0.7,1.1,0.7,1.9v23.5c0,0.8-0.2,1.4-0.7,1.9c-0.5,0.5-1.1,0.7-1.9,0.7h-5.2c-0.8,0-1.4-0.2-1.9-0.7
	s-0.7-1.1-0.7-1.9V13z M71.5,13c0-0.8,0.2-1.4,0.7-1.9s1.1-0.7,1.9-0.7h5.2c0.8,0,1.4,0.2,1.9,0.7c0.5,0.5,0.7,1.1,0.7,1.9v23.5
	c0,0.8-0.2,1.4-0.7,1.9s-1.1,0.7-1.9,0.7h-5.2c-0.8,0-1.4-0.2-1.9-0.7c-0.5-0.5-0.7-1.1-0.7-1.9V13z M165.4,135.6H50.6V52.1h114.7
	V135.6z"/>
</svg>
