<?xml version="1.0" encoding="utf-8"?>
<!-- Generator: Adobe Illustrator 18.0.0, SVG Export Plug-In . SVG Version: 6.00 Build 0)  -->
<!DOCTYPE svg PUBLIC "-//W3C//DTD SVG 1.1//EN" "http://www.w3.org/Graphics/SVG/1.1/DTD/svg11.dtd">
<svg version="1.1" id="Calque_1" xmlns="http://www.w3.org/2000/svg" xmlns:xlink="http://www.w3.org/1999/xlink" x="0px" y="0px"
	 viewBox="-4.5 -3.8 73 72.6" enable-background="new -4.5 -3.8 73 72.6" xml:space="preserve">
<path fill="#FFE8D2" d="M33.4,31c0-0.3-0.1-0.6-0.3-0.8c-0.2-0.2-0.5-0.3-0.8-0.3c-1.5,0-2.7,0.5-3.8,1.6c-1,1-1.6,2.3-1.6,3.8
	c0,0.3,0.1,0.6,0.3,0.8c0.2,0.2,0.5,0.3,0.8,0.3s0.6-0.1,0.8-0.3s0.3-0.5,0.3-0.8c0-0.9,0.3-1.6,0.9-2.3s1.4-0.9,2.3-0.9
	c0.3,0,0.6-0.1,0.8-0.3C33.3,31.6,33.4,31.3,33.4,31z M40.9,35.3c0,2.4-0.8,4.4-2.5,6c-1.7,1.7-3.7,2.5-6,2.5s-4.4-0.8-6-2.5
	c-1.7-1.7-2.5-3.7-2.5-6c0-2.4,0.8-4.4,2.5-6c1.7-1.7,3.7-2.5,6-2.5s4.4,0.8,6,2.5C40.1,31,40.9,33,40.9,35.3z M6.8,54.5H58v-4.3
	H6.8C6.8,50.2,6.8,54.5,6.8,54.5z M45.2,35.3c0-3.5-1.2-6.5-3.8-9s-5.5-3.8-9-3.8s-6.5,1.2-9,3.8s-3.8,5.5-3.8,9s1.2,6.5,3.8,9
	s5.5,3.8,9,3.8s6.5-1.2,9-3.8S45.2,38.9,45.2,35.3z M11,13.9h12.8V9.7H11V13.9z M6.8,20.3H58v-3.9v-4.6H30.4l-2.1,4.3H6.8V20.3z
	 M62.2,11.8v42.7c0,1.2-0.4,2.2-1.2,3c-0.8,0.8-1.8,1.2-3,1.2H6.8c-1.2,0-2.2-0.4-3-1.2c-0.8-0.8-1.2-1.8-1.2-3V11.8
	c0-1.2,0.4-2.2,1.2-3s1.8-1.2,3-1.2H58c1.2,0,2.2,0.4,3,1.2S62.2,10.6,62.2,11.8z"/>
</svg>
