<?xml version="1.0" encoding="utf-8"?>
<!-- Generator: Adobe Illustrator 17.0.0, SVG Export Plug-In . SVG Version: 6.00 Build 0)  -->
<!DOCTYPE svg PUBLIC "-//W3C//DTD SVG 1.1//EN" "http://www.w3.org/Graphics/SVG/1.1/DTD/svg11.dtd">
<svg version="1.1" id="Calque_1" xmlns="http://www.w3.org/2000/svg" xmlns:xlink="http://www.w3.org/1999/xlink" x="0px" y="0px"
	 width="51.2px" height="51.2px" viewBox="0 0 51.2 51.2" enable-background="new 0 0 51.2 51.2" xml:space="preserve">
<path d="M37.333,26.667c0,0.267-0.111,0.533-0.333,0.8L26.367,38.1c-0.244,0.2-0.5,0.3-0.767,0.3s-0.522-0.1-0.767-0.3
	L14.167,27.433c-0.333-0.356-0.411-0.744-0.233-1.167c0.178-0.444,0.511-0.667,1-0.667h6.4V13.867c0-0.311,0.1-0.567,0.3-0.767
	c0.2-0.2,0.456-0.3,0.767-0.3h6.4c0.311,0,0.567,0.1,0.767,0.3c0.2,0.2,0.3,0.456,0.3,0.767V25.6h6.4c0.311,0,0.567,0.1,0.767,0.3
	S37.333,26.356,37.333,26.667z M25.6,7.467c-3.289,0-6.322,0.811-9.1,2.433s-4.978,3.822-6.6,6.6s-2.433,5.811-2.433,9.1
	s0.811,6.322,2.433,9.1s3.822,4.978,6.6,6.6s5.811,2.433,9.1,2.433s6.322-0.811,9.1-2.433c2.778-1.622,4.978-3.822,6.6-6.6
	c1.622-2.778,2.433-5.811,2.433-9.1s-0.811-6.322-2.433-9.1c-1.622-2.778-3.822-4.978-6.6-6.6C31.922,8.278,28.889,7.467,25.6,7.467
	z M51.2,25.6c0,4.644-1.144,8.928-3.433,12.85s-5.394,7.028-9.317,9.317C34.528,50.056,30.244,51.2,25.6,51.2
	s-8.928-1.144-12.85-3.433c-3.922-2.289-7.028-5.394-9.317-9.317S0,30.244,0,25.6s1.144-8.928,3.433-12.85s5.394-7.028,9.317-9.317
	S20.956,0,25.6,0s8.928,1.144,12.85,3.433s7.028,5.394,9.317,9.317S51.2,20.956,51.2,25.6z"/>
</svg>
