<?xml version="1.0" encoding="utf-8"?>
<!-- Generator: Adobe Illustrator 18.0.0, SVG Export Plug-In . SVG Version: 6.00 Build 0)  -->
<!DOCTYPE svg PUBLIC "-//W3C//DTD SVG 1.1//EN" "http://www.w3.org/Graphics/SVG/1.1/DTD/svg11.dtd">
<svg version="1.1" id="Capa_1" xmlns="http://www.w3.org/2000/svg" xmlns:xlink="http://www.w3.org/1999/xlink" x="0px" y="0px"
	 viewBox="0 0 216 146" enable-background="new 0 0 216 146" xml:space="preserve">
<g>
	<path d="M48,10.4c2.9,0,5.3,1,7.4,3.1c2,2,3.1,4.5,3.1,7.4c0,3.9-1.7,6.9-5.2,9V133c0,0.7-0.3,1.3-0.8,1.8
		c-0.5,0.5-1.1,0.8-1.8,0.8h-5.2c-0.7,0-1.3-0.3-1.8-0.8c-0.5-0.5-0.8-1.1-0.8-1.8V29.8c-3.5-2.1-5.2-5.1-5.2-9c0-2.9,1-5.3,3.1-7.4
		C42.7,11.4,45.2,10.4,48,10.4 M48,4.4c-4.4,0-8.5,1.7-11.6,4.8c-3.2,3.2-4.8,7.2-4.8,11.6c0,4.8,1.8,8.9,5.2,12V133
		c0,2.3,0.9,4.4,2.5,6.1c1.6,1.6,3.8,2.5,6.1,2.5h5.2c2.3,0,4.4-0.9,6.1-2.5c1.6-1.6,2.5-3.8,2.5-6.1V32.8c3.4-3.1,5.2-7.1,5.2-12
		c0-4.4-1.7-8.5-4.8-11.6C56.5,6.1,52.5,4.4,48,4.4L48,4.4z"/>
	<path d="M109.7,26.9c5.2,0,10.1,0.7,14.5,2.1c4.8,1.5,10.5,3.8,17,6.8c2.9,1.4,6.2,2.1,9.8,2.1c3.6,0,7.4-0.7,11.5-2
		c3.8-1.3,7.2-2.7,10-4.3c2.4-1.4,4.8-2.6,7-3.7c0.4-0.2,0.7-0.3,0.9-0.5v60.3c-0.2,0.2-0.6,0.3-1,0.6l0,0l0,0
		c-10.7,5.8-19.9,8.7-27.2,8.7c-2.6,0-5.3-0.5-8.1-1.5c-3-1.1-5.7-2.2-7.9-3.5c-2.8-1.6-6.4-3.1-10.6-4.4c-4.3-1.4-8.9-2.1-13.4-2.1
		c-11.3,0-24.3,4-39.7,12.1V39c0.6-0.4,2.1-1.3,5.7-3.1C90.1,29.9,100.7,26.9,109.7,26.9 M181.2,20.9c-0.7,0-2.2,0.6-4.4,1.7
		c-2.3,1.1-4.6,2.4-7.2,3.8c-2.5,1.4-5.5,2.7-9,3.8c-3.4,1.1-6.6,1.7-9.6,1.7c-2.7,0-5.1-0.5-7.2-1.5c-6.8-3.2-12.8-5.6-17.8-7.2
		c-5.1-1.6-10.5-2.4-16.3-2.4c-10,0-21.5,3.3-34.3,9.8c-3.2,1.6-5.3,2.7-6.4,3.5c-1.7,1.2-2.5,2.7-2.5,4.5v60.5
		c0,1.4,0.5,2.6,1.5,3.7c1,1,2.3,1.5,3.7,1.5c0.9,0,1.8-0.2,2.7-0.7c14.8-7.9,27.4-11.9,37.8-11.9c4,0,7.8,0.6,11.6,1.8
		c3.8,1.2,6.9,2.5,9.4,3.9c2.5,1.4,5.4,2.7,8.8,3.9c3.4,1.2,6.8,1.8,10.1,1.8c8.4,0,18.4-3.1,30.1-9.5c1.5-0.8,2.5-1.5,3.2-2.2
		c0.7-0.7,1-1.8,1-3.1V26.1c0-1.4-0.5-2.6-1.5-3.7C183.8,21.4,182.6,20.9,181.2,20.9L181.2,20.9z"/>
</g>
</svg>
