<?xml version="1.0" encoding="utf-8"?>
<!-- Generator: Adobe Illustrator 18.0.0, SVG Export Plug-In . SVG Version: 6.00 Build 0)  -->
<!DOCTYPE svg PUBLIC "-//W3C//DTD SVG 1.1//EN" "http://www.w3.org/Graphics/SVG/1.1/DTD/svg11.dtd">
<svg version="1.1" id="Capa_1" xmlns="http://www.w3.org/2000/svg" xmlns:xlink="http://www.w3.org/1999/xlink" x="0px" y="0px"
	 viewBox="35 11 146 125" enable-background="new 35 11 146 125" xml:space="preserve">
<g>
	<path d="M53.2,46.9H37.6c-0.7,0-1.3,0.3-1.8,0.8c-0.5,0.5-0.8,1.1-0.8,1.8v15.6c0,0.7,0.3,1.3,0.8,1.8s1.1,0.8,1.8,0.8h15.6
		c0.7,0,1.3-0.3,1.8-0.8s0.8-1.1,0.8-1.8V49.5c0-0.7-0.3-1.3-0.8-1.8C54.6,47.2,54,46.9,53.2,46.9z"/>
	<path d="M53.2,109.5H37.6c-0.7,0-1.3,0.3-1.8,0.8s-0.8,1.1-0.8,1.8v15.6c0,0.7,0.3,1.3,0.8,1.8s1.1,0.8,1.8,0.8h15.6
		c0.7,0,1.3-0.3,1.8-0.8s0.8-1.1,0.8-1.8v-15.6c0-0.7-0.3-1.3-0.8-1.8C54.6,109.8,54,109.5,53.2,109.5z"/>
	<path d="M53.2,78.2H37.6c-0.7,0-1.3,0.3-1.8,0.8S35,80.1,35,80.8v15.6c0,0.7,0.3,1.3,0.8,1.8c0.5,0.5,1.1,0.8,1.8,0.8h15.6
		c0.7,0,1.3-0.3,1.8-0.8s0.8-1.1,0.8-1.8V80.8c0-0.7-0.3-1.3-0.8-1.8S54,78.2,53.2,78.2z"/>
	<path d="M53.2,15.6H37.6c-0.7,0-1.3,0.3-1.8,0.8c-0.5,0.5-0.8,1.1-0.8,1.8v15.6c0,0.7,0.3,1.3,0.8,1.8s1.1,0.8,1.8,0.8h15.6
		c0.7,0,1.3-0.3,1.8-0.8c0.5-0.5,0.8-1.1,0.8-1.8V18.2c0-0.7-0.3-1.3-0.8-1.8C54.6,15.9,54,15.6,53.2,15.6z"/>
	<path d="M178.4,109.5H68.9c-0.7,0-1.3,0.3-1.8,0.8s-0.8,1.1-0.8,1.8v15.6c0,0.7,0.3,1.3,0.8,1.8s1.1,0.8,1.8,0.8h109.5
		c0.7,0,1.3-0.3,1.8-0.8c0.5-0.5,0.8-1.1,0.8-1.8v-15.6c0-0.7-0.3-1.3-0.8-1.8C179.7,109.8,179.1,109.5,178.4,109.5z"/>
	<path d="M178.4,78.2H68.9c-0.7,0-1.3,0.3-1.8,0.8s-0.8,1.1-0.8,1.8v15.6c0,0.7,0.3,1.3,0.8,1.8c0.5,0.5,1.1,0.8,1.8,0.8h109.5
		c0.7,0,1.3-0.3,1.8-0.8c0.5-0.5,0.8-1.1,0.8-1.8V80.8c0-0.7-0.3-1.3-0.8-1.8C179.7,78.5,179.1,78.2,178.4,78.2z"/>
	<path d="M180.2,16.4c-0.5-0.5-1.1-0.8-1.8-0.8H68.9c-0.7,0-1.3,0.3-1.8,0.8c-0.5,0.5-0.8,1.1-0.8,1.8v15.6c0,0.7,0.3,1.3,0.8,1.8
		s1.1,0.8,1.8,0.8h109.5c0.7,0,1.3-0.3,1.8-0.8c0.5-0.5,0.8-1.1,0.8-1.8V18.2C181,17.5,180.7,16.9,180.2,16.4z"/>
	<path d="M178.4,46.9H68.9c-0.7,0-1.3,0.3-1.8,0.8c-0.5,0.5-0.8,1.1-0.8,1.8v15.6c0,0.7,0.3,1.3,0.8,1.8c0.5,0.5,1.1,0.8,1.8,0.8
		h109.5c0.7,0,1.3-0.3,1.8-0.8c0.5-0.5,0.8-1.1,0.8-1.8V49.5c0-0.7-0.3-1.3-0.8-1.8C179.7,47.2,179.1,46.9,178.4,46.9z"/>
</g>
</svg>
