<?xml version="1.0" encoding="utf-8"?>
<!-- Generator: Adobe Illustrator 18.0.0, SVG Export Plug-In . SVG Version: 6.00 Build 0)  -->
<!DOCTYPE svg PUBLIC "-//W3C//DTD SVG 1.1//EN" "http://www.w3.org/Graphics/SVG/1.1/DTD/svg11.dtd">
<svg version="1.1" id="Capa_1" xmlns="http://www.w3.org/2000/svg" xmlns:xlink="http://www.w3.org/1999/xlink" x="0px" y="0px"
	 viewBox="61.1 15.6 91.6 112.4" enable-background="new 61.1 15.6 91.6 112.4" xml:space="preserve">
<path d="M152.6,70.1c-1.5-1.5-3.4-2.3-5.5-2.3h-2.6V52.1c0-10-3.6-18.6-10.8-25.7c-7.2-7.2-15.8-10.8-25.7-10.8s-18.6,3.6-25.7,10.8
	c-7.2,7.2-10.8,15.8-10.8,25.7v15.6h-2.6c-2.2,0-4,0.8-5.5,2.3c-1.5,1.5-2.3,3.4-2.3,5.5v46.9c0,2.2,0.8,4,2.3,5.5
	c1.5,1.5,3.4,2.3,5.5,2.3h78.2c2.2,0,4-0.8,5.5-2.3c1.5-1.5,2.3-3.4,2.3-5.5V75.6C154.9,73.4,154.2,71.6,152.6,70.1z M128.9,67.8
	H87.1V52.1c0-5.8,2-10.7,6.1-14.7c4.1-4.1,9-6.1,14.7-6.1s10.7,2,14.7,6.1c4.1,4.1,6.1,9,6.1,14.7V67.8z"/>
</svg>
