<?xml version="1.0" encoding="utf-8"?>
<!-- Generator: Adobe Illustrator 18.0.0, SVG Export Plug-In . SVG Version: 6.00 Build 0)  -->
<!DOCTYPE svg PUBLIC "-//W3C//DTD SVG 1.1//EN" "http://www.w3.org/Graphics/SVG/1.1/DTD/svg11.dtd">
<svg version="1.1" id="Calque_1" xmlns="http://www.w3.org/2000/svg" xmlns:xlink="http://www.w3.org/1999/xlink" x="0px" y="0px"
	 viewBox="0 -136 1280 1116" enable-background="new 0 -136 1280 1116" xml:space="preserve">
<g>
	<g>
		<path d="M488.4,345.5c-24.4,24.4-35.9,53.1-35.9,86.1c0,34.4,11.5,63.1,35.9,86.1c24.4,24.4,53.1,35.9,86.1,35.9
			c33,0,63.1-11.5,86.1-35.9c24.4-24.4,35.9-53.1,35.9-86.1s-11.5-63.1-35.9-86.1c-24.4-24.4-53.1-35.9-86.1-35.9
			C541.5,309.6,512.8,321.1,488.4,345.5z M590.3,369.9c0,4.3-1.4,8.6-4.3,11.5c-2.9,2.9-7.2,4.3-11.5,4.3c-12.9,0-23,4.3-33,12.9
			c-8.6,8.6-12.9,20.1-12.9,33c0,4.3-1.4,8.6-4.3,11.5c-2.9,2.9-7.2,4.3-11.5,4.3c-4.3,0-8.6-1.4-11.5-4.3
			c-2.9-2.9-4.3-7.2-4.3-11.5c0-21.5,7.2-38.7,23-54.5c14.3-14.3,33-23,54.5-23c4.3,0,8.6,1.4,11.5,4.3S590.3,365.6,590.3,369.9z"/>
		<path d="M956.2,405.7c-11.5,0-21.5-4.3-28.7-12.9c-7.2-8.6-11.5-18.7-11.5-30.1c2.9-71.7,30.1-124.8,80.4-156.4
			c2.9-1.4,5.7-2.9,8.6-4.3V94.3c0-17.2-5.7-31.6-17.2-43S959,32.6,943.3,32.6H208.6c-17.2,0-31.6,5.7-43,17.2
			c-11.5,11.5-18.7,27.3-18.7,44.5v612.7c0,17.2,5.7,31.6,17.2,43c11.5,11.5,25.8,17.2,43,17.2h734.7c17.2,0,31.6-5.7,43-17.2
			c11.5-11.5,17.2-25.8,17.2-43V405.7H956.2z M268.8,62.8h183.7v61.7H268.8V62.8z M208.6,154.6h308.5l30.1-61.7h396.1v66v56H208.6
			V154.6z M759.6,431.6c0,50.2-17.2,93.3-54.5,129.1s-78.9,54.5-129.1,54.5c-50.2,0-93.3-17.2-129.1-54.5s-54.5-78.9-54.5-129.1
			s17.2-93.3,54.5-129.1s78.9-54.5,129.1-54.5c50.2,0,93.3,17.2,129.1,54.5S759.6,381.3,759.6,431.6z M943.3,705.7H208.6v-61.7
			h734.7V705.7z"/>
	</g>
</g>
<g>
	<g>
		<path d="M1017.9,242.2c24.4-15.8,54.5-23,89-23c45.9,0,84.7,11.5,116.2,33c30.1,21.5,45.9,54.5,45.9,99c0,27.3-7.2,48.8-20.1,67.4
			c-7.2,11.5-23,25.8-44.5,43l-21.5,15.8c-11.5,8.6-20.1,20.1-24.4,33c-2.9,7.2-4.3,20.1-4.3,35.9H1071c1.4-34.4,4.3-58.8,10-71.7
			c5.7-12.9,18.7-28.7,41.6-45.9l23-17.2c7.2-5.7,12.9-11.5,17.2-18.7c8.6-11.5,12.9-24.4,12.9-37.3c0-15.8-4.3-30.1-14.3-43
			c-8.6-12.9-25.8-18.7-50.2-18.7s-40.2,8.6-50.2,24.4s-14.3,31.6-14.3,48.8h-89C959,308.2,979.1,266.5,1017.9,242.2z M1069.5,588
			h91.8v89h-91.8V588z"/>
	</g>
</g>
</svg>
