<?xml version="1.0" encoding="utf-8"?>
<!-- Generator: Adobe Illustrator 18.0.0, SVG Export Plug-In . SVG Version: 6.00 Build 0)  -->
<!DOCTYPE svg PUBLIC "-//W3C//DTD SVG 1.1//EN" "http://www.w3.org/Graphics/SVG/1.1/DTD/svg11.dtd">
<svg version="1.1" id="Layer_1" xmlns="http://www.w3.org/2000/svg" xmlns:xlink="http://www.w3.org/1999/xlink" x="0px" y="0px"
	 viewBox="0 0 5.9 8.9" enable-background="new 0 0 5.9 8.9" xml:space="preserve">
<g>
	<path d="M0,2.4c0-0.4,0.1-0.7,0.4-1.1s0.6-0.7,1-0.9S2.4,0,3,0c0.6,0,1.1,0.1,1.5,0.3s0.8,0.5,1,0.9s0.4,0.8,0.4,1.2
		c0,0.3-0.1,0.6-0.2,0.9S5.4,3.7,5.2,3.9s-0.5,0.5-1,0.9C4,4.9,3.9,5,3.9,5.1S3.7,5.3,3.7,5.3S3.6,5.5,3.6,5.6S3.5,5.8,3.5,6
		C3.4,6.4,3.2,6.6,2.8,6.6c-0.2,0-0.4-0.1-0.5-0.2S2.1,6.1,2.1,5.8c0-0.3,0.1-0.6,0.2-0.9s0.2-0.5,0.4-0.6S3,3.9,3.3,3.7
		c0.2-0.2,0.4-0.4,0.5-0.5s0.2-0.2,0.3-0.4s0.1-0.3,0.1-0.4c0-0.3-0.1-0.6-0.3-0.8S3.4,1.2,3,1.2c-0.4,0-0.7,0.1-0.9,0.3
		s-0.4,0.5-0.5,1C1.4,3,1.2,3.2,0.8,3.2C0.6,3.2,0.4,3.1,0.2,3S0,2.6,0,2.4z M2.9,8.9c-0.2,0-0.4-0.1-0.6-0.2S2,8.3,2,8
		c0-0.2,0.1-0.5,0.3-0.6s0.4-0.3,0.6-0.3c0.2,0,0.5,0.1,0.6,0.3S3.7,7.7,3.7,8c0,0.3-0.1,0.5-0.3,0.6S3.1,8.9,2.9,8.9z"/>
</g>
</svg>
