<?xml version="1.0" encoding="utf-8"?>
<!-- Generator: Adobe Illustrator 18.0.0, SVG Export Plug-In . SVG Version: 6.00 Build 0)  -->
<!DOCTYPE svg PUBLIC "-//W3C//DTD SVG 1.1//EN" "http://www.w3.org/Graphics/SVG/1.1/DTD/svg11.dtd">
<svg version="1.1" id="Capa_1" xmlns="http://www.w3.org/2000/svg" xmlns:xlink="http://www.w3.org/1999/xlink" x="0px" y="0px"
	 viewBox="0 0 216 146" enable-background="new 0 0 216 146" xml:space="preserve">
<path d="M106.2,9.2l49,49v76.5h-44.4V77.5H82.2v57.3H60.8V54.6L106.2,9.2 M106.2,0.7L102,4.9L56.5,50.4l-1.8,1.8v2.5v80.1v6h6h21.5
	h6v-6V83.5h16.6v51.3v6h6h44.4h6v-6V58.2v-2.5l-1.8-1.8l-49-49L106.2,0.7L106.2,0.7z"/>
<path d="M137,83.5v9.9h-9.1v-9.9H137 M143,77.5h-21.1v21.9H143V77.5L143,77.5z"/>
</svg>
