<?xml version="1.0" encoding="utf-8"?>
<!-- Generator: Adobe Illustrator 17.0.0, SVG Export Plug-In . SVG Version: 6.00 Build 0)  -->
<!DOCTYPE svg PUBLIC "-//W3C//DTD SVG 1.1//EN" "http://www.w3.org/Graphics/SVG/1.1/DTD/svg11.dtd">
<svg version="1.1" id="Calque_1" xmlns="http://www.w3.org/2000/svg" xmlns:xlink="http://www.w3.org/1999/xlink" x="0px" y="0px"
	 width="51.2px" height="50px" viewBox="0 0 51.2 50" enable-background="new 0 0 51.2 50" xml:space="preserve">
<path d="M40.533,27.733v-4.267c0-0.578-0.211-1.078-0.633-1.5c-0.422-0.422-0.922-0.633-1.5-0.633H12.8
	c-0.578,0-1.078,0.211-1.5,0.633c-0.422,0.422-0.633,0.922-0.633,1.5v4.267c0,0.578,0.211,1.078,0.633,1.5
	c0.422,0.422,0.922,0.633,1.5,0.633h25.6c0.578,0,1.078-0.211,1.5-0.633C40.322,28.811,40.533,28.311,40.533,27.733z M51.2,25.6
	c0,4.644-1.144,8.928-3.433,12.85s-5.394,7.028-9.317,9.317C34.528,50.056,30.244,51.2,25.6,51.2s-8.928-1.144-12.85-3.433
	c-3.922-2.289-7.028-5.394-9.317-9.317S0,30.244,0,25.6s1.144-8.928,3.433-12.85s5.394-7.028,9.317-9.317S20.956,0,25.6,0
	s8.928,1.144,12.85,3.433s7.028,5.394,9.317,9.317S51.2,20.956,51.2,25.6z"/>
</svg>
