<?xml version="1.0" encoding="utf-8"?>
<!-- Generator: Adobe Illustrator 18.0.0, SVG Export Plug-In . SVG Version: 6.00 Build 0)  -->
<!DOCTYPE svg PUBLIC "-//W3C//DTD SVG 1.1//EN" "http://www.w3.org/Graphics/SVG/1.1/DTD/svg11.dtd">
<svg version="1.1" id="Calque_1" xmlns="http://www.w3.org/2000/svg" xmlns:xlink="http://www.w3.org/1999/xlink" x="0px" y="0px"
	 viewBox="0 0 196.7 150.3" enable-background="new 0 0 196.7 150.3" xml:space="preserve">
<path d="M196.7,29.3c0,3.4-1.1,6.1-3.4,8.7l-92.1,91.7l-17.1,17.1c-2.3,2.3-5.3,3.4-8.7,3.4s-6.1-1.1-8.7-3.4l-17.1-17.1L3.8,84.1
	C1.1,81.4,0,78.7,0,75.3c0-3.4,1.1-6.1,3.4-8.7l17.5-17.1c2.3-2.3,5.3-3.4,8.7-3.4c3.4,0,6.1,1.1,8.7,3.4l37.3,37.3l82.9-83.3
	c2.3-2.3,5.3-3.4,8.7-3.4c3.4,0,6.1,1.1,8.7,3.4l17.1,17.1C195.6,23.2,196.7,25.8,196.7,29.3z"/>
</svg>
