<?xml version="1.0" encoding="utf-8"?>
<!-- Generator: Adobe Illustrator 18.0.0, SVG Export Plug-In . SVG Version: 6.00 Build 0)  -->
<!DOCTYPE svg PUBLIC "-//W3C//DTD SVG 1.1//EN" "http://www.w3.org/Graphics/SVG/1.1/DTD/svg11.dtd">
<svg version="1.1" id="Capa_1" xmlns="http://www.w3.org/2000/svg" xmlns:xlink="http://www.w3.org/1999/xlink" x="0px" y="0px"
	 viewBox="45.4 10.4 125.1 125.1" enable-background="new 45.4 10.4 125.1 125.1" xml:space="preserve">
<path d="M162.2,41.6c-5.6-9.6-13.2-17.2-22.8-22.8c-9.6-5.6-20.1-8.4-31.4-8.4c-11.4,0-21.8,2.8-31.4,8.4C67,24.4,59.4,32,53.8,41.6
	c-5.6,9.6-8.4,20.1-8.4,31.4c0,11.4,2.8,21.8,8.4,31.4c5.6,9.6,13.2,17.2,22.8,22.8c9.6,5.6,20.1,8.4,31.4,8.4s21.8-2.8,31.4-8.4
	c9.6-5.6,17.2-13.2,22.8-22.8c5.6-9.6,8.4-20.1,8.4-31.4C170.6,61.6,167.8,51.2,162.2,41.6z M118.4,112.1c0,0.8-0.2,1.4-0.7,1.9
	c-0.5,0.5-1.1,0.7-1.9,0.7h-15.6c-0.8,0-1.4-0.2-1.9-0.7s-0.7-1.1-0.7-1.9V96.5c0-0.8,0.2-1.4,0.7-1.9c0.5-0.5,1.1-0.7,1.9-0.7h15.6
	c0.8,0,1.4,0.2,1.9,0.7c0.5,0.5,0.7,1.1,0.7,1.9V112.1z M138.3,64c-0.7,2-1.4,3.7-2.3,4.9c-0.8,1.3-2.1,2.6-3.6,3.9
	c-1.6,1.3-2.8,2.3-3.7,2.9c-0.9,0.6-2.3,1.3-4,2.3c-1.8,1-3.3,2.4-4.4,4c-1.2,1.7-1.8,3-1.8,4c0,0.8-0.2,1.4-0.7,1.9
	c-0.5,0.5-1.1,0.7-1.9,0.7h-15.6c-0.8,0-1.4-0.2-1.9-0.7c-0.5-0.5-0.7-1.1-0.7-1.9v-2.9c0-3.6,1.4-7,4.3-10.2c2.9-3.2,6-5.5,9.4-7
	c2.6-1.2,4.5-2.4,5.5-3.7c1.1-1.2,1.6-2.9,1.6-5c0-1.8-1-3.4-3.1-4.8c-2-1.4-4.4-2.1-7-2.1c-2.8,0-5.2,0.7-7,2
	c-1.8,1.3-4.1,3.8-7,7.5c-0.5,0.7-1.2,1-2,1c-0.7,0-1.2-0.2-1.5-0.5l-10.8-8.1c-1.2-1-1.5-2.1-0.7-3.4c7-11.6,17-17.4,30.2-17.4
	c4.7,0,9.3,1.1,13.9,3.3c4.5,2.2,8.3,5.4,11.3,9.5c3,4.1,4.5,8.5,4.5,13.3C139.3,59.7,138.9,61.9,138.3,64z"/>
</svg>
