<?xml version="1.0" encoding="utf-8"?>
<!-- Generator: Adobe Illustrator 18.0.0, SVG Export Plug-In . SVG Version: 6.00 Build 0)  -->
<!DOCTYPE svg PUBLIC "-//W3C//DTD SVG 1.1//EN" "http://www.w3.org/Graphics/SVG/1.1/DTD/svg11.dtd">
<svg version="1.1" id="Capa_1" xmlns="http://www.w3.org/2000/svg" xmlns:xlink="http://www.w3.org/1999/xlink" x="0px" y="0px"
	 viewBox="0 0 216 146" enable-background="new 0 0 216 146" xml:space="preserve">
<path d="M131.5,10.4c1.4,0,2.6,0.5,3.7,1.5c1,1,1.5,2.3,1.5,3.7v26.1h13c1.4,0,3,0.4,4.7,1.1c1.7,0.7,3.1,1.6,4.2,2.6l16.1,16.1
	c1,1,1.9,2.4,2.6,4.2c0.7,1.7,1.1,3.3,1.1,4.7v33.9c1.4,0,2.6,0.5,3.7,1.5c1,1,1.5,2.3,1.5,3.7c0,1.4-0.5,2.6-1.5,3.7
	c-1,1-2.3,1.5-3.7,1.5H168c0,5.8-2,10.7-6.1,14.7c-4.1,4.1-9,6.1-14.7,6.1s-10.7-2-14.7-6.1c-4.1-4.1-6.1-9-6.1-14.7H95
	c0,5.8-2,10.7-6.1,14.7c-4.1,4.1-9,6.1-14.7,6.1s-10.7-2-14.7-6.1c-4.1-4.1-6.1-9-6.1-14.7H37.6c-1.4,0-2.6-0.5-3.7-1.5
	c-1-1-1.5-2.3-1.5-3.7V15.6c0-1.4,0.5-2.6,1.5-3.7c1-1,2.3-1.5,3.7-1.5H131.5 M136.7,73H168v-2.4c-0.1-0.5-0.4-1.1-0.7-1.8
	l-15.9-15.9c-0.4-0.4-1-0.6-1.8-0.7h-12.9V73 M147.1,125.1c2.9,0,5.3-1,7.4-3.1c2-2,3.1-4.5,3.1-7.4c0-2.9-1-5.3-3.1-7.4
	c-2-2-4.5-3.1-7.4-3.1c-2.9,0-5.3,1-7.4,3.1c-2,2-3.1,4.5-3.1,7.4c0,2.9,1,5.3,3.1,7.4C141.8,124.1,144.2,125.1,147.1,125.1
	 M74.1,125.1c2.9,0,5.3-1,7.4-3.1c2-2,3.1-4.5,3.1-7.4c0-2.9-1-5.3-3.1-7.4c-2-2-4.5-3.1-7.4-3.1c-2.9,0-5.3,1-7.4,3.1
	c-2,2-3.1,4.5-3.1,7.4c0,2.9,1,5.3,3.1,7.4C68.8,124.1,71.2,125.1,74.1,125.1 M131.5,4.4H37.6c-3,0-5.7,1.1-7.9,3.3
	c-2.2,2.2-3.3,4.9-3.3,7.9v93.9c0,3,1.1,5.7,3.3,7.9c2.2,2.2,4.9,3.3,7.9,3.3h10.3c1.1,4.9,3.5,9.2,7.2,13c5.2,5.2,11.6,7.9,19,7.9
	c7.4,0,13.8-2.6,19-7.9c3.7-3.8,6.2-8.1,7.2-13h20.5c1.1,4.9,3.5,9.2,7.2,13c5.2,5.2,11.6,7.9,19,7.9s13.8-2.6,19-7.9
	c3.7-3.7,6.2-8.1,7.2-13h5.1c3,0,5.7-1.1,7.9-3.3c2.2-2.2,3.3-4.9,3.3-7.9c0-3-1.1-5.7-3.3-7.9c-0.6-0.6-1.2-1.1-1.9-1.5V70.4
	c0-2.2-0.5-4.5-1.5-7c-1-2.5-2.3-4.5-3.9-6.1l-16.1-16.1c-1.6-1.6-3.7-2.9-6.1-3.9c-2.5-1-4.8-1.5-7-1.5h-7V15.6
	c0-3-1.1-5.7-3.3-7.9C137.2,5.6,134.5,4.4,131.5,4.4L131.5,4.4z M142.7,58.1h5.4L157,67h-14.3V58.1L142.7,58.1z M147.1,119.1
	c-1.3,0-2.2-0.4-3.1-1.3c-0.9-0.9-1.3-1.8-1.3-3.1c0-1.3,0.4-2.2,1.3-3.1c0.9-0.9,1.8-1.3,3.1-1.3c1.3,0,2.2,0.4,3.1,1.3
	c0.9,0.9,1.3,1.8,1.3,3.1c0,1.3-0.4,2.2-1.3,3.1C149.3,118.8,148.4,119.1,147.1,119.1L147.1,119.1z M74.1,119.1
	c-1.3,0-2.2-0.4-3.1-1.3c-0.9-0.9-1.3-1.8-1.3-3.1c0-1.3,0.4-2.2,1.3-3.1c0.9-0.9,1.8-1.3,3.1-1.3c1.3,0,2.2,0.4,3.1,1.3
	c0.9,0.9,1.3,1.8,1.3,3.1c0,1.3-0.4,2.2-1.3,3.1C76.3,118.8,75.4,119.1,74.1,119.1L74.1,119.1z"/>
</svg>
