<?xml version="1.0" encoding="utf-8"?>
<!-- Generator: Adobe Illustrator 18.0.0, SVG Export Plug-In . SVG Version: 6.00 Build 0)  -->
<!DOCTYPE svg PUBLIC "-//W3C//DTD SVG 1.1//EN" "http://www.w3.org/Graphics/SVG/1.1/DTD/svg11.dtd">
<svg version="1.1" id="Capa_1" xmlns="http://www.w3.org/2000/svg" xmlns:xlink="http://www.w3.org/1999/xlink" x="0px" y="0px"
	 viewBox="0 0 216 146" enable-background="new 0 0 216 146" xml:space="preserve">
<path d="M32.4,15.6v93.9c0,1.4,0.5,2.6,1.5,3.7s2.3,1.5,3.7,1.5h15.6c0,5.8,2,10.7,6.1,14.7c4.1,4.1,9,6.1,14.7,6.1s10.7-2,14.7-6.1
	c4.1-4.1,6.1-9,6.1-14.7h31.3c0,5.8,2,10.7,6.1,14.7c4.1,4.1,9,6.1,14.7,6.1c5.8,0,10.7-2,14.7-6.1c4.1-4.1,6.1-9,6.1-14.7h10.4
	c1.4,0,2.6-0.5,3.7-1.5c1-1,1.5-2.3,1.5-3.7s-0.5-2.6-1.5-3.7c-1-1-2.3-1.5-3.7-1.5V70.4c0-1.4-0.4-3-1.1-4.7
	c-0.7-1.7-1.6-3.1-2.6-4.2l-16.1-16.1c-1-1-2.4-1.9-4.2-2.6c-1.7-0.7-3.3-1.1-4.7-1.1h-13V15.6c0-1.4-0.5-2.6-1.5-3.7
	s-2.3-1.5-3.7-1.5H37.6c-1.4,0-2.6,0.5-3.7,1.5C32.9,13,32.4,14.2,32.4,15.6z M136.7,114.7c0-2.9,1-5.3,3.1-7.4c2-2,4.5-3.1,7.4-3.1
	s5.3,1,7.4,3.1c2,2,3.1,4.5,3.1,7.4c0,2.9-1,5.3-3.1,7.4c-2,2-4.5,3.1-7.4,3.1s-5.3-1-7.4-3.1C137.7,120.1,136.7,117.6,136.7,114.7z
	 M136.7,52.1h12.9c0.8,0.1,1.4,0.4,1.8,0.7l15.9,15.9c0.4,0.7,0.6,1.2,0.7,1.8V73h-31.3V52.1z M63.7,114.7c0-2.9,1-5.3,3.1-7.4
	c2-2,4.5-3.1,7.4-3.1s5.3,1,7.4,3.1s3.1,4.5,3.1,7.4c0,2.9-1,5.3-3.1,7.4c-2,2-4.5,3.1-7.4,3.1s-5.3-1-7.4-3.1
	C64.7,120.1,63.7,117.6,63.7,114.7z"/>
</svg>
